<svg width="800" height="800" viewBox="0 0 800 800" fill="none" xmlns="http://www.w3.org/2000/svg">
<g clip-path="url(#clip0_1487_4103)">
<path d="M769.23 369.231H105.076L421.691 52.4615C427.422 46.6965 430.639 38.898 430.639 30.7692C430.639 22.6404 427.422 14.8419 421.691 9.07686C415.926 3.34606 408.128 0.129395 399.999 0.129395C391.87 0.129395 384.072 3.34606 378.307 9.07686L9.07595 378.308C7.62049 379.749 6.33046 381.349 5.22979 383.077C4.73961 383.563 4.27733 384.077 3.84518 384.615C3.84518 385.692 2.76825 386.615 2.30672 387.692L1.38364 390.769C1.29519 391.639 1.29519 392.515 1.38364 393.385C0.596079 397.346 0.596079 401.423 1.38364 405.385C1.29519 406.254 1.29519 407.13 1.38364 408L2.30672 411.077C2.30672 412.154 3.38364 413.077 3.84518 414.154C4.24948 414.956 4.71226 415.727 5.22979 416.461C6.33046 418.189 7.62049 419.789 9.07595 421.231L378.307 790.461C381.065 793.682 384.459 796.298 388.277 798.145C392.094 799.992 396.252 801.03 400.49 801.194C404.727 801.357 408.953 800.643 412.901 799.096C416.85 797.55 420.436 795.203 423.434 792.205C426.433 789.206 428.779 785.62 430.326 781.671C431.873 777.723 432.587 773.497 432.424 769.26C432.26 765.022 431.222 760.864 429.375 757.047C427.528 753.23 424.912 749.835 421.691 747.077L105.076 430.769H769.23C777.39 430.769 785.217 427.527 790.987 421.757C796.757 415.987 799.999 408.16 799.999 400C799.999 391.839 796.757 384.013 790.987 378.243C785.217 372.472 777.39 369.231 769.23 369.231Z" fill="#263A8D"/>
</g>
<defs>
<clipPath id="clip0_1487_4103">
<rect width="800" height="800" fill="white"/>
</clipPath>
</defs>
</svg>
