<svg width="446" height="313" viewBox="0 0 446 313" fill="none" xmlns="http://www.w3.org/2000/svg">
<path d="M445.401 202.721C429.499 264.204 289.041 323.29 222.779 310.515C78.7878 304.925 9.88153 150.021 70.8318 102.112C99.9845 75.7628 207.762 78.1576 322.606 114.888C385.329 130.858 451.585 163.596 445.401 202.721Z" fill="url(#paint0_linear_1317_2004)"/>
<path d="M410.96 108.501C372.081 213.899 -97.8962 -36.0234 98.2218 257.017C20.4813 218.69 -2.48644 169.185 1.93102 132.455C-1.60303 96.5236 62.8859 7.89277 196.281 3.90039C285.079 3.90039 410.96 73.2218 410.96 108.501Z" fill="url(#paint1_linear_1317_2004)"/>
<path d="M377.745 134.053C268.752 157.514 318.862 217.107 259.092 248.389C172.953 308.607 65.3187 276.543 44.6261 171.748C21.7715 56.0054 158.011 83.3767 169.439 83.3769C231.844 93.5434 293.363 100.424 377.745 134.053Z" fill="url(#paint2_linear_1317_2004)"/>
<path d="M131.923 62.5925C142.04 58.1701 151.872 53.978 162.332 49.4115C166.201 47.6002 169.39 46.0564 172.716 44.8017C173.552 44.4866 174.83 45.0991 175.699 45.5463C173.455 57.385 174.83 68.7978 177.235 80.5954C179.631 89.4 182.099 97.7665 184.607 106.544C187.852 113.592 191.057 120.23 194.315 127.228C195.714 129.878 197.06 132.168 198.671 134.905C193.358 135.036 188.959 135.145 184.233 135.09C177.23 134.983 170.554 135.039 163.484 135.036C160.133 135.073 157.177 135.17 153.875 135.09C147.05 135.485 140.57 136.057 133.746 136.536C131.184 134.476 128.643 132.715 126.833 130.488C124.748 127.923 123.309 124.947 121.54 121.763C118.966 114.591 116.322 107.838 113.97 101.006C112.853 97.7577 112.291 94.3569 111.478 91.0254C111.793 86.5 112.526 81.9577 112.333 77.4531C111.991 69.4863 119.093 68.0673 124.997 65.4945C127.177 64.5443 129.421 63.71 131.923 62.5925ZM124.294 86.5626C129.747 85.2962 135.2 84.0298 141.498 82.7036C145.482 81.1727 149.73 80.0209 153.389 78.0237C159.153 74.8781 164.617 71.2725 169.964 67.585C170.871 66.9599 170.553 64.9479 170.8 63.5766C169.465 63.735 167.891 63.5426 166.831 64.1076C158.661 68.4643 150.59 72.9676 141.635 77.538C138.507 78.4373 135.379 79.3382 132.251 80.2354C128.675 81.2608 125.098 82.2829 120.68 83.4593C119.558 83.8565 118.038 83.9821 117.396 84.7085C116.138 86.1321 114.406 88.0356 114.67 89.4694C114.931 90.8837 117.372 92.0113 118.943 93.1738C120.232 94.128 121.649 94.949 123.09 95.8817C128.02 92.6233 128.027 92.4974 124.294 86.5626Z" fill="#EEEDF2"/>
<path d="M172.922 45.2811C173.171 45.1873 173.553 45.2152 174.054 45.3749C174.41 45.4883 174.775 45.6515 175.115 45.8182C172.956 57.6131 174.34 68.9818 176.724 80.6746L176.727 80.6909L176.731 80.707C179.128 89.5157 181.598 97.8899 184.105 106.662L184.117 106.7L184.133 106.738C187.377 113.782 190.591 120.44 193.842 127.424L193.854 127.447C195.132 129.869 196.367 131.991 197.791 134.413C192.851 134.534 188.679 134.629 184.216 134.577L184.215 134.578C177.208 134.471 170.524 134.527 163.46 134.523L163.454 134.523L160.999 134.559C158.599 134.598 156.331 134.637 153.864 134.577L153.843 134.577L153.821 134.578L151.275 134.734C145.433 135.111 139.777 135.594 133.893 136.009C131.349 133.974 128.957 132.298 127.235 130.179C125.198 127.672 123.796 124.776 122.015 121.569C119.437 114.389 116.811 107.682 114.464 100.862C113.365 97.6686 112.819 94.3662 112.004 91.0099C112.318 86.5701 113.047 81.9697 112.853 77.454C112.771 75.5419 113.136 74.0502 113.798 72.8439C114.462 71.6348 115.441 70.6827 116.631 69.8772C117.825 69.0693 119.219 68.417 120.701 67.8014C122.156 67.1968 123.754 66.6057 125.226 65.9645C126.309 65.4924 127.408 65.0489 128.557 64.5807C129.703 64.114 130.894 63.6231 132.151 63.0616L132.152 63.0623C142.291 58.6306 152.074 54.4592 162.561 49.8811L162.562 49.8818L162.574 49.8755C166.452 48.0598 169.618 46.5271 172.922 45.2811ZM168.657 63.1784C167.952 63.2215 167.198 63.3179 166.567 63.6545C158.398 68.0102 150.354 72.4979 141.421 77.0584C138.308 77.9533 135.197 78.8506 132.084 79.7433C128.509 80.7685 124.936 81.7891 120.524 82.9641L120.504 82.9692L120.484 82.9763C120.227 83.0673 119.941 83.1451 119.632 83.2236C119.331 83.3002 119.002 83.3796 118.692 83.4683C118.089 83.6407 117.419 83.8836 116.996 84.3628C116.374 85.0659 115.602 85.9244 115.023 86.7899C114.462 87.629 113.986 88.6099 114.157 89.5388C114.247 90.0222 114.515 90.4456 114.842 90.8104C115.171 91.1759 115.587 91.513 116.02 91.8246C116.454 92.1369 116.927 92.4398 117.377 92.7286C117.834 93.0215 118.266 93.3002 118.641 93.578C119.949 94.5455 121.407 95.3936 122.818 96.3059L123.114 96.497L123.394 96.3108C124.617 95.5027 125.575 94.8632 126.242 94.2727C126.914 93.6777 127.361 93.0726 127.458 92.3117C127.553 91.5674 127.299 90.7771 126.84 89.8557C126.442 89.0582 125.855 88.0985 125.108 86.9055C130.338 85.6911 135.595 84.4757 141.629 83.2052L141.669 83.1969L141.707 83.1819C145.623 81.6774 149.962 80.4918 153.658 78.4746C159.445 75.3166 164.925 71.6991 170.276 68.0088C170.618 67.7728 170.816 67.4252 170.937 67.0701C171.058 66.7162 171.116 66.3164 171.149 65.9264C171.183 65.5381 171.195 65.1189 171.214 64.7415C171.233 64.3525 171.258 63.9967 171.314 63.6879L171.441 62.9823L170.715 63.0675C170.06 63.1452 169.41 63.1324 168.657 63.1784Z" stroke="#EEEDF2" stroke-opacity="0.75" stroke-width="1.03359"/>
<path d="M102.731 73.7228C104.07 73.58 105.41 73.4373 106.861 73.2826C106.884 79.3961 106.906 85.2648 106.891 91.8319C107.104 95.1542 107.355 97.778 107.234 100.429C104.899 99.088 103.005 97.6285 100.937 96.3957C100.031 95.8558 98.7678 95.779 97.6669 95.4918C97.8274 96.5625 97.675 97.7846 98.2196 98.6694C99.0957 100.093 100.432 101.294 101.196 102.625C94.1075 101.086 92.0966 102.838 93.14 109.041C88.9863 108.88 85.2298 108.685 80.9812 108.463C81.2362 110.331 81.7027 111.055 81.4111 112.339C77.5586 113.375 73.8425 114.683 69.9505 115.64C63.6182 116.916 57.7974 118.242 51.9111 119.263C50.2817 119.546 48.458 118.92 46.7869 118.306C45.639 110.695 45.64 110.698 53.6704 108.954C54.6765 108.735 55.6655 108.453 57.0757 108.283C65.9999 106.597 74.5383 104.924 82.9925 102.96C84.2949 102.657 85.2101 101.02 86.3044 99.9993C84.7119 99.4485 82.9537 98.1954 81.5542 98.462C73.1856 100.056 64.8997 102.001 56.1182 103.834C52.8893 104.285 50.1282 104.731 46.6009 105.3C50.733 92.1663 59.5064 84.3646 73.7968 80.831C83.7696 78.4422 93.2501 76.0825 102.731 73.7228Z" fill="#EEEDF2"/>
<path d="M106.342 73.8557C106.364 79.7565 106.384 85.4558 106.37 91.8082L106.37 91.8241L106.37 91.841C106.562 94.8298 106.779 97.21 106.739 99.5484C105.875 99.0246 105.064 98.488 104.266 97.9529C103.247 97.2698 102.242 96.5869 101.192 95.9612C100.659 95.6433 100.044 95.4743 99.465 95.349C98.8473 95.2154 98.3215 95.1385 97.7789 94.997L97.0401 94.8042L97.1511 95.5441C97.1877 95.7881 97.2073 96.0465 97.2239 96.323C97.2402 96.5924 97.2541 96.8879 97.2801 97.1732C97.3317 97.741 97.4372 98.3683 97.7762 98.9195C98.2389 99.6712 98.8204 100.359 99.3535 100.996C99.609 101.302 99.8516 101.596 100.075 101.885C98.8049 101.661 97.701 101.558 96.7566 101.594C95.5225 101.641 94.518 101.927 93.7764 102.529C93.0286 103.136 92.6108 104.012 92.4455 105.108C92.3029 106.055 92.3441 107.188 92.5318 108.504C88.6198 108.347 85.0269 108.162 80.9855 107.951L80.384 107.92L80.4648 108.508C80.5944 109.457 80.7862 110.168 80.8889 110.695C80.9748 111.136 81.0116 111.503 80.9517 111.928C79.1196 112.428 77.3164 112.984 75.5219 113.529C73.6256 114.105 71.7346 114.666 69.8035 115.141C63.4616 116.419 57.6702 117.74 51.7987 118.759C50.4199 118.998 48.8479 118.514 47.2546 117.937C46.9905 116.183 46.8029 114.886 46.7702 113.885C46.7357 112.829 46.8802 112.196 47.2143 111.742C47.5529 111.283 48.148 110.922 49.2304 110.568C50.311 110.214 51.7861 109.893 53.8048 109.454C54.8416 109.229 55.7844 108.958 57.1624 108.792L57.1788 108.79L57.196 108.786C66.1215 107.1 74.6687 105.426 83.1337 103.459C83.9452 103.271 84.5868 102.682 85.1206 102.102C85.3917 101.807 85.6602 101.484 85.9127 101.191C86.1707 100.891 86.4188 100.614 86.6719 100.378L87.2876 99.8039L86.4581 99.5171C86.0881 99.3892 85.7005 99.2173 85.2926 99.0277C84.8932 98.8422 84.4642 98.6347 84.0474 98.456C83.2286 98.105 82.3033 97.7928 81.4327 97.9587C73.066 99.5527 64.761 101.5 56.0046 103.328C53.0478 103.741 50.4816 104.152 47.3654 104.655C49.4153 98.5414 52.5144 93.6516 56.7501 89.8513C61.1743 85.882 66.8621 83.0801 73.9451 81.3287L73.9439 81.3279C83.9056 78.9418 93.376 76.5851 102.843 74.2286C103.986 74.1069 105.129 73.985 106.342 73.8557Z" stroke="#EEEDF2" stroke-opacity="0.75" stroke-width="1.03359"/>
<path d="M96.0847 61.5268C99.3607 63.1202 102.637 64.7137 106.157 66.5496C105.081 68.0138 103.76 69.2354 101.65 70.6871C91.6665 73.1138 82.4727 75.3104 72.9763 77.3608C72.2306 72.2477 74.8905 68.5085 79.3019 65.1672C85.2091 63.8808 90.6469 62.7038 96.0847 61.5268Z" fill="#EEEDF2"/>
<path d="M96.0387 62.0657C99.0836 63.5467 102.125 65.0295 105.366 66.7084C104.406 67.9015 103.213 68.9647 101.409 70.2118C91.6668 72.5797 82.6777 74.726 73.4231 76.7325C72.992 72.2062 75.4184 68.7919 79.5454 65.6443C85.3452 64.3814 90.6942 63.2225 96.0387 62.0657Z" stroke="#EEEDF2" stroke-opacity="0.75" stroke-width="1.03359"/>
<path d="M138.601 44.6444C137.826 43.0254 136.507 41.0598 137.065 39.6671C139.326 34.0231 142.155 28.5518 144.793 23.0238C146.132 20.2195 147.991 19.46 150.769 22.1639C147.958 28.822 145.043 35.2573 141.92 41.6147C141.357 42.7612 139.942 43.5872 138.601 44.6444Z" fill="#EEEDF2"/>
<path d="M147.371 21.0296C148.036 20.8924 148.933 21.1662 150.148 22.2732C147.382 28.8084 144.516 35.1302 141.449 41.3753C141.214 41.8527 140.786 42.2928 140.209 42.763C139.923 42.9957 139.612 43.2271 139.281 43.4715C139.115 43.594 138.944 43.719 138.772 43.8481C138.655 43.6201 138.535 43.3897 138.419 43.1646C138.196 42.7331 137.985 42.3084 137.816 41.897C137.467 41.0502 137.349 40.3766 137.551 39.8727C139.804 34.2481 142.619 28.8049 145.267 23.2585C145.922 21.8854 146.633 21.1821 147.371 21.0296Z" stroke="#EEEDF2" stroke-opacity="0.75" stroke-width="1.03359"/>
<path d="M169.348 30.8331C172.222 31.8864 173.241 33.6827 170.821 35.4149C165.428 39.2768 159.749 42.8268 153.78 46.6054C153.428 45.0379 152.697 42.6011 153.667 41.8296C158.525 37.9642 163.828 34.5349 169.348 30.8331Z" fill="#EEEDF2"/>
<path d="M169.435 31.4073C170.682 31.9043 171.375 32.5008 171.584 33.0343C171.768 33.5067 171.643 34.1792 170.502 34.9962C165.313 38.7122 159.856 42.1383 154.114 45.7707C153.968 45.1507 153.817 44.4956 153.745 43.883C153.695 43.4546 153.689 43.0829 153.74 42.7886C153.791 42.4945 153.89 42.3263 154.006 42.2339C158.78 38.4353 163.985 35.0593 169.435 31.4073Z" stroke="#EEEDF2" stroke-opacity="0.75" stroke-width="1.03359"/>
<path d="M121.524 44.664C119.81 39.472 118.39 34.4492 116.82 29.0166C116.376 27.2704 115.898 25.9408 115.847 24.5955C115.805 23.5003 116.276 22.3862 116.519 21.2804C117.976 21.6287 119.433 21.977 121.067 22.6148C122.549 28.0294 123.853 33.1543 125.32 38.6875C125.484 41.6097 128.461 45.5875 121.524 44.664Z" fill="#EEEDF2"/>
<path d="M116.908 21.8965C118.119 22.1887 119.321 22.4995 120.634 22.9934C122.082 28.2933 123.364 33.3189 124.804 38.7512C124.856 39.5261 125.083 40.3571 125.266 41.0859C125.464 41.8708 125.608 42.5295 125.565 43.054C125.545 43.3042 125.482 43.4993 125.378 43.6532C125.277 43.8041 125.115 43.9456 124.846 44.0578C124.32 44.2765 123.417 44.3677 121.911 44.1953C120.674 40.4252 119.587 36.7385 118.478 32.9044L117.322 28.8974C117.211 28.461 117.098 28.0511 116.991 27.665C116.882 27.2723 116.781 26.9063 116.692 26.5536C116.514 25.8485 116.391 25.22 116.368 24.5998C116.35 24.1261 116.443 23.6294 116.582 23.089C116.676 22.7258 116.799 22.308 116.908 21.8965Z" stroke="#EEEDF2" stroke-opacity="0.75" stroke-width="1.03359"/>
<path d="M180.454 44.4089C180.807 43.2731 181.159 42.1373 181.668 40.4605C184.513 34.8449 186.626 29.2458 194.612 29.0014C197.084 30.0253 199.556 31.0493 202.328 32.1862C205.95 36.1842 209.272 40.0693 212.817 44.1907C215.743 49.8909 218.445 55.3549 221.355 61.148C221.687 62.1669 221.811 62.8566 221.81 64.0564C222.034 65.0439 222.382 65.5213 222.729 65.9988C223.128 66.6193 223.527 67.2399 224.129 68.5869C224.779 71.1518 225.227 72.9903 225.287 74.9142C221.404 75.7603 218.974 77.6301 220.106 80.8513C221.251 84.1111 224.502 84.7864 228.134 83.8393C228.789 86.2658 229.444 88.6923 230.267 91.8823C230.45 93.6493 230.466 94.6529 230.264 95.8118C230.318 96.7865 230.59 97.6056 231.001 98.7536C231.348 99.7596 231.556 100.437 231.764 101.114C231.793 101.826 231.823 102.538 231.778 103.747C231.573 104.458 231.509 104.686 231.512 104.928C231.475 111.952 231.439 118.976 231.472 126.356C230.607 129.356 229.966 132.115 228.669 134.614C226.806 138.206 224.063 141.205 218.886 142.102C216.963 141.806 215.421 141.44 213.617 140.945C210.638 138.77 207.922 136.725 204.888 134.107C202.082 129.874 199.595 126.215 197.056 122.197C196.323 120.499 195.641 119.16 194.861 117.629C206.182 111.905 213.032 103.837 214.466 92.3453C218.389 91.3935 221.86 89.9276 221.059 86.2759C220.302 82.8272 217.267 81.0429 212.724 82.1344C212.348 81.8893 212.129 81.7497 211.853 81.2705C211.544 80.1877 211.261 79.4822 210.866 78.4222C207.991 74.8452 205.227 71.6228 202.287 68.1365C196.771 65.8294 191.432 63.7864 185.746 61.6193C183.725 61.289 182.05 61.0827 179.866 60.8137C180.064 55.2842 180.259 49.8466 180.454 44.4089Z" fill="#EEEDF2"/>
<path d="M186.612 33.062C188.391 31.0466 190.76 29.6595 194.539 29.5181C196.939 30.5122 199.344 31.5072 202.028 32.6082C205.598 36.5525 208.879 40.3898 212.384 44.4643C215.289 50.1261 217.974 55.5536 220.868 61.3143C221.176 62.2653 221.289 62.8996 221.289 64.0331L221.288 64.0901L221.302 64.1462C221.546 65.2244 221.937 65.7716 222.297 66.267C222.682 66.865 223.06 67.4549 223.633 68.7324C224.233 71.0988 224.644 72.7974 224.747 74.507C222.942 74.9444 221.409 75.6264 220.431 76.6289C219.9 77.174 219.53 77.8174 219.38 78.5626C219.23 79.307 219.306 80.1214 219.614 80.9987C220.243 82.7878 221.471 83.8976 223.044 84.4084C224.443 84.8629 226.079 84.8319 227.766 84.4589C228.374 86.7088 228.992 89.0023 229.752 91.9475C229.929 93.6732 229.939 94.6179 229.75 95.7031L229.74 95.759L229.743 95.8164C229.801 96.8718 230.098 97.7548 230.507 98.8972L230.507 98.8981C230.841 99.8637 231.043 100.523 231.244 101.178C231.272 101.851 231.298 102.529 231.258 103.646C231.077 104.277 230.988 104.582 230.99 104.903C230.954 111.904 230.917 118.908 230.949 126.265C230.085 129.272 229.46 131.941 228.202 134.366C226.394 137.851 223.778 140.702 218.856 141.581C217.034 141.297 215.555 140.948 213.833 140.477C210.909 138.342 208.245 136.333 205.278 133.777C202.494 129.577 200.031 125.953 197.516 121.975C196.855 120.446 196.233 119.204 195.551 117.861C206.613 112.152 213.411 104.127 214.939 92.7593C216.792 92.2925 218.591 91.6867 219.861 90.7358C220.541 90.2266 221.088 89.6062 221.403 88.8408C221.72 88.0714 221.787 87.1905 221.568 86.1898C221.161 84.3343 220.125 82.8789 218.539 82.0524C217.018 81.2598 215.064 81.0837 212.809 81.5845C212.722 81.5253 212.658 81.4782 212.599 81.4236C212.519 81.3503 212.436 81.2533 212.332 81.0806C212.024 80.0132 211.738 79.2921 211.355 78.2649L211.325 78.1842L211.27 78.1157L210.194 76.7877C207.694 73.7211 205.252 70.8667 202.683 67.8198L202.596 67.718L202.474 67.6667L200.409 66.8112C195.606 64.8418 190.89 63.0387 185.915 61.1427L185.864 61.1225L185.809 61.1138L184.336 60.8852C183.05 60.6958 181.825 60.5418 180.404 60.3665C180.596 55.0264 180.784 49.7697 180.972 44.5133C181.315 43.4081 181.662 42.2923 182.155 40.6687C183.588 37.8359 184.79 35.1261 186.612 33.062Z" stroke="#EEEDF2" stroke-opacity="0.75" stroke-width="1.03359"/>
<path d="M142.676 152.479C144.591 154.795 146.507 157.11 148.594 159.568C148.367 160.372 147.97 161.034 147.367 161.783C146.824 161.728 146.486 161.584 145.971 161.39C144.391 159.686 142.99 158.033 141.336 156.077C140.301 154.822 139.366 153.935 138.805 152.89C138.549 152.415 138.839 151.489 139.257 151.036C139.485 150.788 140.58 150.956 141.132 151.2C141.738 151.468 142.169 152.04 142.676 152.479Z" fill="#EEEDF2"/>
<path d="M139.616 151.228C139.729 151.216 139.879 151.219 140.051 151.238C140.398 151.277 140.776 151.373 141.015 151.479C141.266 151.59 141.493 151.77 141.731 151.993C141.943 152.191 142.204 152.467 142.451 152.684C144.327 154.951 146.205 157.22 148.244 159.623C148.04 160.268 147.712 160.827 147.219 161.457C146.841 161.4 146.566 161.292 146.145 161.132C144.592 159.454 143.208 157.822 141.572 155.887C141.058 155.264 140.546 154.705 140.129 154.214C139.7 153.71 139.344 153.248 139.079 152.756C139.009 152.625 138.994 152.369 139.08 152.044C139.163 151.737 139.318 151.44 139.486 151.254C139.478 151.262 139.503 151.24 139.616 151.228Z" stroke="#EEEDF2" stroke-opacity="0.75" stroke-width="0.618777"/>
<path d="M148.691 145.631C150.801 147.003 152.911 148.376 155.199 149.818C156.159 150.475 157.075 150.97 157.68 151.675C158.216 152.3 158.405 153.157 158.747 153.911C157.833 153.982 156.918 154.106 156.005 154.099C155.634 154.096 155.268 153.81 154.725 153.523C152.133 151.644 149.716 149.895 147.033 147.892C147.409 146.969 148.05 146.3 148.691 145.631Z" fill="#EEEDF2"/>
<path d="M148.749 146.029C150.785 147.353 152.829 148.681 155.039 150.074L155.038 150.073C155.279 150.238 155.516 150.392 155.742 150.54C155.973 150.69 156.193 150.833 156.401 150.977C156.817 151.265 157.17 151.546 157.445 151.866C157.679 152.138 157.844 152.47 157.997 152.847C158.094 153.086 158.195 153.367 158.303 153.641C157.514 153.712 156.759 153.798 155.994 153.792C155.888 153.792 155.761 153.75 155.566 153.649C155.471 153.599 155.369 153.539 155.251 153.471C155.141 153.407 155.019 153.339 154.887 153.268C152.367 151.441 150.014 149.737 147.42 147.803C147.744 147.121 148.225 146.581 148.749 146.029Z" stroke="#EEEDF2" stroke-opacity="0.75" stroke-width="0.618777"/>
<path d="M158.909 143.851C156.448 143.101 154.214 142.358 151.699 141.371C150.806 139.571 151.839 139.119 153.3 138.954C156.219 139.838 159.139 140.721 162.267 141.659C162.381 142.519 162.286 143.325 162.191 144.13C161.173 144.039 160.154 143.949 158.909 143.851Z" fill="#EEEDF2"/>
<path d="M152.417 139.44C152.662 139.36 152.955 139.307 153.285 139.267C156.117 140.124 158.952 140.981 161.979 141.889C162.04 142.536 161.986 143.157 161.913 143.799C160.999 143.718 160.067 143.635 158.954 143.548C156.553 142.815 154.369 142.089 151.927 141.135C151.563 140.352 151.657 139.973 151.853 139.76C151.971 139.632 152.156 139.525 152.417 139.44Z" stroke="#EEEDF2" stroke-opacity="0.75" stroke-width="0.618777"/>
<path d="M80.6468 125.843C79.9899 126.039 79.1405 126.073 78.7153 126.464C77.7499 127.353 76.9932 128.418 76.1517 129.412C77.5593 129.891 79.1127 130.989 80.3515 130.753C90.6914 128.783 100.966 126.537 111.28 124.457C113.08 124.095 114.978 124.125 117.339 124.486C119.725 128.496 121.601 131.993 123.754 136.002C119.11 136.543 114.901 137.034 110.271 137.442C101.537 139.12 93.2252 140.879 84.9129 142.639C79.3751 143.87 74.2034 142.586 68.7259 140.935C66.2885 140.112 64.2068 139.314 61.5726 138.205C59.0465 136.579 57.073 135.265 54.9289 133.632C52.6949 130.746 50.6315 128.178 47.8906 124.768C55.1022 123.266 61.2728 121.981 67.9347 120.7C73.2622 119.799 78.0982 118.894 83.0698 118.305C83.8017 119.987 84.3979 121.353 85.4946 123.866C82.4858 122.901 80.943 122.406 78.9846 121.778C79.6538 123.414 80.1503 124.629 80.6468 125.843ZM68.216 130.064C67.1486 128.856 66.2019 127.528 64.9245 126.528C64.6234 126.293 62.545 127.057 62.4402 127.546C62.2105 128.618 62.2585 130.317 63.0183 130.853C65.0846 132.311 67.5236 133.413 69.9754 134.327C70.288 134.443 71.5554 132.596 72.6046 131.404C70.7788 130.962 69.8052 130.726 68.216 130.064Z" fill="#EEEDF2"/>
<path d="M48.8095 125.105C55.6814 123.674 61.6364 122.437 68.0456 121.205L68.0459 121.206C73.2413 120.327 77.941 119.452 82.7554 118.864C83.3145 120.149 83.8194 121.308 84.5751 123.04C82.2361 122.289 80.8405 121.841 79.1263 121.291L78.0978 120.961L78.5015 121.95C79.072 123.345 79.5167 124.434 79.9432 125.477C79.7945 125.507 79.6348 125.538 79.4513 125.581C79.0969 125.665 78.6644 125.794 78.3502 126.083C77.3561 126.999 76.5507 128.122 75.745 129.074L75.2619 129.644L76.0009 129.895C76.3246 130.005 76.6645 130.154 77.0248 130.319C77.3764 130.481 77.7573 130.663 78.1268 130.82C78.8514 131.127 79.6837 131.406 80.4724 131.256C90.8139 129.287 101.105 127.036 111.407 124.96C113.064 124.626 114.823 124.638 117.025 124.957C119.212 128.645 120.977 131.91 122.946 135.577C118.585 136.085 114.582 136.545 110.202 136.932L110.175 136.934L110.149 136.939C101.41 138.618 93.0932 140.378 84.7816 142.137L84.7759 142.138C79.3832 143.337 74.3306 142.095 68.8572 140.445C66.4544 139.634 64.398 138.845 61.7993 137.752C59.3204 136.156 57.3848 134.865 55.2923 133.274C53.2149 130.592 51.2796 128.178 48.8095 125.105ZM64.3016 126.016C64.0244 126.07 63.7026 126.169 63.3975 126.288C63.0926 126.407 62.782 126.556 62.5324 126.715C62.4084 126.794 62.2857 126.885 62.1849 126.985C62.1161 127.054 62.0312 127.153 61.975 127.281L61.9294 127.42C61.804 128.005 61.755 128.754 61.8409 129.441C61.884 129.785 61.963 130.131 62.0958 130.441C62.2278 130.749 62.427 131.053 62.7272 131.265C64.8498 132.762 67.3393 133.884 69.8102 134.805C69.9727 134.865 70.1179 134.845 70.2073 134.82C70.2978 134.795 70.3731 134.753 70.4286 134.719C70.5398 134.649 70.6492 134.554 70.7472 134.458C70.9471 134.262 71.1822 133.987 71.426 133.688C71.9299 133.071 72.4871 132.338 73.0051 131.749L73.5639 131.115L72.7077 130.907C70.9308 130.477 69.9961 130.248 68.5192 129.641C67.5946 128.582 66.6599 127.32 65.4836 126.332L65.2379 126.133L65.1647 126.083C64.9914 125.981 64.8062 125.972 64.7165 125.972C64.5822 125.97 64.4384 125.99 64.3016 126.016Z" stroke="#EEEDF2" stroke-opacity="0.75" stroke-width="1.03359"/>
<path d="M82.3481 158.497C80.0365 156 77.725 153.503 75.1817 150.79C74.4944 149.466 74.0387 148.358 73.543 147.152C77.6665 146.981 81.3958 146.826 85.9624 146.597C94.7678 145.014 102.736 143.505 111.172 142.009C116.9 141.505 122.161 140.99 129.182 140.303C126.796 144.558 125.793 148.228 123.228 150.567C115.499 157.617 105.411 161.088 94.5706 163.342C90.3081 161.604 86.3281 160.05 82.3481 158.497Z" fill="#EEEDF2"/>
<path d="M74.2961 147.634C78.1436 147.474 81.7058 147.325 86.012 147.108L86.0459 147.107L86.0784 147.1C94.8884 145.516 102.837 144.012 111.27 142.516C116.713 142.037 121.737 141.547 128.248 140.909C127.286 142.726 126.537 144.437 125.802 145.911C124.938 147.641 124.079 149.077 122.865 150.184C115.269 157.112 105.345 160.56 94.5964 162.808C90.43 161.11 86.5314 159.588 82.6393 158.068C80.3732 155.62 78.1032 153.169 75.6119 150.511C75.0775 149.476 74.6862 148.573 74.2961 147.634Z" stroke="#EEEDF2" stroke-opacity="0.75" stroke-width="1.03359"/>
<path d="M41.5516 176.537C43.3462 173.753 45.2654 170.992 47.6668 168.607C49.784 166.504 52.4396 164.823 55.2145 162.919C56.0032 164.322 57.3354 166.481 56.718 167.081C53.1437 170.549 49.176 173.717 45.1605 176.804C44.5547 177.269 43.0011 176.773 41.5516 176.537Z" fill="#EEEDF2"/>
<path d="M55.051 163.666C55.3895 164.261 55.7547 164.904 56.0179 165.49C56.1887 165.871 56.3 166.192 56.3395 166.434C56.3822 166.696 56.3209 166.73 56.343 166.708C52.7897 170.156 48.8401 173.31 44.8275 176.394C44.7875 176.425 44.6935 176.468 44.4898 176.481C44.2901 176.493 44.036 176.472 43.7276 176.427C43.4212 176.381 43.0854 176.315 42.7244 176.242C42.6228 176.221 42.5193 176.201 42.4146 176.18C44.0835 173.627 45.8662 171.14 48.0457 168.976C50.0052 167.03 52.4323 165.451 55.051 163.666Z" stroke="#EEEDF2" stroke-opacity="0.75" stroke-width="1.03359"/>
<path d="M37.8608 99.6422C39.5933 99.4127 40.9436 99.345 41.1965 99.3323C41.6065 107.026 42.0043 114.491 42.7204 122.62C45.4125 126.951 47.7863 130.617 50.294 134.515C51.0168 135.159 51.6057 135.571 52.364 136.267C51.2037 137.451 49.8742 138.352 48.5446 139.253C46.0311 139.401 43.5175 139.549 40.5858 139.711C38.2843 138.875 36.4011 138.023 34.2238 137.113C31.1329 134.72 28.336 132.386 25.2038 129.959C23.8233 126.56 22.7782 123.253 21.7746 119.572C23.2379 110.36 27.1561 103.081 37.8608 99.6422Z" fill="#EEEDF2"/>
<path d="M37.996 100.144C39.1454 99.9933 40.1206 99.9149 40.7043 99.8761C41.1043 107.379 41.5009 114.693 42.201 122.642L42.2119 122.766L42.2788 122.873C44.9736 127.208 47.3506 130.878 49.8573 134.775L49.8976 134.837L49.9538 134.888C50.3263 135.219 50.6647 135.491 50.9941 135.76C51.1959 135.924 51.3942 136.09 51.6026 136.269C50.6066 137.207 49.4974 137.971 48.3494 138.749C45.9144 138.892 43.4729 139.036 40.6441 139.193C38.4296 138.383 36.6085 137.564 34.4775 136.671C32.9575 135.494 31.5076 134.33 30.0484 133.158C28.609 132.002 27.1599 130.84 25.633 129.655C24.3027 126.36 23.2852 123.144 22.3071 119.566C23.0354 115.048 24.36 111.045 26.7798 107.754C29.2061 104.454 32.7576 101.836 37.996 100.144Z" stroke="#EEEDF2" stroke-opacity="0.75" stroke-width="1.03359"/>
<path d="M69.2524 170.815C67.5098 178.193 64.6897 185.02 57.8905 190.265C57.15 188.834 55.994 187.072 56.5391 185.932C58.7732 181.263 61.3349 176.686 64.2295 172.306C64.9051 171.283 67.3587 171.167 69.2524 170.815Z" fill="#EEEDF2"/>
<path d="M66.4166 171.809C66.8665 171.713 67.3586 171.636 67.8656 171.56C68.0921 171.525 68.3222 171.49 68.5514 171.455C66.8516 178.298 64.1365 184.56 58.043 189.47C57.7411 188.913 57.4392 188.362 57.2146 187.816C56.9085 187.072 56.8388 186.532 57.0132 186.167C59.2384 181.516 61.7891 176.959 64.6708 172.598C64.7695 172.449 64.9571 172.299 65.268 172.158C65.5757 172.019 65.965 171.906 66.4166 171.809Z" stroke="#EEEDF2" stroke-opacity="0.75" stroke-width="1.03359"/>
<path d="M137.781 195.504C133.746 196.163 129.969 196.596 125.783 197.082C122.471 195.035 119.567 192.935 116.341 190.736C114.333 188.714 112.646 186.792 110.561 184.439C109.979 183.518 109.794 183.028 109.948 182.417C110.433 180.741 111.352 178.578 110.542 177.776C109.399 176.646 106.977 176.522 104.835 175.671C103.09 172.724 101.612 170.075 100.032 167.242C103.785 165.823 106.793 164.685 109.978 163.446C110.371 163.18 112.579 162.334 112.579 162.334C112.579 162.334 118.873 159.707 118.336 159.923C120.983 162.818 118.892 167.81 121.579 170.251C122.05 170.678 123.397 170.354 124.339 170.377C124.122 169.488 124.21 168.383 123.635 167.748C121.426 165.311 119.004 163.026 116.99 160.485C120.211 158.693 123.104 157.101 126.119 155.827C126.426 156.796 126.611 157.446 126.404 158.193C122.479 159.392 121.524 161.747 123.19 164.356C125.426 167.861 128.789 167.622 132.489 165.539C134.744 167.408 136.708 169.112 138.862 171.096C143.72 174.728 146.188 179.069 146.471 184.391C143.66 188.02 140.849 191.649 137.781 195.504ZM117.827 170.178C115.558 167.699 112.691 168.402 111.281 170.377C110.358 171.67 111.025 174.367 111.984 175.959C112.505 176.824 115.732 177.451 116.679 176.859C118.897 175.475 121.006 173.386 117.827 170.178Z" fill="#EEEDF2"/>
<path d="M125.796 156.538C125.942 157.054 126.003 157.423 125.95 157.792C124.079 158.411 122.807 159.328 122.229 160.507C121.61 161.773 121.852 163.206 122.751 164.614C123.949 166.492 125.498 167.421 127.274 167.554C128.909 167.676 130.668 167.115 132.445 166.159C134.576 167.932 136.459 169.569 138.514 171.462L138.535 171.481L138.558 171.499C143.246 175.003 145.619 179.145 145.938 184.213C143.201 187.747 140.462 191.282 137.482 195.028C133.592 195.658 129.933 196.081 125.886 196.551C122.67 194.554 119.841 192.513 116.671 190.35C114.702 188.366 113.04 186.475 110.98 184.149C110.429 183.272 110.357 182.951 110.453 182.566C110.681 181.782 111.049 180.761 111.24 179.899C111.339 179.457 111.404 179.007 111.38 178.597C111.356 178.189 111.239 177.755 110.904 177.424C110.217 176.744 109.189 176.402 108.182 176.126C107.183 175.852 106.165 175.631 105.185 175.262C103.59 172.564 102.215 170.11 100.769 167.519C104.277 166.192 107.153 165.105 110.188 163.924L110.241 163.904L110.288 163.872C110.343 163.835 110.512 163.749 110.783 163.628C111.038 163.515 111.346 163.387 111.644 163.265C111.942 163.144 112.228 163.031 112.44 162.948C112.545 162.907 112.632 162.873 112.693 162.849C112.723 162.838 112.747 162.828 112.763 162.822C112.771 162.819 112.777 162.817 112.781 162.815C112.782 162.814 112.784 162.813 112.785 162.813L112.787 162.813L112.794 162.81L112.801 162.807L112.805 162.806C112.808 162.805 112.813 162.802 112.819 162.8C112.831 162.795 112.849 162.788 112.872 162.778C112.918 162.759 112.985 162.73 113.07 162.695C113.241 162.623 113.486 162.521 113.776 162.4C114.358 162.157 115.128 161.835 115.881 161.52C116.212 161.382 116.541 161.244 116.848 161.115C117.62 162.065 118.452 162.987 119.301 163.894C119.351 164.34 119.387 164.801 119.422 165.272C119.494 166.22 119.569 167.211 119.807 168.121C120.046 169.04 120.46 169.916 121.235 170.62C121.472 170.835 121.773 170.918 122.023 170.954C122.282 170.992 122.564 170.99 122.831 170.978C123.097 170.965 123.385 170.938 123.64 170.919C123.905 170.899 124.143 170.885 124.35 170.89L124.999 170.906L124.846 170.279C124.799 170.086 124.767 169.874 124.736 169.638C124.706 169.412 124.677 169.152 124.636 168.908C124.557 168.426 124.417 167.858 124.017 167.417C122.785 166.058 121.52 164.775 120.298 163.479C120.136 162.252 119.819 161.009 119.023 159.959C121.365 158.671 123.556 157.517 125.796 156.538ZM114.159 168.097C112.817 168.226 111.625 168.985 110.85 170.07C110.274 170.876 110.234 172.039 110.412 173.116C110.594 174.214 111.023 175.35 111.538 176.205C111.762 176.576 112.201 176.835 112.609 177.014C113.046 177.205 113.569 177.357 114.093 177.458C114.618 177.559 115.166 177.614 115.656 177.602C116.125 177.59 116.619 177.517 116.973 177.296C118.089 176.598 119.3 175.657 119.767 174.397C120.008 173.749 120.048 173.028 119.797 172.246C119.58 171.571 119.153 170.871 118.49 170.142L118.192 169.829C116.956 168.487 115.514 167.967 114.159 168.097ZM118.197 160.55C118.529 160.987 118.761 161.472 118.929 161.995C118.552 161.572 118.182 161.144 117.823 160.708C117.844 160.699 117.865 160.69 117.885 160.682C118.001 160.633 118.106 160.588 118.197 160.55Z" stroke="#EEEDF2" stroke-opacity="0.75" stroke-width="1.03359"/>
<path d="M96.0096 41.1866C93.8044 39.367 91.5993 37.5475 89.1112 35.535C88.7969 34.9538 88.7653 34.5654 88.673 33.891C90.3348 31.6949 92.1254 31.3624 94.2552 33.1714C96.3478 34.9489 98.5863 36.5929 101.089 38.3931C104.398 40.7937 107.563 42.9437 110.259 45.4814C111.219 46.3842 111.04 48.2284 111.381 49.6429C109.871 49.4853 108.237 49.5905 106.884 49.1004C105.356 48.5466 104.082 47.4579 102.168 46.3602C99.7622 44.4746 97.8859 42.8306 96.0096 41.1866Z" fill="#EEEDF2"/>
<path d="M91.3861 32.536C92.0989 32.4343 92.9261 32.7041 93.925 33.5524C96.0359 35.3455 98.2901 37.0006 100.793 38.801C104.123 41.2165 107.245 43.3379 109.908 45.844C110.244 46.16 110.42 46.6844 110.537 47.426C110.594 47.7889 110.632 48.1612 110.679 48.5598C110.7 48.7305 110.722 48.9047 110.748 49.0788C110.182 49.0417 109.602 49.0217 109.088 48.985C108.334 48.9313 107.649 48.8389 107.045 48.6202C106.341 48.3651 105.683 47.9824 104.941 47.5083C104.221 47.0477 103.41 46.4946 102.455 45.9446C100.076 44.0781 98.216 42.4495 96.3465 40.8114L96.341 40.8056L96.3345 40.7999L92.9899 38.0457C91.8789 37.1339 90.7335 36.1995 89.522 35.2192C89.3303 34.8383 89.2865 34.5619 89.218 34.056C89.9721 33.1059 90.6918 32.6351 91.3861 32.536Z" stroke="#EEEDF2" stroke-opacity="0.75" stroke-width="1.03359"/>
<path d="M77.5075 186.901C78.5159 182.719 79.5304 178.871 80.5122 175.016C81.1114 172.664 82.2135 171.249 85.4375 173.468C84.4668 180.393 83.184 186.748 81.5004 193.217C79.9983 193.478 78.8971 193.625 77.7959 193.771C77.6972 191.592 77.5985 189.412 77.5075 186.901Z" fill="#EEEDF2"/>
<path d="M82.2401 172.989C82.6933 172.766 83.47 172.792 84.8737 173.699C83.9267 180.37 82.6863 186.518 81.0722 192.764C79.9938 192.947 79.1239 193.07 78.2902 193.182C78.2013 191.217 78.1122 189.229 78.0302 186.974C79.0324 182.821 80.0404 179 81.0184 175.161C81.1635 174.592 81.3318 174.107 81.5411 173.73C81.7499 173.354 81.9827 173.115 82.2401 172.989Z" stroke="#EEEDF2" stroke-opacity="0.75" stroke-width="1.03359"/>
<path d="M124.505 86.4793C136.579 87.766 128.52 93.8997 123.591 97.1581C122.149 96.2253 120.233 94.1293 118.944 93.175C117.373 92.0125 114.933 90.8849 114.672 89.4706C114.407 88.0369 116.139 86.1334 117.398 84.7097C118.039 83.9833 119.311 82.4903 120.906 82.3353C121.944 83.4953 123.94 85.5614 124.505 86.4793Z" fill="#EEEDF2"/>
<path d="M120.723 82.8844C121.223 83.4355 121.912 84.1755 122.499 84.8277C123.208 85.6138 123.811 86.3218 124.063 86.7303L124.205 86.9604L124.473 86.9886C127.48 87.3092 129.077 87.9228 129.799 88.5961C130.138 88.9118 130.279 89.2362 130.301 89.5734C130.323 89.9285 130.216 90.3467 129.96 90.8258C129.445 91.7912 128.413 92.8543 127.163 93.899C126.02 94.8546 124.73 95.763 123.574 96.5348C122.965 96.0951 122.27 95.4684 121.559 94.8091C120.754 94.0637 119.921 93.2715 119.245 92.771C118.835 92.4676 118.372 92.1688 117.921 91.8791C117.464 91.5856 117.017 91.3006 116.612 91.0091C116.206 90.7168 115.864 90.4336 115.612 90.1536C115.36 89.8733 115.226 89.6251 115.185 89.4016C115.092 88.8969 115.35 88.2084 115.903 87.3814C116.439 86.5812 117.161 85.7758 117.797 85.0555C118.124 84.6863 118.576 84.1635 119.137 83.71C119.627 83.3139 120.162 83.0013 120.723 82.8844Z" stroke="#EEEDF2" stroke-opacity="0.75" stroke-width="1.03359"/>
<path d="M101.661 102.95C103.633 103.101 105.699 103.615 108.139 104.052C110.169 108.769 111.824 113.562 113.738 119.102C102.782 121.383 92.2058 123.585 81.1377 125.815C80.1493 124.63 79.6528 123.415 78.9837 121.779C80.9421 122.407 82.4849 122.902 85.4936 123.867C84.397 121.354 83.8007 119.988 83.0689 118.306C84.6603 117.571 86.3874 117.151 88.5494 116.637C90.2674 116.593 92.446 117.033 92.6769 116.625C93.6356 114.932 94.0065 112.984 94.8057 110.859C100.875 110.992 102.771 108.945 101.661 102.95Z" fill="#EEEDF2"/>
<path d="M102.281 103.522C103.945 103.71 105.688 104.119 107.774 104.502C109.678 108.96 111.258 113.5 113.059 118.713C104.027 120.593 95.2441 122.419 86.2207 124.255L85.9713 123.683C84.9757 121.402 84.3922 120.066 83.7457 118.581C85.152 117.99 86.6958 117.609 88.6366 117.148C89.4501 117.132 90.3594 117.225 91.1586 117.279C91.5519 117.306 91.9311 117.323 92.2331 117.304C92.3832 117.295 92.5419 117.275 92.6844 117.229C92.8167 117.187 93.0179 117.097 93.1355 116.89C93.6396 115.999 93.9838 115.051 94.2988 114.079C94.5851 113.195 94.8458 112.307 95.1811 111.375C98.0485 111.398 100.126 110.912 101.326 109.547C102.489 108.225 102.703 106.218 102.281 103.522ZM85.3522 124.354L85.5002 124.401C84.1172 124.682 82.7291 124.966 81.3325 125.247C80.7214 124.454 80.3163 123.629 79.8785 122.598C81.4088 123.089 82.8895 123.563 85.3522 124.354Z" stroke="#EEEDF2" stroke-opacity="0.75" stroke-width="1.03359"/>
<path d="M76.0265 50.4321C79.4759 50.7487 82.9253 51.0653 86.9977 51.5291C90.7282 52.3354 93.8356 52.9945 96.943 53.6536C97.6617 54.844 98.3805 56.0343 99.0992 57.2247C97.6411 57.7557 96.1829 58.2867 94.3855 58.9133C89.4726 57.8569 84.829 56.8748 80.3588 55.4716C78.5014 54.8886 77.0142 53.4062 75.2802 52.0256C75.2017 51.7184 75.1203 51.6202 75.3129 51.4966C75.6792 51.0594 75.8528 50.7458 76.0265 50.4321Z" fill="#EEEDF2"/>
<path d="M76.3277 50.9727C79.6591 51.2785 83.0038 51.5875 86.9267 52.0339C90.5562 52.8184 93.5966 53.4628 96.6212 54.1043C96.9394 54.6313 97.2572 55.1584 97.5754 55.6854C97.8291 56.1055 98.0825 56.5262 98.3362 56.9462C97.0979 57.3968 95.8307 57.856 94.3268 58.3812C89.4626 57.3355 84.8933 56.3647 80.4966 54.9845C79.6538 54.7199 78.8757 54.2447 78.0774 53.6455C77.309 53.0688 76.5999 52.4426 75.7683 51.7723C76.0246 51.4599 76.1921 51.2046 76.3277 50.9727Z" stroke="#EEEDF2" stroke-opacity="0.75" stroke-width="1.03359"/>
<path d="M213.122 83.6193C213.062 83.3862 213.003 83.153 212.929 82.5608C210.508 77.6493 222.673 81.3039 221.061 86.2757C221.862 89.9274 218.391 91.3933 214.468 92.3451C213.808 89.7415 213.574 87.0582 213.217 83.9823C213.095 83.5896 213.122 83.6193 213.122 83.6193Z" fill="#EEEDF2"/>
<path d="M213.599 80.8537C214.202 80.6435 215.299 80.7449 216.531 81.1921C217.739 81.6307 218.947 82.3572 219.747 83.2389C220.539 84.111 220.893 85.0818 220.563 86.1002L220.522 86.2277L220.552 86.3623C220.733 87.1871 220.667 87.8589 220.436 88.4209C220.203 88.987 219.786 89.4772 219.208 89.9099C218.143 90.7076 216.589 91.2628 214.846 91.714C214.293 89.3175 214.069 86.8319 213.735 83.9465L213.729 83.8996L213.714 83.8528C213.654 83.6581 213.637 83.5896 213.635 83.5758C213.635 83.5779 213.636 83.5868 213.638 83.6001C213.638 83.6053 213.647 83.6641 213.632 83.738C213.626 83.7727 213.604 83.8659 213.528 83.9565C213.486 84.0064 213.425 84.0575 213.343 84.092C213.306 84.1072 213.269 84.1165 213.233 84.1228L213.217 83.9823C213.184 83.8779 213.165 83.8027 213.151 83.7495L213.627 83.5154C213.572 83.2995 213.517 83.0879 213.446 82.5214L213.436 82.4337L213.396 82.3541C213.121 81.796 213.101 81.4524 213.154 81.259C213.199 81.0909 213.324 80.9498 213.599 80.8537Z" stroke="#EEEDF2" stroke-opacity="0.75" stroke-width="1.03359"/>
<path d="M119.174 169.153C122.96 172.55 120.078 175.094 117.08 176.805C115.798 177.537 111.538 176.893 110.88 175.883C109.668 174.025 108.887 170.847 110.163 169.284C112.112 166.898 115.946 165.974 119.174 169.153Z" fill="#EEEDF2"/>
<path d="M110.575 169.616C111.475 168.515 112.801 167.762 114.255 167.642C115.694 167.524 117.305 168.021 118.814 169.507L118.823 169.516L118.832 169.524C119.731 170.33 120.186 171.044 120.365 171.661C120.54 172.266 120.464 172.829 120.198 173.373C119.647 174.503 118.298 175.505 116.803 176.359C116.589 176.481 116.183 176.574 115.616 176.6C115.066 176.625 114.428 176.584 113.802 176.491C113.175 176.397 112.579 176.252 112.112 176.078C111.878 175.991 111.688 175.9 111.546 175.813C111.399 175.721 111.336 175.653 111.315 175.621C110.751 174.756 110.28 173.568 110.104 172.419C109.926 171.254 110.065 170.24 110.575 169.616Z" stroke="#EEEDF2" stroke-opacity="0.75" stroke-width="1.03359"/>
<path d="M126.402 158.189C128.366 160.103 129.936 162.112 131.798 164.363C132.089 164.604 132.728 166.167 132.773 166.356C129.409 168.794 125.424 167.857 123.188 164.352C121.522 161.742 122.478 159.388 126.402 158.189Z" fill="#EEEDF2"/>
<path d="M126.277 158.775C128.105 160.593 129.601 162.501 131.399 164.676L131.433 164.716L131.472 164.748L131.46 164.738C131.463 164.743 131.475 164.757 131.494 164.784C131.526 164.831 131.565 164.896 131.611 164.979C131.703 165.145 131.805 165.355 131.903 165.57C131.997 165.776 132.082 165.98 132.149 166.146C130.657 167.123 129.084 167.393 127.648 167.082C126.114 166.75 124.677 165.74 123.627 164.095C122.86 162.893 122.748 161.845 123.171 160.981C123.584 160.137 124.563 159.349 126.277 158.775Z" stroke="#EEEDF2" stroke-opacity="0.75" stroke-width="1.03359"/>
<path d="M113.585 162.473C114.256 161.709 122.364 157.767 123.226 157.64C125.912 159.986 125.354 169.372 127.562 171.808C128.138 172.444 125.035 172.82 125.252 173.709C124.309 173.686 121.868 170.856 121.397 170.428C118.71 167.988 116.231 165.368 113.585 162.473Z" fill="#EEEDF2"/>
<path d="M123.095 158.221C123.546 158.728 123.915 159.546 124.225 160.62C124.575 161.833 124.821 163.273 125.058 164.748C125.292 166.209 125.518 167.709 125.823 168.992C126.092 170.119 126.443 171.169 126.981 171.894C126.821 171.979 126.597 172.074 126.318 172.191C125.991 172.329 125.593 172.497 125.294 172.7C125.179 172.778 125.033 172.893 124.917 173.044C124.829 172.99 124.73 172.924 124.622 172.844C124.281 172.59 123.893 172.24 123.505 171.864C123.12 171.49 122.748 171.102 122.44 170.777C122.144 170.466 121.879 170.184 121.742 170.059C119.202 167.753 116.847 165.283 114.346 162.556C114.38 162.534 114.415 162.51 114.452 162.486C114.728 162.312 115.094 162.101 115.524 161.863C116.383 161.389 117.479 160.824 118.585 160.277C119.69 159.731 120.799 159.205 121.684 158.809C122.126 158.611 122.509 158.447 122.805 158.329C122.916 158.285 123.014 158.25 123.095 158.221Z" stroke="#EEEDF2" stroke-opacity="0.75" stroke-width="1.03359"/>
<path d="M199.994 103.926C199.148 103.003 198.105 102.169 197.51 101.133C196.901 100.072 196.731 98.8133 196.368 97.6413C197.652 97.8533 199.016 97.9035 200.189 98.3426C200.811 98.5756 201.103 99.4834 201.545 100.087C201.793 99.7362 202.04 99.3858 202.288 99.0354C201.794 97.3218 201.3 95.6081 200.805 93.8944C202.875 94.8105 204.945 95.7265 207.369 96.6262C206.498 99.2752 204.836 104.987 202.251 105.37C200.759 105.109 198.835 105.536 197.769 105.372L199.994 103.926Z" fill="#EEEDF2"/>
<path d="M201.601 94.7973C203.212 95.5069 204.865 96.2181 206.718 96.9209C206.29 98.2429 205.717 100.041 204.978 101.617C204.563 102.502 204.106 103.292 203.612 103.877C203.134 104.442 202.664 104.761 202.212 104.849C201.422 104.728 200.552 104.773 199.792 104.824C199.711 104.829 199.631 104.834 199.553 104.84L200.296 104.357L200.785 104.04L200.375 103.593C199.95 103.13 199.436 102.647 199.027 102.226C198.596 101.783 198.224 101.355 197.961 100.896C197.69 100.425 197.51 99.8953 197.35 99.3158C197.26 98.9904 197.169 98.6237 197.074 98.2567C197.485 98.3104 197.898 98.3603 198.267 98.4138C198.903 98.506 199.491 98.6215 200.022 98.8203C200.146 98.8667 200.292 99.0054 200.493 99.3286C200.589 99.4829 200.677 99.6433 200.782 99.8277C200.882 100.004 200.997 100.196 201.126 100.373L201.565 100.974L201.978 100.392C202.226 100.041 202.473 99.6907 202.72 99.3402L202.857 99.1481L202.79 98.9163C202.394 97.5433 201.997 96.1704 201.601 94.7973Z" stroke="#EEEDF2" stroke-opacity="0.75" stroke-width="1.03359"/>
<path d="M187.709 101.113C190.777 99.2578 193.267 98.8457 194.842 102.561C195.213 103.436 197.702 103.598 199.606 104.009C199.997 103.929 199.998 103.923 200.028 104.269C199.159 107.862 196.762 107.909 193.832 106.969C192.649 106.589 192.269 107.326 191.05 107.031C190.125 106.807 189.208 105.207 188.559 104.595C188.169 103.438 187.941 102.463 187.709 101.113Z" fill="#EEEDF2"/>
<path d="M188.285 101.384C189.684 100.572 190.849 100.155 191.801 100.258C192.731 100.358 193.616 100.98 194.362 102.74C194.535 103.149 194.918 103.399 195.272 103.561C195.641 103.73 196.092 103.856 196.557 103.959C197.025 104.063 197.54 104.151 198.044 104.237C198.519 104.319 198.987 104.399 199.423 104.491C199 105.929 198.315 106.577 197.522 106.831C196.613 107.121 195.42 106.946 193.973 106.482C193.235 106.245 192.726 106.365 192.304 106.471C191.914 106.569 191.624 106.648 191.153 106.534C191.04 106.506 190.887 106.424 190.692 106.259C190.5 106.098 190.302 105.885 190.096 105.642C189.89 105.397 189.696 105.147 189.496 104.897C189.34 104.702 189.176 104.504 189.015 104.337C188.691 103.359 188.485 102.501 188.285 101.384Z" stroke="#EEEDF2" stroke-opacity="0.75" stroke-width="1.03359"/>
<path d="M190.297 106.47C191.404 106.365 192.652 106.588 193.835 106.968C196.765 107.908 199.162 107.861 200.029 104.27C201.065 104.087 201.981 103.852 203.348 104.692C200.398 107.649 197.304 110.324 193.172 113.898C191.825 110.474 191.117 108.672 190.297 106.47Z" fill="#EEEDF2"/>
<path d="M200.453 104.722C200.856 104.65 201.198 104.593 201.564 104.609C201.841 104.621 202.137 104.676 202.473 104.81C199.819 107.43 197.008 109.879 193.378 113.02C192.334 110.367 191.695 108.731 191.029 106.96C191.872 106.98 192.791 107.165 193.694 107.454C195.178 107.93 196.649 108.201 197.887 107.806C199.106 107.416 199.974 106.427 200.453 104.722Z" stroke="#EEEDF2" stroke-opacity="0.75" stroke-width="1.03359"/>
<path d="M88.9306 116.748C89.8014 112.039 86.7626 111.38 79.6857 112.598C80.5477 112.471 80.8399 109.661 80.5845 107.789C84.8409 108.011 88.9286 109.072 93.3735 109.339C94.3618 109.867 94.6687 110.325 94.7625 111.053C93.9618 113.182 93.5902 115.134 92.6298 116.83C92.3985 117.239 90.2158 116.798 88.9306 116.748Z" fill="#EEEDF2"/>
<path d="M81.1618 108.338C83.0588 108.471 84.9326 108.758 86.8503 109.055C88.9152 109.374 91.0304 109.702 93.2349 109.842C93.6363 110.066 93.8604 110.25 93.9944 110.422C94.1127 110.573 94.1824 110.744 94.2249 110.986C93.8433 112.019 93.552 113.02 93.2577 113.929C92.9595 114.849 92.6504 115.691 92.2233 116.468C92.1899 116.474 92.1427 116.48 92.0796 116.484C91.8641 116.497 91.5625 116.482 91.1988 116.45C90.7056 116.406 90.0859 116.328 89.533 116.277C89.6548 115.311 89.6056 114.475 89.3356 113.778C89.0008 112.913 88.3554 112.324 87.463 111.974C86.5954 111.635 85.4944 111.52 84.1992 111.557C83.2198 111.585 82.1034 111.7 80.853 111.886C80.945 111.6 81.0189 111.28 81.0708 110.948C81.1969 110.142 81.2252 109.192 81.1618 108.338Z" stroke="#EEEDF2" stroke-opacity="0.75" stroke-width="1.03548"/>
<path d="M94.9773 110.781C94.6704 110.324 94.3635 109.866 93.773 109.302C92.0463 103.017 94.0609 101.262 101.162 102.803C101.539 102.766 101.538 102.765 101.632 103.128C102.744 109.134 100.845 111.185 94.9773 110.781Z" fill="#EEEDF2"/>
<path d="M94.5142 103.508C94.984 103.095 95.7167 102.841 96.8134 102.797C97.9091 102.754 99.3158 102.923 101.071 103.304L101.138 103.319C101.662 106.229 101.417 107.996 100.521 109.013C99.6441 110.007 98.0032 110.439 95.2538 110.283C95.0009 109.912 94.7063 109.514 94.2408 109.054C93.8418 107.569 93.6714 106.387 93.7225 105.469C93.7746 104.533 94.053 103.913 94.5142 103.508Z" stroke="#EEEDF2" stroke-opacity="0.75" stroke-width="1.03548"/>
<path d="M107.205 100.601C107.847 101.523 108.117 102.473 108.064 103.864C105.671 103.792 103.601 103.277 101.531 102.762L101.534 102.764C100.39 101.467 99.0516 100.264 98.1739 98.8382C97.6283 97.9518 97.781 96.7275 97.6202 95.6549C98.7231 95.9425 99.9884 96.0195 100.896 96.5604C102.968 97.7954 104.865 99.2576 107.205 100.601Z" fill="#EEEDF2"/>
<path d="M98.2069 96.3077C98.5679 96.3807 98.9298 96.4467 99.2408 96.5139C99.7959 96.6341 100.266 96.7734 100.64 96.9957C101.66 97.6039 102.638 98.2686 103.669 98.9597C104.661 99.6246 105.697 100.309 106.837 100.97C107.286 101.645 107.521 102.345 107.546 103.327C105.49 103.208 103.665 102.767 101.8 102.304C101.259 101.701 100.657 101.085 100.135 100.515C99.556 99.8827 99.0294 99.256 98.6177 98.5872C98.4121 98.2531 98.3214 97.8265 98.2729 97.2937C98.2488 97.0286 98.2368 96.7619 98.2194 96.4729C98.2161 96.4184 98.2106 96.3632 98.2069 96.3077Z" stroke="#EEEDF2" stroke-opacity="0.75" stroke-width="1.03548"/>
<path d="M68.4302 130.508C69.714 130.958 70.6893 131.194 72.5185 131.638C71.4674 132.832 70.1976 134.682 69.8845 134.565C67.4281 133.65 64.9847 132.546 62.9146 131.085C62.1534 130.548 62.1053 128.847 62.3354 127.773C62.4404 127.283 64.5226 126.517 64.8243 126.753C66.1041 127.754 67.0524 129.085 68.4302 130.508Z" fill="#EEEDF2"/>
<path d="M64.4458 127.247C64.5125 127.234 64.5652 127.228 64.6041 127.225C65.1656 127.678 65.6706 128.205 66.2047 128.801C66.7606 129.422 67.3606 130.131 68.0592 130.853L68.1508 130.947L68.2749 130.991C69.3728 131.376 70.2529 131.607 71.5785 131.931C71.2044 132.39 70.8284 132.873 70.5116 133.261C70.2682 133.559 70.0618 133.798 69.9032 133.953C69.8816 133.974 69.8611 133.992 69.8439 134.007C67.4784 133.115 65.1631 132.054 63.2064 130.673C63.1267 130.617 63.0345 130.506 62.9508 130.311C62.868 130.118 62.8066 129.872 62.7713 129.59C62.703 129.044 62.7397 128.43 62.8365 127.95C62.8375 127.949 62.8388 127.948 62.8399 127.947C62.8739 127.913 62.9339 127.865 63.0241 127.808C63.2034 127.693 63.4518 127.572 63.7177 127.469C63.9834 127.365 64.245 127.286 64.4458 127.247Z" stroke="#EEEDF2" stroke-opacity="0.75" stroke-width="1.03548"/>
<path d="M112.53 186.498C112.008 186.566 110.062 184.056 108.9 181.81C107.254 179.44 105.459 176.701 104.219 174.697C104.219 174.697 105.105 175.407 105.27 175.379C107.311 175.982 109.742 176.18 110.87 177.391C111.67 178.249 113.05 184.767 112.53 186.498Z" fill="#EEEDF2"/>
<path d="M105.649 176.011C106.015 176.107 106.386 176.194 106.748 176.277C107.286 176.401 107.803 176.517 108.291 176.652C109.286 176.926 110.041 177.246 110.492 177.73C110.523 177.764 110.603 177.884 110.713 178.141C110.816 178.382 110.928 178.695 111.041 179.064C111.268 179.801 111.496 180.732 111.683 181.694C111.871 182.657 112.016 183.642 112.083 184.485C112.117 184.916 112.128 185.293 112.119 185.604C111.901 185.378 111.643 185.078 111.366 184.72C110.687 183.844 109.927 182.683 109.363 181.591L109.346 181.56L109.327 181.531L108.705 180.63C107.651 179.09 106.573 177.457 105.649 176.011Z" stroke="#EEEDF2" stroke-opacity="0.75" stroke-width="1.03548"/>
<path d="M225.544 75.1045C226.521 77.1745 227.108 79.317 227.879 81.8396C228.056 82.642 228.049 83.0642 228.022 83.804C225.63 87.883 221.115 84.162 220.111 80.8651C217.94 76.2304 219.021 70.9343 225.544 75.1045Z" fill="#EEEDF2"/>
<path d="M220.02 74.9523C220.335 74.4166 220.846 74.0924 221.648 74.1067C222.466 74.1213 223.612 74.4944 225.139 75.4507C226.052 77.4259 226.617 79.4733 227.373 81.9471C227.523 82.6324 227.526 83.0022 227.505 83.6391C226.973 84.498 226.371 84.8977 225.785 85.0285C225.168 85.1664 224.481 85.0261 223.781 84.6513C222.364 83.8915 221.073 82.2576 220.609 80.7347L220.599 80.6979L220.582 80.6641C220.062 79.5531 219.741 78.4112 219.646 77.3946C219.549 76.3687 219.685 75.5203 220.02 74.9523Z" stroke="#EEEDF2" stroke-opacity="0.75" stroke-width="1.03359"/>
<rect width="20.9071" height="16.9715" transform="matrix(0.98923 -0.146369 0.178217 0.983991 86.0469 98.8584)" fill="#EEEDF2"/>
<rect x="1.00383" y="0.720229" width="19.1874" height="15.2519" transform="matrix(0.98923 -0.146369 0.178217 0.983991 85.9293 99.0169)" stroke="#EEEDF2" stroke-opacity="0.75" stroke-width="1.7197"/>
<rect width="10.4535" height="9.25721" transform="matrix(0.98923 -0.146369 0.178217 0.983991 61.4219 129.002)" fill="#EEEDF2"/>
<rect x="1.00383" y="0.720229" width="8.73383" height="7.53751" transform="matrix(0.98923 -0.146369 0.178217 0.983991 61.3043 129.16)" stroke="#EEEDF2" stroke-opacity="0.75" stroke-width="1.7197"/>
<path d="M77.2773 120.785L80.6888 120.109L82.0375 125.59L78.6261 126.267L77.2773 120.785Z" fill="#EEEDF2"/>
<path d="M80.052 121.112L80.9892 124.921L79.262 125.264L78.3247 121.454L80.052 121.112Z" stroke="#EEEDF2" stroke-opacity="0.75" stroke-width="1.7197"/>
<mask id="path-78-outside-1_1317_2004" maskUnits="userSpaceOnUse" x="165.309" y="156.826" width="220" height="41" fill="black">
<rect fill="white" x="165.309" y="156.826" width="220" height="41"/>
<path d="M185.998 197.025C178.245 197.025 173.079 195.727 170.501 193.13C167.942 190.514 166.663 187.234 166.663 183.291H179.629C179.629 185.642 180.245 187.073 181.477 187.585C182.728 188.078 184.197 188.324 185.884 188.324C187.59 188.324 189.05 188.154 190.263 187.812C191.495 187.471 192.111 186.77 192.111 185.708C192.111 184.495 191.173 183.699 189.296 183.32C187.439 182.941 184.908 182.505 181.704 182.012C175.885 180.912 171.923 179.633 169.819 178.173C167.734 176.713 166.691 174.296 166.691 170.922C166.691 167.415 167.989 164.401 170.586 161.88C173.184 159.34 178.235 158.07 185.742 158.07C193.211 158.07 198.253 159.425 200.869 162.136C203.504 164.828 204.822 168.022 204.822 171.718H191.827C191.827 169.406 191.183 168.003 189.894 167.51C188.605 167.017 187.173 166.771 185.6 166.771C183.799 166.771 182.283 166.97 181.05 167.368C179.837 167.766 179.231 168.448 179.231 169.415C179.231 170.799 180.197 171.671 182.131 172.031C184.064 172.372 186.605 172.808 189.751 173.339C195.798 174.439 199.827 175.652 201.836 176.979C203.864 178.287 204.879 180.581 204.879 183.86C204.879 187.481 203.618 190.58 201.097 193.158C198.576 195.736 193.543 197.025 185.998 197.025ZM209.218 196.826V158.439H230.089L235.236 187.443H235.321L240.468 158.439H261.339V196.826H248.515V167.34H248.401L242.771 196.684H227.786L222.156 167.34H222.042V196.826H209.218ZM264.851 196.826L276.566 158.411H294.849L306.593 196.826H293.228L291.295 188.609H280.177L278.215 196.826H264.851ZM282.253 180.135H289.248L285.807 165.946H285.693L282.253 180.135ZM309.85 196.826V158.439H334.758C339.479 158.439 342.616 159.653 344.17 162.079C345.725 164.506 346.502 167.406 346.502 170.78C346.502 174.097 345.677 176.884 344.028 179.14C342.379 181.396 339.109 182.524 334.218 182.524H322.873V196.826H309.85ZM333.394 196.826L324.806 179.14L337.659 178.713L347.469 196.826H333.394ZM322.873 174.647H330.408C331.583 174.647 332.389 174.353 332.825 173.766C333.261 173.159 333.479 172.221 333.479 170.951C333.479 169.662 333.251 168.714 332.796 168.107C332.36 167.501 331.564 167.197 330.408 167.197H322.873V174.647ZM360.728 196.826V167.197H349.581V158.439H384.84V167.197H373.722V196.826H360.728Z"/>
</mask>
<path d="M185.998 197.025C178.245 197.025 173.079 195.727 170.501 193.13C167.942 190.514 166.663 187.234 166.663 183.291H179.629C179.629 185.642 180.245 187.073 181.477 187.585C182.728 188.078 184.197 188.324 185.884 188.324C187.59 188.324 189.05 188.154 190.263 187.812C191.495 187.471 192.111 186.77 192.111 185.708C192.111 184.495 191.173 183.699 189.296 183.32C187.439 182.941 184.908 182.505 181.704 182.012C175.885 180.912 171.923 179.633 169.819 178.173C167.734 176.713 166.691 174.296 166.691 170.922C166.691 167.415 167.989 164.401 170.586 161.88C173.184 159.34 178.235 158.07 185.742 158.07C193.211 158.07 198.253 159.425 200.869 162.136C203.504 164.828 204.822 168.022 204.822 171.718H191.827C191.827 169.406 191.183 168.003 189.894 167.51C188.605 167.017 187.173 166.771 185.6 166.771C183.799 166.771 182.283 166.97 181.05 167.368C179.837 167.766 179.231 168.448 179.231 169.415C179.231 170.799 180.197 171.671 182.131 172.031C184.064 172.372 186.605 172.808 189.751 173.339C195.798 174.439 199.827 175.652 201.836 176.979C203.864 178.287 204.879 180.581 204.879 183.86C204.879 187.481 203.618 190.58 201.097 193.158C198.576 195.736 193.543 197.025 185.998 197.025ZM209.218 196.826V158.439H230.089L235.236 187.443H235.321L240.468 158.439H261.339V196.826H248.515V167.34H248.401L242.771 196.684H227.786L222.156 167.34H222.042V196.826H209.218ZM264.851 196.826L276.566 158.411H294.849L306.593 196.826H293.228L291.295 188.609H280.177L278.215 196.826H264.851ZM282.253 180.135H289.248L285.807 165.946H285.693L282.253 180.135ZM309.85 196.826V158.439H334.758C339.479 158.439 342.616 159.653 344.17 162.079C345.725 164.506 346.502 167.406 346.502 170.78C346.502 174.097 345.677 176.884 344.028 179.14C342.379 181.396 339.109 182.524 334.218 182.524H322.873V196.826H309.85ZM333.394 196.826L324.806 179.14L337.659 178.713L347.469 196.826H333.394ZM322.873 174.647H330.408C331.583 174.647 332.389 174.353 332.825 173.766C333.261 173.159 333.479 172.221 333.479 170.951C333.479 169.662 333.251 168.714 332.796 168.107C332.36 167.501 331.564 167.197 330.408 167.197H322.873V174.647ZM360.728 196.826V167.197H349.581V158.439H384.84V167.197H373.722V196.826H360.728Z" fill="#EEEDF2"/>
<path d="M170.501 193.13L170.246 193.379L170.248 193.381L170.501 193.13ZM166.663 183.291V182.934H166.305V183.291H166.663ZM179.629 183.291H179.986V182.934H179.629V183.291ZM181.477 187.585L181.34 187.915L181.346 187.917L181.477 187.585ZM190.263 187.812L190.168 187.468L190.167 187.469L190.263 187.812ZM189.296 183.32L189.225 183.67L189.226 183.67L189.296 183.32ZM181.704 182.012L181.638 182.363L181.65 182.365L181.704 182.012ZM169.819 178.173L169.614 178.466L169.615 178.466L169.819 178.173ZM170.586 161.88L170.835 162.136L170.836 162.135L170.586 161.88ZM200.869 162.136L200.612 162.384L200.614 162.386L200.869 162.136ZM204.822 171.718V172.075H205.179V171.718H204.822ZM191.827 171.718H191.47V172.075H191.827V171.718ZM181.05 167.368L180.941 167.028L180.939 167.029L181.05 167.368ZM182.131 172.031L182.066 172.382L182.069 172.383L182.131 172.031ZM189.751 173.339L189.815 172.988L189.811 172.987L189.751 173.339ZM201.836 176.979L201.639 177.277L201.643 177.279L201.836 176.979ZM201.097 193.158L200.842 192.908L201.097 193.158ZM185.998 197.025V196.668C182.139 196.668 178.941 196.345 176.396 195.705C173.849 195.065 171.982 194.114 170.755 192.878L170.501 193.13L170.248 193.381C171.599 194.742 173.603 195.739 176.222 196.398C178.843 197.056 182.104 197.382 185.998 197.382V197.025ZM170.501 193.13L170.756 192.88C168.268 190.336 167.02 187.149 167.02 183.291H166.663H166.305C166.305 187.32 167.616 190.691 170.246 193.379L170.501 193.13ZM166.663 183.291V183.648H179.629V183.291V182.934H166.663V183.291ZM179.629 183.291H179.272C179.272 185.668 179.892 187.313 181.34 187.915L181.477 187.585L181.614 187.255C180.598 186.833 179.986 185.615 179.986 183.291H179.629ZM181.477 187.585L181.346 187.917C182.648 188.43 184.163 188.681 185.884 188.681V188.324V187.967C184.231 187.967 182.808 187.726 181.608 187.253L181.477 187.585ZM185.884 188.324V188.681C187.612 188.681 189.106 188.509 190.36 188.156L190.263 187.812L190.167 187.469C188.994 187.799 187.568 187.967 185.884 187.967V188.324ZM190.263 187.812L190.359 188.156C191.018 187.974 191.55 187.685 191.918 187.266C192.291 186.841 192.469 186.313 192.469 185.708H192.111H191.754C191.754 186.165 191.624 186.518 191.381 186.795C191.133 187.077 190.741 187.31 190.168 187.468L190.263 187.812ZM192.111 185.708H192.469C192.469 184.995 192.187 184.394 191.639 183.929C191.105 183.476 190.335 183.165 189.367 182.97L189.296 183.32L189.226 183.67C190.135 183.853 190.772 184.13 191.177 184.473C191.567 184.805 191.754 185.208 191.754 185.708H192.111ZM189.296 183.32L189.368 182.97C187.502 182.589 184.965 182.152 181.759 181.659L181.704 182.012L181.65 182.365C184.851 182.857 187.376 183.292 189.225 183.67L189.296 183.32ZM181.704 182.012L181.771 181.661C175.952 180.562 172.058 179.292 170.022 177.88L169.819 178.173L169.615 178.466C171.788 179.973 175.817 181.263 181.638 182.363L181.704 182.012ZM169.819 178.173L170.023 177.881C168.063 176.509 167.048 174.222 167.048 170.922H166.691H166.334C166.334 174.371 167.404 176.918 169.614 178.466L169.819 178.173ZM166.691 170.922H167.048C167.048 167.515 168.305 164.593 170.835 162.136L170.586 161.88L170.338 161.624C167.674 164.21 166.334 167.315 166.334 170.922H166.691ZM170.586 161.88L170.836 162.135C172.074 160.925 173.921 159.995 176.41 159.369C178.898 158.743 182.006 158.427 185.742 158.427V158.07V157.713C181.971 157.713 178.8 158.032 176.236 158.676C173.674 159.32 171.696 160.295 170.337 161.625L170.586 161.88ZM185.742 158.07V158.427C193.197 158.427 198.105 159.786 200.612 162.384L200.869 162.136L201.126 161.888C198.401 159.064 193.224 157.713 185.742 157.713V158.07ZM200.869 162.136L200.614 162.386C203.185 165.012 204.465 168.117 204.465 171.718H204.822H205.179C205.179 167.927 203.823 164.643 201.124 161.886L200.869 162.136ZM204.822 171.718V171.361H191.827V171.718V172.075H204.822V171.718ZM191.827 171.718H192.184C192.184 169.369 191.529 167.753 190.021 167.177L189.894 167.51L189.766 167.844C190.836 168.253 191.47 169.442 191.47 171.718H191.827ZM189.894 167.51L190.021 167.177C188.686 166.666 187.211 166.414 185.6 166.414V166.771V167.128C187.136 167.128 188.523 167.368 189.766 167.844L189.894 167.51ZM185.6 166.771V166.414C183.775 166.414 182.219 166.615 180.941 167.028L181.05 167.368L181.16 167.708C182.346 167.325 183.823 167.128 185.6 167.128V166.771ZM181.05 167.368L180.939 167.029C180.295 167.24 179.777 167.538 179.419 167.941C179.054 168.352 178.874 168.85 178.874 169.415H179.231H179.588C179.588 169.014 179.711 168.687 179.952 168.416C180.2 168.137 180.592 167.894 181.162 167.707L181.05 167.368ZM179.231 169.415H178.874C178.874 170.201 179.153 170.864 179.717 171.372C180.268 171.869 181.065 172.196 182.066 172.382L182.131 172.031L182.196 171.68C181.264 171.506 180.61 171.217 180.195 170.842C179.792 170.478 179.588 170.013 179.588 169.415H179.231ZM182.131 172.031L182.069 172.383C184.004 172.724 186.545 173.16 189.692 173.691L189.751 173.339L189.811 172.987C186.664 172.456 184.125 172.021 182.193 171.68L182.131 172.031ZM189.751 173.339L189.688 173.69C192.703 174.239 195.208 174.814 197.205 175.416C199.207 176.018 200.677 176.642 201.639 177.277L201.836 176.979L202.033 176.681C200.985 175.989 199.437 175.342 197.411 174.732C195.38 174.12 192.847 173.539 189.815 172.988L189.751 173.339ZM201.836 176.979L201.643 177.279C203.534 178.499 204.522 180.654 204.522 183.86H204.879H205.236C205.236 180.507 204.195 178.075 202.03 176.679L201.836 176.979ZM204.879 183.86H204.522C204.522 187.388 203.297 190.397 200.842 192.908L201.097 193.158L201.352 193.408C203.939 190.763 205.236 187.574 205.236 183.86H204.879ZM201.097 193.158L200.842 192.908C199.643 194.135 197.822 195.078 195.343 195.713C192.865 196.347 189.753 196.668 185.998 196.668V197.025V197.382C189.788 197.382 192.965 197.059 195.52 196.404C198.073 195.75 200.03 194.76 201.352 193.408L201.097 193.158ZM209.218 196.826H208.861V197.183H209.218V196.826ZM209.218 158.439V158.082H208.861V158.439H209.218ZM230.089 158.439L230.441 158.377L230.388 158.082H230.089V158.439ZM235.236 187.443L234.884 187.505L234.936 187.8H235.236V187.443ZM235.321 187.443V187.8H235.62L235.672 187.505L235.321 187.443ZM240.468 158.439V158.082H240.168L240.116 158.377L240.468 158.439ZM261.339 158.439H261.696V158.082H261.339V158.439ZM261.339 196.826V197.183H261.696V196.826H261.339ZM248.515 196.826H248.158V197.183H248.515V196.826ZM248.515 167.34H248.872V166.982H248.515V167.34ZM248.401 167.34V166.982H248.106L248.05 167.272L248.401 167.34ZM242.771 196.684V197.041H243.066L243.121 196.751L242.771 196.684ZM227.786 196.684L227.435 196.751L227.491 197.041H227.786V196.684ZM222.156 167.34L222.506 167.272L222.451 166.982H222.156V167.34ZM222.042 167.34V166.982H221.685V167.34H222.042ZM222.042 196.826V197.183H222.399V196.826H222.042ZM209.218 196.826H209.575V158.439H209.218H208.861V196.826H209.218ZM209.218 158.439V158.797H230.089V158.439V158.082H209.218V158.439ZM230.089 158.439L229.737 158.502L234.884 187.505L235.236 187.443L235.587 187.38L230.441 158.377L230.089 158.439ZM235.236 187.443V187.8H235.321V187.443V187.086H235.236V187.443ZM235.321 187.443L235.672 187.505L240.819 158.502L240.468 158.439L240.116 158.377L234.969 187.38L235.321 187.443ZM240.468 158.439V158.797H261.339V158.439V158.082H240.468V158.439ZM261.339 158.439H260.982V196.826H261.339H261.696V158.439H261.339ZM261.339 196.826V196.469H248.515V196.826V197.183H261.339V196.826ZM248.515 196.826H248.872V167.34H248.515H248.158V196.826H248.515ZM248.515 167.34V166.982H248.401V167.34V167.697H248.515V167.34ZM248.401 167.34L248.05 167.272L242.42 196.617L242.771 196.684L243.121 196.751L248.751 167.407L248.401 167.34ZM242.771 196.684V196.327H227.786V196.684V197.041H242.771V196.684ZM227.786 196.684L228.136 196.617L222.506 167.272L222.156 167.34L221.805 167.407L227.435 196.751L227.786 196.684ZM222.156 167.34V166.982H222.042V167.34V167.697H222.156V167.34ZM222.042 167.34H221.685V196.826H222.042H222.399V167.34H222.042ZM222.042 196.826V196.469H209.218V196.826V197.183H222.042V196.826ZM264.851 196.826L264.509 196.722L264.369 197.183H264.851V196.826ZM276.566 158.411V158.054H276.301L276.224 158.307L276.566 158.411ZM294.849 158.411L295.191 158.307L295.113 158.054H294.849V158.411ZM306.593 196.826V197.183H307.075L306.934 196.722L306.593 196.826ZM293.228 196.826L292.881 196.908L292.946 197.183H293.228V196.826ZM291.295 188.609L291.642 188.527L291.578 188.252H291.295V188.609ZM280.177 188.609V188.252H279.895L279.83 188.526L280.177 188.609ZM278.215 196.826V197.183H278.497L278.562 196.909L278.215 196.826ZM282.253 180.135L281.906 180.051L281.799 180.492H282.253V180.135ZM289.248 180.135V180.492H289.702L289.595 180.051L289.248 180.135ZM285.807 165.946L286.154 165.862L286.088 165.589H285.807V165.946ZM285.693 165.946V165.589H285.412L285.346 165.862L285.693 165.946ZM264.851 196.826L265.192 196.93L276.907 158.515L276.566 158.411L276.224 158.307L264.509 196.722L264.851 196.826ZM276.566 158.411V158.768H294.849V158.411V158.054H276.566V158.411ZM294.849 158.411L294.508 158.515L306.251 196.931L306.593 196.826L306.934 196.722L295.191 158.307L294.849 158.411ZM306.593 196.826V196.469H293.228V196.826V197.183H306.593V196.826ZM293.228 196.826L293.576 196.744L291.642 188.527L291.295 188.609L290.947 188.69L292.881 196.908L293.228 196.826ZM291.295 188.609V188.252H280.177V188.609V188.966H291.295V188.609ZM280.177 188.609L279.83 188.526L277.868 196.743L278.215 196.826L278.562 196.909L280.524 188.691L280.177 188.609ZM278.215 196.826V196.469H264.851V196.826V197.183H278.215V196.826ZM282.253 180.135V180.492H289.248V180.135V179.778H282.253V180.135ZM289.248 180.135L289.595 180.051L286.154 165.862L285.807 165.946L285.46 166.03L288.901 180.219L289.248 180.135ZM285.807 165.946V165.589H285.693V165.946V166.303H285.807V165.946ZM285.693 165.946L285.346 165.862L281.906 180.051L282.253 180.135L282.6 180.219L286.04 166.03L285.693 165.946ZM309.85 196.826H309.493V197.183H309.85V196.826ZM309.85 158.439V158.082H309.493V158.439H309.85ZM344.17 162.079L344.471 161.887L344.471 161.887L344.17 162.079ZM344.028 179.14L344.316 179.351L344.316 179.351L344.028 179.14ZM322.873 182.524V182.167H322.516V182.524H322.873ZM322.873 196.826V197.183H323.23V196.826H322.873ZM333.394 196.826L333.072 196.982L333.17 197.183H333.394V196.826ZM324.806 179.14L324.795 178.783L324.245 178.801L324.485 179.296L324.806 179.14ZM337.659 178.713L337.973 178.543L337.868 178.349L337.647 178.356L337.659 178.713ZM347.469 196.826V197.183H348.068L347.783 196.656L347.469 196.826ZM322.873 174.647H322.516V175.004H322.873V174.647ZM332.825 173.766L333.112 173.978L333.115 173.974L332.825 173.766ZM332.796 168.107L332.506 168.316L332.511 168.321L332.796 168.107ZM322.873 167.197V166.84H322.516V167.197H322.873ZM309.85 196.826H310.207V158.439H309.85H309.493V196.826H309.85ZM309.85 158.439V158.797H334.758V158.439V158.082H309.85V158.439ZM334.758 158.439V158.797C339.437 158.797 342.415 160 343.87 162.272L344.17 162.079L344.471 161.887C342.817 159.305 339.521 158.082 334.758 158.082V158.439ZM344.17 162.079L343.87 162.272C345.381 164.631 346.145 167.462 346.145 170.78H346.502H346.859C346.859 167.349 346.068 164.38 344.471 161.887L344.17 162.079ZM346.502 170.78H346.145C346.145 174.036 345.337 176.745 343.74 178.929L344.028 179.14L344.316 179.351C346.018 177.023 346.859 174.159 346.859 170.78H346.502ZM344.028 179.14L343.74 178.929C342.195 181.042 339.078 182.167 334.218 182.167V182.524V182.881C339.14 182.881 342.563 181.749 344.316 179.351L344.028 179.14ZM334.218 182.524V182.167H322.873V182.524V182.881H334.218V182.524ZM322.873 182.524H322.516V196.826H322.873H323.23V182.524H322.873ZM322.873 196.826V196.469H309.85V196.826V197.183H322.873V196.826ZM333.394 196.826L333.715 196.67L325.128 178.984L324.806 179.14L324.485 179.296L333.072 196.982L333.394 196.826ZM324.806 179.14L324.818 179.497L337.671 179.07L337.659 178.713L337.647 178.356L324.795 178.783L324.806 179.14ZM337.659 178.713L337.345 178.883L347.155 196.996L347.469 196.826L347.783 196.656L337.973 178.543L337.659 178.713ZM347.469 196.826V196.469H333.394V196.826V197.183H347.469V196.826ZM322.873 174.647V175.004H330.408V174.647V174.29H322.873V174.647ZM330.408 174.647V175.004C331.627 175.004 332.576 174.701 333.112 173.978L332.825 173.766L332.538 173.553C332.202 174.006 331.539 174.29 330.408 174.29V174.647ZM332.825 173.766L333.115 173.974C333.616 173.277 333.836 172.249 333.836 170.951H333.479H333.122C333.122 172.193 332.906 173.041 332.535 173.557L332.825 173.766ZM333.479 170.951H333.836C333.836 169.633 333.606 168.592 333.082 167.893L332.796 168.107L332.511 168.321C332.897 168.836 333.122 169.69 333.122 170.951H333.479ZM332.796 168.107L333.086 167.899C332.553 167.156 331.614 166.84 330.408 166.84V167.197V167.554C331.514 167.554 332.168 167.845 332.507 168.316L332.796 168.107ZM330.408 167.197V166.84H322.873V167.197V167.554H330.408V167.197ZM322.873 167.197H322.516V174.647H322.873H323.23V167.197H322.873ZM360.728 196.826H360.371V197.183H360.728V196.826ZM360.728 167.197H361.085V166.84H360.728V167.197ZM349.581 167.197H349.224V167.554H349.581V167.197ZM349.581 158.439V158.082H349.224V158.439H349.581ZM384.84 158.439H385.197V158.082H384.84V158.439ZM384.84 167.197V167.554H385.197V167.197H384.84ZM373.722 167.197V166.84H373.365V167.197H373.722ZM373.722 196.826V197.183H374.079V196.826H373.722ZM360.728 196.826H361.085V167.197H360.728H360.371V196.826H360.728ZM360.728 167.197V166.84H349.581V167.197V167.554H360.728V167.197ZM349.581 167.197H349.938V158.439H349.581H349.224V167.197H349.581ZM349.581 158.439V158.797H384.84V158.439V158.082H349.581V158.439ZM384.84 158.439H384.483V167.197H384.84H385.197V158.439H384.84ZM384.84 167.197V166.84H373.722V167.197V167.554H384.84V167.197ZM373.722 167.197H373.365V196.826H373.722H374.079V167.197H373.722ZM373.722 196.826V196.469H360.728V196.826V197.183H373.722V196.826Z" fill="#EEEDF2" fill-opacity="0.75" mask="url(#path-78-outside-1_1317_2004)"/>
<mask id="path-80-outside-2_1317_2004" maskUnits="userSpaceOnUse" x="167.891" y="200.528" width="214" height="40" fill="black">
<rect fill="white" x="167.891" y="200.528" width="214" height="40"/>
<path d="M179.552 239.528L168.377 201.142H181.542L188.338 230.458H188.423L195.162 201.142H208.328L197.181 239.528H179.552ZM205.314 239.528L217.029 201.113H235.312L247.056 239.528H233.692L231.758 231.311H220.64L218.678 239.528H205.314ZM222.716 222.837H229.711L226.27 208.648H226.157L222.716 222.837ZM250.313 239.528V201.142H275.222C279.942 201.142 283.079 202.355 284.634 204.781C286.188 207.208 286.965 210.108 286.965 213.482C286.965 216.8 286.141 219.586 284.491 221.842C282.842 224.098 279.572 225.226 274.682 225.226H263.336V239.528H250.313ZM273.857 239.528L265.27 221.842L278.122 221.415L287.932 239.528H273.857ZM263.336 217.349H270.871C272.047 217.349 272.852 217.056 273.288 216.468C273.724 215.861 273.942 214.923 273.942 213.653C273.942 212.364 273.715 211.416 273.26 210.809C272.824 210.203 272.028 209.899 270.871 209.899H263.336V217.349ZM290.966 239.528V201.142H311.552L322.13 229.718H322.215L322.329 201.142H335.267V239.528H314.879L304.017 210.269H303.875V239.528H290.966ZM338.823 239.528L350.538 201.113H368.822L380.565 239.528H367.201L365.267 231.311H354.149L352.188 239.528H338.823ZM356.225 222.837H363.22L359.78 208.648H359.666L356.225 222.837Z"/>
</mask>
<path d="M179.552 239.528L168.377 201.142H181.542L188.338 230.458H188.423L195.162 201.142H208.328L197.181 239.528H179.552ZM205.314 239.528L217.029 201.113H235.312L247.056 239.528H233.692L231.758 231.311H220.64L218.678 239.528H205.314ZM222.716 222.837H229.711L226.27 208.648H226.157L222.716 222.837ZM250.313 239.528V201.142H275.222C279.942 201.142 283.079 202.355 284.634 204.781C286.188 207.208 286.965 210.108 286.965 213.482C286.965 216.8 286.141 219.586 284.491 221.842C282.842 224.098 279.572 225.226 274.682 225.226H263.336V239.528H250.313ZM273.857 239.528L265.27 221.842L278.122 221.415L287.932 239.528H273.857ZM263.336 217.349H270.871C272.047 217.349 272.852 217.056 273.288 216.468C273.724 215.861 273.942 214.923 273.942 213.653C273.942 212.364 273.715 211.416 273.26 210.809C272.824 210.203 272.028 209.899 270.871 209.899H263.336V217.349ZM290.966 239.528V201.142H311.552L322.13 229.718H322.215L322.329 201.142H335.267V239.528H314.879L304.017 210.269H303.875V239.528H290.966ZM338.823 239.528L350.538 201.113H368.822L380.565 239.528H367.201L365.267 231.311H354.149L352.188 239.528H338.823ZM356.225 222.837H363.22L359.78 208.648H359.666L356.225 222.837Z" fill="#EEEDF2"/>
<path d="M179.552 239.528L179.209 239.628L179.284 239.885H179.552V239.528ZM168.377 201.142V200.785H167.901L168.034 201.241L168.377 201.142ZM181.542 201.142L181.89 201.061L181.826 200.785H181.542V201.142ZM188.338 230.458L187.99 230.538L188.054 230.815H188.338V230.458ZM188.423 230.458V230.815H188.708L188.771 230.538L188.423 230.458ZM195.162 201.142V200.785H194.878L194.814 201.062L195.162 201.142ZM208.328 201.142L208.67 201.241L208.803 200.785H208.328V201.142ZM197.181 239.528V239.885H197.449L197.524 239.628L197.181 239.528ZM179.552 239.528L179.895 239.429L168.72 201.042L168.377 201.142L168.034 201.241L179.209 239.628L179.552 239.528ZM168.377 201.142V201.499H181.542V201.142V200.785H168.377V201.142ZM181.542 201.142L181.194 201.222L187.99 230.538L188.338 230.458L188.686 230.377L181.89 201.061L181.542 201.142ZM188.338 230.458V230.815H188.423V230.458V230.101H188.338V230.458ZM188.423 230.458L188.771 230.538L195.51 201.222L195.162 201.142L194.814 201.062L188.075 230.378L188.423 230.458ZM195.162 201.142V201.499H208.328V201.142V200.785H195.162V201.142ZM208.328 201.142L207.985 201.042L196.838 239.429L197.181 239.528L197.524 239.628L208.67 201.241L208.328 201.142ZM197.181 239.528V239.171H179.552V239.528V239.885H197.181V239.528ZM205.314 239.528L204.972 239.424L204.832 239.885H205.314V239.528ZM217.029 201.113V200.756H216.765L216.688 201.009L217.029 201.113ZM235.312 201.113L235.654 201.009L235.577 200.756H235.312V201.113ZM247.056 239.528V239.885H247.538L247.397 239.424L247.056 239.528ZM233.692 239.528L233.344 239.61L233.409 239.885H233.692V239.528ZM231.758 231.311L232.106 231.229L232.041 230.954H231.758V231.311ZM220.64 231.311V230.954H220.358L220.293 231.228L220.64 231.311ZM218.678 239.528V239.885H218.96L219.026 239.611L218.678 239.528ZM222.716 222.837L222.369 222.753L222.262 223.194H222.716V222.837ZM229.711 222.837V223.194H230.165L230.058 222.753L229.711 222.837ZM226.27 208.648L226.617 208.564L226.551 208.291H226.27V208.648ZM226.157 208.648V208.291H225.876L225.81 208.564L226.157 208.648ZM205.314 239.528L205.655 239.632L217.371 201.217L217.029 201.113L216.688 201.009L204.972 239.424L205.314 239.528ZM217.029 201.113V201.47H235.312V201.113V200.756H217.029V201.113ZM235.312 201.113L234.971 201.218L246.715 239.633L247.056 239.528L247.397 239.424L235.654 201.009L235.312 201.113ZM247.056 239.528V239.171H233.692V239.528V239.885H247.056V239.528ZM233.692 239.528L234.039 239.447L232.106 231.229L231.758 231.311L231.411 231.392L233.344 239.61L233.692 239.528ZM231.758 231.311V230.954H220.64V231.311V231.668H231.758V231.311ZM220.64 231.311L220.293 231.228L218.331 239.445L218.678 239.528L219.026 239.611L220.988 231.394L220.64 231.311ZM218.678 239.528V239.171H205.314V239.528V239.885H218.678V239.528ZM222.716 222.837V223.194H229.711V222.837V222.48H222.716V222.837ZM229.711 222.837L230.058 222.753L226.617 208.564L226.27 208.648L225.923 208.732L229.364 222.921L229.711 222.837ZM226.27 208.648V208.291H226.157V208.648V209.005H226.27V208.648ZM226.157 208.648L225.81 208.564L222.369 222.753L222.716 222.837L223.063 222.921L226.504 208.732L226.157 208.648ZM250.313 239.528H249.956V239.885H250.313V239.528ZM250.313 201.142V200.785H249.956V201.142H250.313ZM284.634 204.781L284.934 204.589L284.934 204.589L284.634 204.781ZM284.491 221.842L284.78 222.053L284.78 222.053L284.491 221.842ZM263.336 225.226V224.869H262.979V225.226H263.336ZM263.336 239.528V239.885H263.693V239.528H263.336ZM273.857 239.528L273.536 239.684L273.633 239.885H273.857V239.528ZM265.27 221.842L265.258 221.485L264.708 221.503L264.948 221.998L265.27 221.842ZM278.122 221.415L278.436 221.245L278.331 221.051L278.11 221.059L278.122 221.415ZM287.932 239.528V239.885H288.531L288.246 239.358L287.932 239.528ZM263.336 217.349H262.979V217.706H263.336V217.349ZM273.288 216.468L273.575 216.681L273.578 216.676L273.288 216.468ZM273.26 210.809L272.97 211.018L272.974 211.024L273.26 210.809ZM263.336 209.899V209.542H262.979V209.899H263.336ZM250.313 239.528H250.67V201.142H250.313H249.956V239.528H250.313ZM250.313 201.142V201.499H275.222V201.142V200.785H250.313V201.142ZM275.222 201.142V201.499C279.9 201.499 282.878 202.703 284.333 204.974L284.634 204.781L284.934 204.589C283.28 202.007 279.984 200.785 275.222 200.785V201.142ZM284.634 204.781L284.333 204.974C285.845 207.334 286.608 210.164 286.608 213.482H286.965H287.322C287.322 210.052 286.531 207.082 284.934 204.589L284.634 204.781ZM286.965 213.482H286.608C286.608 216.738 285.8 219.447 284.203 221.631L284.491 221.842L284.78 222.053C286.481 219.725 287.322 216.861 287.322 213.482H286.965ZM284.491 221.842L284.203 221.631C282.659 223.744 279.542 224.869 274.682 224.869V225.226V225.583C279.603 225.583 283.026 224.452 284.78 222.053L284.491 221.842ZM274.682 225.226V224.869H263.336V225.226V225.583H274.682V225.226ZM263.336 225.226H262.979V239.528H263.336H263.693V225.226H263.336ZM263.336 239.528V239.171H250.313V239.528V239.885H263.336V239.528ZM273.857 239.528L274.178 239.372L265.591 221.686L265.27 221.842L264.948 221.998L273.536 239.684L273.857 239.528ZM265.27 221.842L265.281 222.199L278.134 221.772L278.122 221.415L278.11 221.059L265.258 221.485L265.27 221.842ZM278.122 221.415L277.808 221.586L287.618 239.698L287.932 239.528L288.246 239.358L278.436 221.245L278.122 221.415ZM287.932 239.528V239.171H273.857V239.528V239.885H287.932V239.528ZM263.336 217.349V217.706H270.871V217.349V216.992H263.336V217.349ZM270.871 217.349V217.706C272.09 217.706 273.039 217.403 273.575 216.681L273.288 216.468L273.001 216.255C272.665 216.708 272.003 216.992 270.871 216.992V217.349ZM273.288 216.468L273.578 216.676C274.079 215.979 274.299 214.951 274.299 213.653H273.942H273.585C273.585 214.895 273.369 215.743 272.998 216.259L273.288 216.468ZM273.942 213.653H274.299C274.299 212.335 274.069 211.294 273.545 210.595L273.26 210.809L272.974 211.024C273.36 211.538 273.585 212.392 273.585 213.653H273.942ZM273.26 210.809L273.55 210.601C273.016 209.859 272.078 209.542 270.871 209.542V209.899V210.257C271.978 210.257 272.631 210.547 272.97 211.018L273.26 210.809ZM270.871 209.899V209.542H263.336V209.899V210.257H270.871V209.899ZM263.336 209.899H262.979V217.349H263.336H263.693V209.899H263.336ZM290.966 239.528H290.609V239.885H290.966V239.528ZM290.966 201.142V200.785H290.609V201.142H290.966ZM311.552 201.142L311.887 201.018L311.801 200.785H311.552V201.142ZM322.13 229.718L321.795 229.842L321.881 230.075H322.13V229.718ZM322.215 229.718V230.075H322.571L322.572 229.72L322.215 229.718ZM322.329 201.142V200.785H321.973L321.972 201.14L322.329 201.142ZM335.267 201.142H335.624V200.785H335.267V201.142ZM335.267 239.528V239.885H335.624V239.528H335.267ZM314.879 239.528L314.544 239.653L314.631 239.885H314.879V239.528ZM304.017 210.269L304.352 210.145L304.265 209.912H304.017V210.269ZM303.875 210.269V209.912H303.518V210.269H303.875ZM303.875 239.528V239.885H304.232V239.528H303.875ZM290.966 239.528H291.323V201.142H290.966H290.609V239.528H290.966ZM290.966 201.142V201.499H311.552V201.142V200.785H290.966V201.142ZM311.552 201.142L311.217 201.266L321.795 229.842L322.13 229.718L322.465 229.594L311.887 201.018L311.552 201.142ZM322.13 229.718V230.075H322.215V229.718V229.361H322.13V229.718ZM322.215 229.718L322.572 229.72L322.686 201.143L322.329 201.142L321.972 201.14L321.858 229.717L322.215 229.718ZM322.329 201.142V201.499H335.267V201.142V200.785H322.329V201.142ZM335.267 201.142H334.91V239.528H335.267H335.624V201.142H335.267ZM335.267 239.528V239.171H314.879V239.528V239.885H335.267V239.528ZM314.879 239.528L315.214 239.404L304.352 210.145L304.017 210.269L303.682 210.393L314.544 239.653L314.879 239.528ZM304.017 210.269V209.912H303.875V210.269V210.626H304.017V210.269ZM303.875 210.269H303.518V239.528H303.875H304.232V210.269H303.875ZM303.875 239.528V239.171H290.966V239.528V239.885H303.875V239.528ZM338.823 239.528L338.482 239.424L338.341 239.885H338.823V239.528ZM350.538 201.113V200.756H350.274L350.197 201.009L350.538 201.113ZM368.822 201.113L369.163 201.009L369.086 200.756H368.822V201.113ZM380.565 239.528V239.885H381.048L380.907 239.424L380.565 239.528ZM367.201 239.528L366.853 239.61L366.918 239.885H367.201V239.528ZM365.267 231.311L365.615 231.229L365.55 230.954H365.267V231.311ZM354.149 231.311V230.954H353.868L353.802 231.228L354.149 231.311ZM352.188 239.528V239.885H352.469L352.535 239.611L352.188 239.528ZM356.225 222.837L355.878 222.753L355.771 223.194H356.225V222.837ZM363.22 222.837V223.194H363.674L363.567 222.753L363.22 222.837ZM359.78 208.648L360.127 208.564L360.06 208.291H359.78V208.648ZM359.666 208.648V208.291H359.385L359.319 208.564L359.666 208.648ZM338.823 239.528L339.165 239.632L350.88 201.217L350.538 201.113L350.197 201.009L338.482 239.424L338.823 239.528ZM350.538 201.113V201.47H368.822V201.113V200.756H350.538V201.113ZM368.822 201.113L368.48 201.218L380.224 239.633L380.565 239.528L380.907 239.424L369.163 201.009L368.822 201.113ZM380.565 239.528V239.171H367.201V239.528V239.885H380.565V239.528ZM367.201 239.528L367.549 239.447L365.615 231.229L365.267 231.311L364.92 231.392L366.853 239.61L367.201 239.528ZM365.267 231.311V230.954H354.149V231.311V231.668H365.267V231.311ZM354.149 231.311L353.802 231.228L351.84 239.445L352.188 239.528L352.535 239.611L354.497 231.394L354.149 231.311ZM352.188 239.528V239.171H338.823V239.528V239.885H352.188V239.528ZM356.225 222.837V223.194H363.22V222.837V222.48H356.225V222.837ZM363.22 222.837L363.567 222.753L360.127 208.564L359.78 208.648L359.433 208.732L362.873 222.921L363.22 222.837ZM359.78 208.648V208.291H359.666V208.648V209.005H359.78V208.648ZM359.666 208.648L359.319 208.564L355.878 222.753L356.225 222.837L356.572 222.921L360.013 208.732L359.666 208.648Z" fill="#EEEDF2" fill-opacity="0.75" mask="url(#path-80-outside-2_1317_2004)"/>
<defs>
<linearGradient id="paint0_linear_1317_2004" x1="85.8522" y1="267.369" x2="454.871" y2="97.9414" gradientUnits="userSpaceOnUse">
<stop stop-color="#283BAF"/>
<stop offset="0.447115" stop-color="#2133A4"/>
<stop offset="1" stop-color="#211B52"/>
</linearGradient>
<linearGradient id="paint1_linear_1317_2004" x1="368.23" y1="92.1665" x2="-69.4579" y2="110.136" gradientUnits="userSpaceOnUse">
<stop stop-color="#283BAF"/>
<stop offset="0.475962" stop-color="#263987"/>
<stop offset="1" stop-color="#211B52"/>
</linearGradient>
<linearGradient id="paint2_linear_1317_2004" x1="211.933" y1="304.896" x2="211.933" y2="63.0084" gradientUnits="userSpaceOnUse">
<stop stop-color="#283BAF"/>
<stop offset="0.524038" stop-color="#2A3B9B"/>
<stop offset="0.745192" stop-color="#262B87"/>
<stop offset="1" stop-color="#211B52"/>
</linearGradient>
</defs>
</svg>
