<svg width="592" height="410" viewBox="0 0 592 410" fill="none" xmlns="http://www.w3.org/2000/svg">
<g clip-path="url(#clip0_1579_2088)">
<path d="M592.278 266.227C571.118 348.041 384.213 426.665 296.04 409.666C104.435 402.228 12.7432 196.101 93.8481 132.35C132.641 97.287 276.058 100.474 428.878 149.351C512.341 170.601 600.506 214.164 592.278 266.227Z" fill="url(#paint0_linear_1579_2088)"/>
<path d="M546.451 140.849C494.715 281.101 -130.672 -51.4654 130.298 338.476C26.8501 287.476 -3.71245 221.6 2.16576 172.724C-2.53691 124.911 83.2769 6.97271 260.783 1.66016C378.943 1.66016 546.451 93.9044 546.451 140.849Z" fill="url(#paint1_linear_1579_2088)"/>
<path d="M502.254 174.85C357.219 206.07 423.899 285.369 344.365 326.995C229.743 407.125 86.5161 364.458 58.9809 225.011C28.5689 70.9949 209.859 107.417 225.067 107.418C308.107 120.946 389.968 130.102 502.254 174.85Z" fill="url(#paint2_linear_1579_2088)"/>
<path d="M175.146 79.7604C188.609 73.8756 201.691 68.2973 215.611 62.2207C220.759 59.8106 225.002 57.7562 229.429 56.0866C230.541 55.6673 232.241 56.4824 233.397 57.0775C230.412 72.8309 232.241 88.0177 235.441 103.716C238.63 115.432 241.914 126.566 245.251 138.246C249.57 147.625 253.835 156.457 258.169 165.769C260.031 169.296 261.823 172.342 263.966 175.985C256.897 176.159 251.043 176.304 244.754 176.231C235.435 176.089 226.552 176.163 217.143 176.159C212.684 176.208 208.75 176.337 204.357 176.231C195.275 176.757 186.652 177.518 177.571 178.155C174.162 175.414 170.781 173.07 168.373 170.107C165.599 166.694 163.684 162.733 161.33 158.497C157.905 148.953 154.387 139.968 151.257 130.876C149.77 126.554 149.023 122.029 147.94 117.595C148.36 111.574 149.335 105.529 149.078 99.535C148.623 88.9338 158.074 87.0455 165.93 83.622C168.831 82.3576 171.817 81.2474 175.146 79.7604ZM164.994 111.657C172.25 109.972 179.507 108.286 187.888 106.522C193.189 104.485 198.841 102.952 203.711 100.294C211.381 96.1085 218.652 91.3106 225.766 86.4037C226.973 85.5719 226.55 82.8946 226.879 81.07C225.102 81.2807 223.007 81.0247 221.597 81.7765C210.725 87.5738 199.986 93.5663 188.069 99.648C183.907 100.845 179.745 102.043 175.582 103.237C170.824 104.602 166.065 105.962 160.186 107.527C158.692 108.056 156.67 108.223 155.816 109.19C154.142 111.084 151.836 113.617 152.188 115.525C152.536 117.407 155.783 118.907 157.873 120.454C159.589 121.724 161.474 122.816 163.393 124.058C169.953 119.722 169.961 119.554 164.994 111.657Z" fill="#EEEDF2"/>
<path d="M136.299 94.5734C138.081 94.3834 139.864 94.1935 141.795 93.9876C141.826 102.123 141.855 109.932 141.835 118.671C142.119 123.092 142.452 126.583 142.292 130.11C139.184 128.326 136.664 126.384 133.912 124.744C132.706 124.025 131.025 123.923 129.561 123.541C129.774 124.966 129.571 126.592 130.296 127.769C131.462 129.663 133.24 131.261 134.257 133.033C124.824 130.985 122.148 133.317 123.537 141.571C118.01 141.357 113.011 141.096 107.357 140.801C107.697 143.287 108.317 144.251 107.929 145.959C102.803 147.337 97.858 149.078 92.6791 150.352C84.2529 152.049 76.5072 153.814 68.6745 155.173C66.5063 155.549 64.0795 154.716 61.8558 153.899C60.3283 143.771 60.3296 143.776 71.0156 141.454C72.3543 141.163 73.6703 140.788 75.5469 140.562C87.4221 138.319 98.784 136.092 110.034 133.479C111.767 133.076 112.985 130.897 114.441 129.539C112.322 128.806 109.982 127.138 108.12 127.493C96.984 129.615 85.9581 132.202 74.2728 134.641C69.9761 135.242 66.302 135.835 61.6083 136.593C67.1068 119.116 78.7814 108.734 97.7972 104.032C111.068 100.853 123.683 97.7134 136.299 94.5734Z" fill="#EEEDF2"/>
<path d="M127.457 78.3423C131.816 80.4627 136.176 82.583 140.861 85.0261C139.428 86.9744 137.67 88.6 134.862 90.5317C121.578 93.7608 109.344 96.6838 96.7073 99.4122C95.715 92.6084 99.2545 87.6327 105.125 83.1865C112.985 81.4748 120.221 79.9086 127.457 78.3423Z" fill="#EEEDF2"/>
<path d="M184.032 55.8794C183.001 53.7251 181.246 51.1095 181.988 49.2563C184.997 41.7459 188.76 34.4654 192.271 27.1095C194.053 23.3778 196.527 22.3671 200.223 25.9652C196.483 34.825 192.603 43.3883 188.449 51.8479C187.699 53.3735 185.816 54.4726 184.032 55.8794Z" fill="#EEEDF2"/>
<path d="M224.945 37.5007C228.769 38.9022 230.125 41.2925 226.906 43.5976C219.729 48.7365 212.172 53.4604 204.229 58.4884C203.761 56.4027 202.788 53.1601 204.079 52.1335C210.543 46.9899 217.6 42.4266 224.945 37.5007Z" fill="#EEEDF2"/>
<path d="M161.306 55.9048C159.026 48.9959 157.136 42.3123 155.047 35.0832C154.456 32.7595 153.819 30.9903 153.751 29.2002C153.696 27.7427 154.322 26.2603 154.646 24.7889C156.585 25.2523 158.523 25.7157 160.698 26.5645C162.67 33.7695 164.406 40.5891 166.358 47.9521C166.575 51.8405 170.537 57.1337 161.306 55.9048Z" fill="#EEEDF2"/>
<path d="M239.722 55.5658C240.191 54.0544 240.661 52.543 241.338 50.3118C245.123 42.8393 247.935 35.3887 258.563 35.0634C261.851 36.426 265.14 37.7885 268.829 39.3013C273.65 44.6214 278.07 49.7912 282.787 55.2754C286.681 62.8606 290.276 70.1314 294.148 77.8402C294.59 79.1959 294.754 80.1137 294.754 81.7102C295.052 83.0243 295.514 83.6596 295.977 84.2949C296.507 85.1207 297.038 85.9465 297.839 87.7389C298.705 91.1519 299.3 93.5984 299.381 96.1585C294.213 97.2843 290.98 99.7725 292.486 104.059C294.01 108.396 298.336 109.295 303.168 108.035C304.04 111.264 304.912 114.493 306.007 118.737C306.251 121.089 306.272 122.424 306.003 123.966C306.075 125.263 306.437 126.353 306.983 127.881C307.445 129.22 307.722 130.121 307.999 131.022C308.038 131.969 308.077 132.917 308.018 134.526C307.745 135.472 307.66 135.775 307.664 136.097C307.615 145.444 307.566 154.79 307.61 164.611C306.46 168.602 305.606 172.274 303.881 175.6C301.401 180.379 297.751 184.37 290.863 185.563C288.303 185.169 286.252 184.683 283.851 184.024C279.887 181.13 276.273 178.409 272.236 174.925C268.502 169.293 265.192 164.423 261.814 159.076C260.839 156.817 259.931 155.036 258.893 152.998C273.958 145.382 283.073 134.646 284.981 119.354C290.201 118.087 294.82 116.136 293.754 111.277C292.747 106.688 288.709 104.314 282.664 105.766C282.163 105.44 281.872 105.254 281.504 104.617C281.093 103.176 280.716 102.237 280.191 100.826C276.365 96.0667 272.687 91.7787 268.775 87.1395C261.435 84.0696 254.33 81.3509 246.764 78.4673C244.075 78.0277 241.846 77.7532 238.94 77.3953C239.204 70.0373 239.463 62.8016 239.722 55.5658Z" fill="#EEEDF2"/>
<path d="M189.455 199.373C192.004 202.454 194.553 205.535 197.33 208.805C197.029 209.876 196.501 210.756 195.698 211.754C194.975 211.68 194.526 211.489 193.84 211.23C191.738 208.963 189.874 206.763 187.673 204.16C186.295 202.491 185.052 201.31 184.304 199.919C183.964 199.287 184.35 198.056 184.906 197.452C185.209 197.123 186.666 197.346 187.401 197.671C188.207 198.028 188.78 198.789 189.455 199.373Z" fill="#EEEDF2"/>
<path d="M197.464 190.258C200.271 192.084 203.078 193.91 206.123 195.83C207.4 196.704 208.62 197.363 209.424 198.301C210.138 199.132 210.389 200.272 210.845 201.276C209.628 201.371 208.411 201.535 207.196 201.526C206.702 201.522 206.214 201.142 205.492 200.76C202.044 198.259 198.827 195.932 195.257 193.267C195.757 192.039 196.61 191.148 197.464 190.258Z" fill="#EEEDF2"/>
<path d="M211.054 187.889C207.779 186.891 204.806 185.902 201.459 184.589C200.271 182.195 201.646 181.593 203.59 181.374C207.475 182.549 211.36 183.725 215.522 184.973C215.674 186.118 215.548 187.189 215.421 188.261C214.066 188.14 212.711 188.02 211.054 187.889Z" fill="#EEEDF2"/>
<path d="M106.914 163.927C106.04 164.188 104.91 164.233 104.344 164.754C103.059 165.937 102.052 167.354 100.932 168.676C102.806 169.314 104.873 170.775 106.521 170.461C120.28 167.84 133.952 164.85 147.677 162.083C150.072 161.601 152.597 161.64 155.739 162.122C158.914 167.458 161.411 172.11 164.275 177.446C158.096 178.166 152.496 178.818 146.335 179.362C134.713 181.594 123.652 183.935 112.591 186.277C105.222 187.915 98.34 186.206 91.0511 184.009C87.8077 182.915 85.0377 181.853 81.5324 180.377C78.171 178.214 75.5449 176.464 72.6919 174.291C69.7191 170.451 66.9733 167.034 63.3262 162.496C72.9224 160.498 81.1334 158.789 89.9984 157.084C97.0874 155.885 103.523 154.681 110.138 153.897C111.112 156.135 111.906 157.953 113.365 161.297C109.361 160.012 107.308 159.354 104.702 158.517C105.593 160.695 106.253 162.311 106.914 163.927ZM90.3727 169.544C88.9522 167.936 87.6926 166.169 85.9927 164.839C85.592 164.525 82.8264 165.543 82.6869 166.194C82.3813 167.62 82.4452 169.88 83.4562 170.594C86.2057 172.534 89.4513 174.001 92.7139 175.216C93.1298 175.371 94.8163 172.913 96.2125 171.328C93.7829 170.738 92.4874 170.424 90.3727 169.544Z" fill="#EEEDF2"/>
<path d="M109.176 207.379C106.1 204.056 103.024 200.734 99.6396 197.124C98.725 195.362 98.1187 193.888 97.459 192.283C102.946 192.055 107.909 191.849 113.985 191.544C125.702 189.437 136.305 187.43 147.53 185.439C155.153 184.769 162.154 184.083 171.497 183.169C168.321 188.831 166.987 193.715 163.574 196.827C153.289 206.208 139.865 210.827 125.44 213.827C119.768 211.514 114.472 209.446 109.176 207.379Z" fill="#EEEDF2"/>
<path d="M54.8932 231.386C57.2812 227.682 59.8351 224.007 63.0305 220.834C65.8478 218.036 69.3816 215.798 73.0741 213.265C74.1236 215.132 75.8963 218.005 75.0747 218.803C70.3185 223.419 65.0387 227.634 59.6954 231.741C58.8893 232.361 56.8219 231.701 54.8932 231.386Z" fill="#EEEDF2"/>
<path d="M49.9796 129.062C52.285 128.757 54.0817 128.667 54.4183 128.65C54.9639 138.887 55.4933 148.821 56.4461 159.639C60.0284 165.401 63.1872 170.28 66.5241 175.467C67.4859 176.323 68.2696 176.871 69.2785 177.797C67.7347 179.374 65.9654 180.573 64.1962 181.771C60.8515 181.968 57.5068 182.164 53.6057 182.381C50.5432 181.268 48.0371 180.135 45.1399 178.924C41.0269 175.74 37.3052 172.634 33.1372 169.404C31.3002 164.88 29.9095 160.48 28.574 155.582C30.5212 143.323 35.7351 133.638 49.9796 129.062Z" fill="#EEEDF2"/>
<path d="M91.7479 223.771C89.4291 233.588 85.6765 242.672 76.6289 249.652C75.6436 247.748 74.1053 245.403 74.8306 243.887C77.8035 237.673 81.2123 231.582 85.064 225.754C85.963 224.394 89.2281 224.238 91.7479 223.771Z" fill="#EEEDF2"/>
<path d="M182.939 256.623C177.57 257.501 172.544 258.077 166.974 258.724C162.567 255.999 158.703 253.205 154.41 250.278C151.737 247.588 149.492 245.031 146.719 241.899C145.944 240.673 145.698 240.022 145.902 239.209C146.548 236.979 147.771 234.1 146.693 233.034C145.172 231.529 141.949 231.365 139.098 230.232C136.776 226.311 134.81 222.786 132.707 219.016C137.701 217.128 141.705 215.614 145.942 213.965C146.465 213.61 149.404 212.485 149.404 212.485C149.404 212.485 157.778 208.989 157.065 209.277C160.586 213.13 157.803 219.772 161.38 223.019C162.006 223.588 163.799 223.157 165.052 223.188C164.764 222.005 164.881 220.534 164.115 219.689C161.176 216.447 157.953 213.406 155.274 210.024C159.56 207.64 163.409 205.522 167.421 203.827C167.829 205.115 168.076 205.981 167.8 206.974C162.577 208.57 161.306 211.703 163.523 215.176C166.498 219.839 170.974 219.522 175.898 216.749C178.897 219.237 181.511 221.504 184.377 224.144C190.842 228.977 194.126 234.753 194.503 241.835C190.762 246.664 187.022 251.494 182.939 256.623ZM156.386 222.922C153.367 219.624 149.553 220.56 147.677 223.187C146.448 224.908 147.335 228.497 148.611 230.615C149.305 231.766 153.598 232.601 154.86 231.813C157.81 229.971 160.617 227.191 156.386 222.922Z" fill="#EEEDF2"/>
<path d="M127.363 51.2789C124.429 48.8576 121.495 46.4363 118.184 43.7584C117.765 42.985 117.724 42.4682 117.601 41.5708C119.812 38.6485 122.195 38.206 125.029 40.6132C127.813 42.9784 130.792 45.1661 134.123 47.5616C138.526 50.756 142.737 53.617 146.325 56.9939C147.602 58.1951 147.364 60.6492 147.817 62.5314C145.808 62.3217 143.634 62.4618 141.834 61.8096C139.801 61.0726 138.104 59.6239 135.558 58.1632C132.357 55.6541 129.86 53.4665 127.363 51.2789Z" fill="#EEEDF2"/>
<path d="M102.738 245.175C104.08 239.609 105.43 234.489 106.737 229.36C107.534 226.23 109 224.347 113.291 227.3C111.999 236.514 110.292 244.971 108.052 253.579C106.053 253.926 104.587 254.121 103.122 254.316C102.991 251.416 102.859 248.516 102.738 245.175Z" fill="#EEEDF2"/>
<path d="M165.277 111.548C181.342 113.26 170.619 121.422 164.059 125.758C162.141 124.516 159.592 121.727 157.876 120.457C155.786 118.91 152.538 117.41 152.191 115.528C151.839 113.62 154.144 111.087 155.818 109.193C156.673 108.226 158.365 106.24 160.487 106.033C161.868 107.577 164.524 110.326 165.277 111.548Z" fill="#EEEDF2"/>
<path d="M134.881 133.465C137.506 133.666 140.255 134.349 143.502 134.931C146.202 141.208 148.406 147.586 150.952 154.957C136.373 157.993 122.3 160.923 107.572 163.891C106.256 162.313 105.596 160.697 104.705 158.52C107.311 159.356 109.364 160.014 113.368 161.299C111.909 157.955 111.115 156.137 110.141 153.899C112.259 152.92 114.557 152.361 117.434 151.678C119.72 151.619 122.619 152.205 122.927 151.662C124.202 149.409 124.696 146.816 125.759 143.989C133.836 144.166 136.358 141.442 134.881 133.465Z" fill="#EEEDF2"/>
<path d="M100.765 63.5826C105.355 64.0039 109.945 64.4252 115.364 65.0423C120.328 66.1153 124.463 66.9924 128.598 67.8694C129.554 69.4534 130.511 71.0374 131.467 72.6213C129.527 73.328 127.586 74.0345 125.195 74.8683C118.657 73.4625 112.478 72.1558 106.53 70.2885C104.058 69.5127 102.079 67.5402 99.7718 65.703C99.6673 65.2942 99.5589 65.1636 99.8152 64.9991C100.303 64.4173 100.534 64 100.765 63.5826Z" fill="#EEEDF2"/>
<path d="M283.194 107.742C283.115 107.432 283.035 107.121 282.937 106.333C279.716 99.7978 295.903 104.661 293.758 111.277C294.824 116.136 290.205 118.087 284.985 119.353C284.108 115.889 283.795 112.318 283.32 108.225C283.158 107.702 283.194 107.742 283.194 107.742Z" fill="#EEEDF2"/>
<path d="M158.183 221.558C163.221 226.079 159.386 229.464 155.397 231.741C153.691 232.715 148.022 231.858 147.146 230.514C145.533 228.041 144.495 223.812 146.193 221.733C148.786 218.558 153.887 217.328 158.183 221.558Z" fill="#EEEDF2"/>
<path d="M167.8 206.969C170.413 209.516 172.503 212.19 174.98 215.185C175.367 215.506 176.218 217.586 176.278 217.837C171.801 221.081 166.499 219.834 163.523 215.171C161.307 211.698 162.578 208.565 167.8 206.969Z" fill="#EEEDF2"/>
<path d="M150.746 212.669C151.64 211.652 162.428 206.407 163.576 206.237C167.15 209.359 166.406 221.849 169.345 225.091C170.111 225.936 165.982 226.437 166.271 227.62C165.017 227.589 161.768 223.823 161.142 223.254C157.566 220.007 154.267 216.521 150.746 212.669Z" fill="#EEEDF2"/>
<path d="M265.728 134.764C264.602 133.536 263.214 132.426 262.422 131.047C261.612 129.636 261.385 127.961 260.903 126.401C262.612 126.683 264.426 126.75 265.987 127.334C266.815 127.644 267.204 128.852 267.791 129.655C268.121 129.189 268.451 128.722 268.781 128.256C268.123 125.976 267.465 123.695 266.807 121.415C269.561 122.634 272.316 123.853 275.542 125.05C274.382 128.575 272.171 136.176 268.731 136.685C266.745 136.338 264.186 136.906 262.767 136.689L265.728 134.764Z" fill="#EEEDF2"/>
<path d="M249.38 131.019C253.462 128.551 256.775 128.002 258.871 132.947C259.365 134.11 262.677 134.326 265.211 134.872C265.731 134.767 265.732 134.759 265.772 135.219C264.616 140 261.426 140.062 257.527 138.812C255.953 138.307 255.447 139.286 253.826 138.894C252.594 138.597 251.374 136.468 250.511 135.652C249.992 134.114 249.688 132.816 249.38 131.019Z" fill="#EEEDF2"/>
<path d="M252.819 138.147C254.292 138.007 255.953 138.305 257.527 138.81C261.426 140.061 264.616 139.998 265.769 135.22C267.147 134.977 268.367 134.665 270.186 135.781C266.26 139.716 262.143 143.277 256.645 148.032C254.853 143.476 253.91 141.078 252.819 138.147Z" fill="#EEEDF2"/>
<path d="M117.937 151.824C119.096 145.558 115.052 144.681 105.635 146.302C106.782 146.133 107.171 142.393 106.831 139.903C112.495 140.199 117.934 141.61 123.849 141.965C125.164 142.668 125.573 143.277 125.698 144.246C124.632 147.079 124.138 149.677 122.86 151.934C122.552 152.477 119.647 151.891 117.937 151.824Z" fill="#EEEDF2"/>
<path d="M125.98 143.885C125.571 143.276 125.163 142.666 124.377 141.917C122.08 133.553 124.76 131.217 134.21 133.269C134.712 133.219 134.71 133.218 134.835 133.701C136.315 141.693 133.788 144.422 125.98 143.885Z" fill="#EEEDF2"/>
<path d="M142.259 130.336C143.113 131.563 143.473 132.827 143.402 134.679C140.217 134.582 137.463 133.897 134.709 133.212L134.712 133.215C133.191 131.489 131.409 129.888 130.241 127.99C129.515 126.811 129.718 125.182 129.504 123.754C130.972 124.137 132.656 124.239 133.863 124.959C136.621 126.603 139.145 128.548 142.259 130.336Z" fill="#EEEDF2"/>
<path d="M90.6557 170.133C92.364 170.731 93.6619 171.046 96.0959 171.636C94.6972 173.225 93.0076 175.687 92.5909 175.532C89.3223 174.315 86.0708 172.845 83.3162 170.901C82.3034 170.186 82.2394 167.922 82.5456 166.493C82.6853 165.841 85.456 164.822 85.8574 165.136C87.5604 166.469 88.8224 168.239 90.6557 170.133Z" fill="#EEEDF2"/>
<path d="M149.341 244.639C148.647 244.729 146.056 241.389 144.51 238.4C142.32 235.247 139.931 231.603 138.281 228.936C138.281 228.936 139.461 229.88 139.681 229.842C142.396 230.644 145.631 230.909 147.132 232.52C148.196 233.661 150.033 242.335 149.341 244.639Z" fill="#EEEDF2"/>
<path d="M299.728 96.4114C301.028 99.166 301.809 102.017 302.835 105.374C303.071 106.441 303.062 107.003 303.026 107.988C299.842 113.415 293.835 108.464 292.499 104.077C289.611 97.9096 291.048 90.8622 299.728 96.4114Z" fill="#EEEDF2"/>
<rect width="27.8205" height="22.5836" transform="matrix(0.98923 -0.146369 0.178217 0.983991 114.098 128.021)" fill="#EEEDF2"/>
<rect width="13.9102" height="12.3183" transform="matrix(0.98923 -0.146369 0.178217 0.983991 81.332 168.133)" fill="#EEEDF2"/>
<path d="M102.433 157.197L106.973 156.297L108.767 163.591L104.228 164.492L102.433 157.197Z" fill="#EEEDF2"/>
<path d="M80.5319 163.592L89.9266 165.229L86.8662 169.986L82.3266 170.887L80.5319 163.592Z" fill="#EEEDF2"/>
<path d="M128.942 120.87L133.481 119.97L135.276 127.264L130.736 128.165L128.942 120.87Z" fill="#EEEDF2"/>
<mask id="path-41-outside-1_1579_2088" maskUnits="userSpaceOnUse" x="220.258" y="205.5" width="292" height="54" fill="black">
<rect fill="white" x="220.258" y="205.5" width="292" height="54"/>
<path d="M247.103 258.765C236.787 258.765 229.913 257.037 226.482 253.581C223.077 250.1 221.374 245.736 221.374 240.489H238.628C238.628 243.617 239.448 245.522 241.087 246.203C242.752 246.859 244.707 247.187 246.952 247.187C249.222 247.187 251.165 246.96 252.779 246.506C254.419 246.052 255.238 245.118 255.238 243.706C255.238 242.091 253.99 241.032 251.493 240.527C249.021 240.023 245.653 239.443 241.39 238.787C233.646 237.324 228.374 235.621 225.574 233.679C222.799 231.736 221.412 228.52 221.412 224.03C221.412 219.364 223.14 215.353 226.596 211.998C230.051 208.618 236.774 206.928 246.763 206.928C256.701 206.928 263.411 208.731 266.892 212.339C270.399 215.921 272.152 220.171 272.152 225.09H254.86C254.86 222.012 254.002 220.146 252.287 219.49C250.572 218.834 248.667 218.506 246.574 218.506C244.177 218.506 242.159 218.771 240.52 219.301C238.905 219.83 238.098 220.738 238.098 222.025C238.098 223.866 239.385 225.027 241.958 225.506C244.531 225.96 247.911 226.54 252.098 227.246C260.145 228.71 265.505 230.324 268.179 232.09C270.878 233.83 272.227 236.882 272.227 241.246C272.227 246.064 270.55 250.188 267.195 253.619C263.84 257.05 257.143 258.765 247.103 258.765ZM278.002 258.5V207.42H305.774L312.623 246.014H312.736L319.585 207.42H347.357V258.5H330.293V219.263H330.141L322.65 258.311H302.709L295.218 219.263H295.066V258.5H278.002ZM352.031 258.5L367.62 207.382H391.949L407.576 258.5H389.792L387.219 247.565H372.425L369.814 258.5H352.031ZM375.187 236.29H384.495L379.917 217.409H379.765L375.187 236.29ZM411.91 258.5V207.42H445.055C451.336 207.42 455.511 209.034 457.579 212.263C459.648 215.492 460.682 219.351 460.682 223.841C460.682 228.255 459.585 231.964 457.39 234.965C455.196 237.967 450.844 239.468 444.336 239.468H429.239V258.5H411.91ZM443.239 258.5L431.812 234.965L448.915 234.398L461.968 258.5H443.239ZM429.239 228.987H439.266C440.83 228.987 441.902 228.596 442.482 227.814C443.062 227.007 443.353 225.758 443.353 224.068C443.353 222.353 443.05 221.092 442.444 220.284C441.864 219.477 440.805 219.074 439.266 219.074H429.239V228.987ZM479.612 258.5V219.074H464.78V207.42H511.698V219.074H496.903V258.5H479.612Z"/>
</mask>
<path d="M247.103 258.765C236.787 258.765 229.913 257.037 226.482 253.581C223.077 250.1 221.374 245.736 221.374 240.489H238.628C238.628 243.617 239.448 245.522 241.087 246.203C242.752 246.859 244.707 247.187 246.952 247.187C249.222 247.187 251.165 246.96 252.779 246.506C254.419 246.052 255.238 245.118 255.238 243.706C255.238 242.091 253.99 241.032 251.493 240.527C249.021 240.023 245.653 239.443 241.39 238.787C233.646 237.324 228.374 235.621 225.574 233.679C222.799 231.736 221.412 228.52 221.412 224.03C221.412 219.364 223.14 215.353 226.596 211.998C230.051 208.618 236.774 206.928 246.763 206.928C256.701 206.928 263.411 208.731 266.892 212.339C270.399 215.921 272.152 220.171 272.152 225.09H254.86C254.86 222.012 254.002 220.146 252.287 219.49C250.572 218.834 248.667 218.506 246.574 218.506C244.177 218.506 242.159 218.771 240.52 219.301C238.905 219.83 238.098 220.738 238.098 222.025C238.098 223.866 239.385 225.027 241.958 225.506C244.531 225.96 247.911 226.54 252.098 227.246C260.145 228.71 265.505 230.324 268.179 232.09C270.878 233.83 272.227 236.882 272.227 241.246C272.227 246.064 270.55 250.188 267.195 253.619C263.84 257.05 257.143 258.765 247.103 258.765ZM278.002 258.5V207.42H305.774L312.623 246.014H312.736L319.585 207.42H347.357V258.5H330.293V219.263H330.141L322.65 258.311H302.709L295.218 219.263H295.066V258.5H278.002ZM352.031 258.5L367.62 207.382H391.949L407.576 258.5H389.792L387.219 247.565H372.425L369.814 258.5H352.031ZM375.187 236.29H384.495L379.917 217.409H379.765L375.187 236.29ZM411.91 258.5V207.42H445.055C451.336 207.42 455.511 209.034 457.579 212.263C459.648 215.492 460.682 219.351 460.682 223.841C460.682 228.255 459.585 231.964 457.39 234.965C455.196 237.967 450.844 239.468 444.336 239.468H429.239V258.5H411.91ZM443.239 258.5L431.812 234.965L448.915 234.398L461.968 258.5H443.239ZM429.239 228.987H439.266C440.83 228.987 441.902 228.596 442.482 227.814C443.062 227.007 443.353 225.758 443.353 224.068C443.353 222.353 443.05 221.092 442.444 220.284C441.864 219.477 440.805 219.074 439.266 219.074H429.239V228.987ZM479.612 258.5V219.074H464.78V207.42H511.698V219.074H496.903V258.5H479.612Z" fill="#FDFDFD"/>
<path d="M226.482 253.581L226.143 253.913L226.145 253.916L226.482 253.581ZM221.374 240.489V240.014H220.899V240.489H221.374ZM238.628 240.489H239.103V240.014H238.628V240.489ZM241.087 246.203L240.905 246.642L240.913 246.645L241.087 246.203ZM252.779 246.506L252.652 246.048L252.65 246.048L252.779 246.506ZM251.493 240.527L251.398 240.993L251.398 240.993L251.493 240.527ZM241.39 238.787L241.302 239.254L241.31 239.255L241.318 239.256L241.39 238.787ZM225.574 233.679L225.302 234.068L225.303 234.069L225.574 233.679ZM226.596 211.998L226.927 212.339L226.928 212.338L226.596 211.998ZM266.892 212.339L266.55 212.669L266.553 212.671L266.892 212.339ZM272.152 225.09V225.565H272.627V225.09H272.152ZM254.86 225.09H254.385V225.565H254.86V225.09ZM252.287 219.49L252.117 219.934L252.287 219.49ZM240.52 219.301L240.374 218.849L240.372 218.849L240.52 219.301ZM241.958 225.506L241.871 225.973L241.875 225.974L241.958 225.506ZM252.098 227.246L252.183 226.779L252.177 226.778L252.098 227.246ZM268.179 232.09L267.917 232.486L267.921 232.489L268.179 232.09ZM267.195 253.619L266.855 253.287L267.195 253.619ZM247.103 258.765V258.29C241.968 258.29 237.712 257.859 234.326 257.008C230.937 256.156 228.452 254.891 226.819 253.246L226.482 253.581L226.145 253.916C227.943 255.727 230.61 257.054 234.095 257.93C237.582 258.806 241.922 259.24 247.103 259.24V258.765ZM226.482 253.581L226.822 253.249C223.51 249.864 221.849 245.623 221.849 240.489H221.374H220.899C220.899 245.85 222.643 250.336 226.143 253.913L226.482 253.581ZM221.374 240.489V240.965H238.628V240.489V240.014H221.374V240.489ZM238.628 240.489H238.153C238.153 243.653 238.978 245.841 240.905 246.642L241.087 246.203L241.27 245.764C239.917 245.202 239.103 243.582 239.103 240.489H238.628ZM241.087 246.203L240.913 246.645C242.646 247.327 244.662 247.662 246.952 247.662V247.187V246.712C244.752 246.712 242.859 246.39 241.261 245.761L241.087 246.203ZM246.952 247.187V247.662C249.252 247.662 251.24 247.432 252.908 246.963L252.779 246.506L252.65 246.048C251.09 246.487 249.193 246.712 246.952 246.712V247.187ZM252.779 246.506L252.906 246.963C253.783 246.721 254.491 246.336 254.981 245.779C255.477 245.213 255.714 244.51 255.714 243.706H255.238H254.763C254.763 244.313 254.59 244.783 254.267 245.152C253.936 245.527 253.415 245.837 252.652 246.048L252.779 246.506ZM255.238 243.706H255.714C255.714 242.757 255.338 241.957 254.609 241.338C253.899 240.735 252.874 240.322 251.587 240.062L251.493 240.527L251.398 240.993C252.608 241.237 253.456 241.606 253.995 242.063C254.514 242.503 254.763 243.04 254.763 243.706H255.238ZM251.493 240.527L251.588 240.062C249.105 239.555 245.728 238.974 241.462 238.317L241.39 238.787L241.318 239.256C245.578 239.912 248.937 240.491 251.398 240.993L251.493 240.527ZM241.39 238.787L241.478 238.32C233.736 236.857 228.554 235.168 225.845 233.288L225.574 233.679L225.303 234.069C228.194 236.074 233.556 237.79 241.302 239.254L241.39 238.787ZM225.574 233.679L225.847 233.29C223.238 231.464 221.887 228.421 221.887 224.03H221.412H220.937C220.937 228.62 222.36 232.009 225.302 234.068L225.574 233.679ZM221.412 224.03H221.887C221.887 219.497 223.56 215.608 226.927 212.339L226.596 211.998L226.265 211.657C222.72 215.098 220.937 219.231 220.937 224.03H221.412ZM226.596 211.998L226.928 212.338C228.575 210.727 231.032 209.489 234.345 208.656C237.656 207.824 241.792 207.403 246.763 207.403V206.928V206.453C241.745 206.453 237.525 206.877 234.114 207.735C230.704 208.592 228.072 209.889 226.263 211.658L226.596 211.998ZM246.763 206.928V207.403C256.684 207.403 263.214 209.212 266.55 212.669L266.892 212.339L267.234 212.009C263.608 208.251 256.719 206.453 246.763 206.453V206.928ZM266.892 212.339L266.553 212.671C269.974 216.166 271.677 220.298 271.677 225.09H272.152H272.627C272.627 220.044 270.823 215.675 267.232 212.006L266.892 212.339ZM272.152 225.09V224.615H254.86V225.09V225.565H272.152V225.09ZM254.86 225.09H255.335C255.335 221.964 254.464 219.813 252.457 219.046L252.287 219.49L252.117 219.934C253.541 220.478 254.385 222.061 254.385 225.09H254.86ZM252.287 219.49L252.457 219.046C250.68 218.367 248.717 218.031 246.574 218.031V218.506V218.981C248.617 218.981 250.463 219.301 252.117 219.934L252.287 219.49ZM246.574 218.506V218.031C244.146 218.031 242.075 218.299 240.374 218.849L240.52 219.301L240.666 219.753C242.244 219.243 244.209 218.981 246.574 218.981V218.506ZM240.52 219.301L240.372 218.849C239.515 219.13 238.826 219.526 238.349 220.063C237.863 220.61 237.623 221.273 237.623 222.025H238.098H238.573C238.573 221.491 238.737 221.056 239.059 220.695C239.389 220.324 239.91 220.001 240.668 219.752L240.52 219.301ZM238.098 222.025H237.623C237.623 223.071 237.995 223.953 238.745 224.629C239.478 225.291 240.539 225.725 241.871 225.973L241.958 225.506L242.045 225.039C240.803 224.808 239.934 224.422 239.381 223.923C238.845 223.44 238.573 222.821 238.573 222.025H238.098ZM241.958 225.506L241.875 225.974C244.45 226.428 247.831 227.009 252.019 227.715L252.098 227.246L252.177 226.778C247.99 226.072 244.611 225.492 242.04 225.038L241.958 225.506ZM252.098 227.246L252.013 227.714C256.026 228.444 259.359 229.209 262.016 230.009C264.68 230.812 266.637 231.641 267.917 232.486L268.179 232.09L268.441 231.693C267.047 230.773 264.987 229.912 262.29 229.1C259.587 228.286 256.217 227.512 252.183 226.779L252.098 227.246ZM268.179 232.09L267.921 232.489C270.438 234.112 271.752 236.98 271.752 241.246H272.227H272.702C272.702 236.785 271.317 233.548 268.436 231.69L268.179 232.09ZM272.227 241.246H271.752C271.752 245.941 270.123 249.945 266.855 253.287L267.195 253.619L267.535 253.951C270.977 250.431 272.702 246.188 272.702 241.246H272.227ZM267.195 253.619L266.855 253.287C265.26 254.918 262.837 256.173 259.538 257.018C256.241 257.863 252.1 258.29 247.103 258.29V258.765V259.24C252.147 259.24 256.374 258.809 259.774 257.939C263.172 257.068 265.775 255.75 267.535 253.951L267.195 253.619ZM278.002 258.5H277.527V258.975H278.002V258.5ZM278.002 207.42V206.945H277.527V207.42H278.002ZM305.774 207.42L306.242 207.337L306.172 206.945H305.774V207.42ZM312.623 246.014L312.155 246.097L312.224 246.489H312.623V246.014ZM312.736 246.014V246.489H313.134L313.204 246.097L312.736 246.014ZM319.585 207.42V206.945H319.187L319.117 207.337L319.585 207.42ZM347.357 207.42H347.832V206.945H347.357V207.42ZM347.357 258.5V258.975H347.832V258.5H347.357ZM330.293 258.5H329.818V258.975H330.293V258.5ZM330.293 219.263H330.768V218.788H330.293V219.263ZM330.141 219.263V218.788H329.749L329.675 219.173L330.141 219.263ZM322.65 258.311V258.786H323.042L323.116 258.4L322.65 258.311ZM302.709 258.311L302.243 258.4L302.317 258.786H302.709V258.311ZM295.218 219.263L295.684 219.173L295.61 218.788H295.218V219.263ZM295.066 219.263V218.788H294.591V219.263H295.066ZM295.066 258.5V258.975H295.541V258.5H295.066ZM278.002 258.5H278.477V207.42H278.002H277.527V258.5H278.002ZM278.002 207.42V207.895H305.774V207.42V206.945H278.002V207.42ZM305.774 207.42L305.306 207.503L312.155 246.097L312.623 246.014L313.09 245.931L306.242 207.337L305.774 207.42ZM312.623 246.014V246.489H312.736V246.014V245.539H312.623V246.014ZM312.736 246.014L313.204 246.097L320.053 207.503L319.585 207.42L319.117 207.337L312.268 245.931L312.736 246.014ZM319.585 207.42V207.895H347.357V207.42V206.945H319.585V207.42ZM347.357 207.42H346.882V258.5H347.357H347.832V207.42H347.357ZM347.357 258.5V258.025H330.293V258.5V258.975H347.357V258.5ZM330.293 258.5H330.768V219.263H330.293H329.818V258.5H330.293ZM330.293 219.263V218.788H330.141V219.263V219.738H330.293V219.263ZM330.141 219.263L329.675 219.173L322.183 258.221L322.65 258.311L323.116 258.4L330.608 219.352L330.141 219.263ZM322.65 258.311V257.836H302.709V258.311V258.786H322.65V258.311ZM302.709 258.311L303.176 258.221L295.684 219.173L295.218 219.263L294.751 219.352L302.243 258.4L302.709 258.311ZM295.218 219.263V218.788H295.066V219.263V219.738H295.218V219.263ZM295.066 219.263H294.591V258.5H295.066H295.541V219.263H295.066ZM295.066 258.5V258.025H278.002V258.5V258.975H295.066V258.5ZM352.031 258.5L351.576 258.361L351.389 258.975H352.031V258.5ZM367.62 207.382V206.907H367.268L367.165 207.243L367.62 207.382ZM391.949 207.382L392.403 207.243L392.3 206.907H391.949V207.382ZM407.576 258.5V258.975H408.218L408.03 258.361L407.576 258.5ZM389.792 258.5L389.33 258.609L389.416 258.975H389.792V258.5ZM387.219 247.565L387.682 247.456L387.596 247.09H387.219V247.565ZM372.425 247.565V247.09H372.05L371.963 247.455L372.425 247.565ZM369.814 258.5V258.975H370.189L370.276 258.61L369.814 258.5ZM375.187 236.29L374.725 236.178L374.583 236.765H375.187V236.29ZM384.495 236.29V236.765H385.099L384.957 236.178L384.495 236.29ZM379.917 217.409L380.378 217.297L380.29 216.934H379.917V217.409ZM379.765 217.409V216.934H379.392L379.304 217.297L379.765 217.409ZM352.031 258.5L352.485 258.639L368.074 207.521L367.62 207.382L367.165 207.243L351.576 258.361L352.031 258.5ZM367.62 207.382V207.857H391.949V207.382V206.907H367.62V207.382ZM391.949 207.382L391.495 207.521L407.121 258.639L407.576 258.5L408.03 258.361L392.403 207.243L391.949 207.382ZM407.576 258.5V258.025H389.792V258.5V258.975H407.576V258.5ZM389.792 258.5L390.255 258.391L387.682 247.456L387.219 247.565L386.757 247.674L389.33 258.609L389.792 258.5ZM387.219 247.565V247.09H372.425V247.565V248.04H387.219V247.565ZM372.425 247.565L371.963 247.455L369.352 258.39L369.814 258.5L370.276 258.61L372.887 247.675L372.425 247.565ZM369.814 258.5V258.025H352.031V258.5V258.975H369.814V258.5ZM375.187 236.29V236.765H384.495V236.29V235.814H375.187V236.29ZM384.495 236.29L384.957 236.178L380.378 217.297L379.917 217.409L379.455 217.521L384.033 236.402L384.495 236.29ZM379.917 217.409V216.934H379.765V217.409V217.884H379.917V217.409ZM379.765 217.409L379.304 217.297L374.725 236.178L375.187 236.29L375.649 236.402L380.227 217.521L379.765 217.409ZM411.91 258.5H411.435V258.975H411.91V258.5ZM411.91 207.42V206.945H411.435V207.42H411.91ZM457.579 212.263L457.979 212.007L457.979 212.007L457.579 212.263ZM457.39 234.965L457.774 235.246L457.774 235.246L457.39 234.965ZM429.239 239.468V238.993H428.764V239.468H429.239ZM429.239 258.5V258.975H429.714V258.5H429.239ZM443.239 258.5L442.812 258.708L442.942 258.975H443.239V258.5ZM431.812 234.965L431.796 234.49L431.065 234.515L431.385 235.173L431.812 234.965ZM448.915 234.398L449.332 234.171L449.192 233.913L448.899 233.923L448.915 234.398ZM461.968 258.5V258.975H462.766L462.386 258.274L461.968 258.5ZM429.239 228.987H428.764V229.462H429.239V228.987ZM442.482 227.814L442.864 228.097L442.868 228.091L442.482 227.814ZM442.444 220.284L442.059 220.562L442.064 220.57L442.444 220.284ZM429.239 219.074V218.599H428.764V219.074H429.239ZM411.91 258.5H412.385V207.42H411.91H411.435V258.5H411.91ZM411.91 207.42V207.895H445.055V207.42V206.945H411.91V207.42ZM445.055 207.42V207.895C451.28 207.895 455.243 209.497 457.179 212.519L457.579 212.263L457.979 212.007C455.779 208.571 451.392 206.945 445.055 206.945V207.42ZM457.579 212.263L457.179 212.519C459.191 215.659 460.207 219.426 460.207 223.841H460.682H461.157C461.157 219.276 460.105 215.324 457.979 212.007L457.579 212.263ZM460.682 223.841H460.207C460.207 228.174 459.131 231.779 457.007 234.685L457.39 234.965L457.774 235.246C460.038 232.148 461.157 228.337 461.157 223.841H460.682ZM457.39 234.965L457.007 234.685C454.951 237.496 450.803 238.993 444.336 238.993V239.468V239.943C450.885 239.943 455.44 238.438 457.774 235.246L457.39 234.965ZM444.336 239.468V238.993H429.239V239.468V239.943H444.336V239.468ZM429.239 239.468H428.764V258.5H429.239H429.714V239.468H429.239ZM429.239 258.5V258.025H411.91V258.5V258.975H429.239V258.5ZM443.239 258.5L443.666 258.292L432.24 234.758L431.812 234.965L431.385 235.173L442.812 258.708L443.239 258.5ZM431.812 234.965L431.828 235.44L448.93 234.873L448.915 234.398L448.899 233.923L431.796 234.49L431.812 234.965ZM448.915 234.398L448.497 234.624L461.551 258.726L461.968 258.5L462.386 258.274L449.332 234.171L448.915 234.398ZM461.968 258.5V258.025H443.239V258.5V258.975H461.968V258.5ZM429.239 228.987V229.462H439.266V228.987V228.512H429.239V228.987ZM439.266 228.987V229.462C440.888 229.462 442.151 229.058 442.864 228.097L442.482 227.814L442.101 227.531C441.654 228.134 440.772 228.512 439.266 228.512V228.987ZM442.482 227.814L442.868 228.091C443.534 227.164 443.828 225.795 443.828 224.068H443.353H442.877C442.877 225.721 442.59 226.85 442.096 227.537L442.482 227.814ZM443.353 224.068H443.828C443.828 222.315 443.522 220.929 442.824 219.999L442.444 220.284L442.064 220.57C442.578 221.254 442.877 222.391 442.877 224.068H443.353ZM442.444 220.284L442.83 220.007C442.12 219.019 440.871 218.599 439.266 218.599V219.074V219.549C440.738 219.549 441.608 219.935 442.059 220.562L442.444 220.284ZM439.266 219.074V218.599H429.239V219.074V219.549H439.266V219.074ZM429.239 219.074H428.764V228.987H429.239H429.714V219.074H429.239ZM479.612 258.5H479.137V258.975H479.612V258.5ZM479.612 219.074H480.087V218.599H479.612V219.074ZM464.78 219.074H464.304V219.549H464.78V219.074ZM464.78 207.42V206.945H464.304V207.42H464.78ZM511.698 207.42H512.173V206.945H511.698V207.42ZM511.698 219.074V219.549H512.173V219.074H511.698ZM496.903 219.074V218.599H496.428V219.074H496.903ZM496.903 258.5V258.975H497.378V258.5H496.903ZM479.612 258.5H480.087V219.074H479.612H479.137V258.5H479.612ZM479.612 219.074V218.599H464.78V219.074V219.549H479.612V219.074ZM464.78 219.074H465.255V207.42H464.78H464.304V219.074H464.78ZM464.78 207.42V207.895H511.698V207.42V206.945H464.78V207.42ZM511.698 207.42H511.223V219.074H511.698H512.173V207.42H511.698ZM511.698 219.074V218.599H496.903V219.074V219.549H511.698V219.074ZM496.903 219.074H496.428V258.5H496.903H497.378V219.074H496.903ZM496.903 258.5V258.025H479.612V258.5V258.975H496.903V258.5Z" fill="#EEEDF2" mask="url(#path-41-outside-1_1579_2088)"/>
<mask id="path-43-outside-2_1579_2088" maskUnits="userSpaceOnUse" x="222.369" y="263.324" width="285" height="53" fill="black">
<rect fill="white" x="222.369" y="263.324" width="285" height="53"/>
<path d="M238.524 315.324L223.654 264.244H241.172L250.215 303.254H250.329L259.296 264.244H276.815L261.983 315.324H238.524ZM272.805 315.324L288.394 264.206H312.723L328.35 315.324H310.566L307.993 304.389H293.199L290.588 315.324H272.805ZM295.961 293.114H305.269L300.691 274.233H300.54L295.961 293.114ZM332.684 315.324V264.244H365.829C372.11 264.244 376.285 265.858 378.353 269.087C380.422 272.316 381.456 276.175 381.456 280.665C381.456 285.08 380.359 288.788 378.164 291.789C375.97 294.791 371.618 296.292 365.11 296.292H350.013V315.324H332.684ZM364.013 315.324L352.586 291.789L369.689 291.222L382.743 315.324H364.013ZM350.013 285.811H360.04C361.604 285.811 362.676 285.42 363.256 284.638C363.837 283.831 364.127 282.582 364.127 280.892C364.127 279.177 363.824 277.916 363.219 277.109C362.638 276.301 361.579 275.898 360.04 275.898H350.013V285.811ZM386.779 315.324V264.244H414.173L428.249 302.27H428.362L428.514 264.244H445.73V315.324H418.6L404.147 276.39H403.957V315.324H386.779ZM450.462 315.324L466.051 264.206H490.381L506.007 315.324H488.224L485.651 304.389H470.857L468.246 315.324H450.462ZM473.619 293.114H482.927L478.348 274.233H478.197L473.619 293.114Z"/>
</mask>
<path d="M238.524 315.324L223.654 264.244H241.172L250.215 303.254H250.329L259.296 264.244H276.815L261.983 315.324H238.524ZM272.805 315.324L288.394 264.206H312.723L328.35 315.324H310.566L307.993 304.389H293.199L290.588 315.324H272.805ZM295.961 293.114H305.269L300.691 274.233H300.54L295.961 293.114ZM332.684 315.324V264.244H365.829C372.11 264.244 376.285 265.858 378.353 269.087C380.422 272.316 381.456 276.175 381.456 280.665C381.456 285.08 380.359 288.788 378.164 291.789C375.97 294.791 371.618 296.292 365.11 296.292H350.013V315.324H332.684ZM364.013 315.324L352.586 291.789L369.689 291.222L382.743 315.324H364.013ZM350.013 285.811H360.04C361.604 285.811 362.676 285.42 363.256 284.638C363.837 283.831 364.127 282.582 364.127 280.892C364.127 279.177 363.824 277.916 363.219 277.109C362.638 276.301 361.579 275.898 360.04 275.898H350.013V285.811ZM386.779 315.324V264.244H414.173L428.249 302.27H428.362L428.514 264.244H445.73V315.324H418.6L404.147 276.39H403.957V315.324H386.779ZM450.462 315.324L466.051 264.206H490.381L506.007 315.324H488.224L485.651 304.389H470.857L468.246 315.324H450.462ZM473.619 293.114H482.927L478.348 274.233H478.197L473.619 293.114Z" fill="#FDFDFD"/>
<path d="M238.524 315.324L238.068 315.457L238.167 315.799H238.524V315.324ZM223.654 264.244V263.769H223.021L223.198 264.377L223.654 264.244ZM241.172 264.244L241.635 264.137L241.55 263.769H241.172V264.244ZM250.215 303.254L249.753 303.361L249.838 303.729H250.215V303.254ZM250.329 303.254V303.729H250.707L250.792 303.361L250.329 303.254ZM259.296 264.244V263.769H258.918L258.833 264.138L259.296 264.244ZM276.815 264.244L277.271 264.377L277.448 263.769H276.815V264.244ZM261.983 315.324V315.799H262.34L262.439 315.457L261.983 315.324ZM238.524 315.324L238.98 315.191L224.11 264.111L223.654 264.244L223.198 264.377L238.068 315.457L238.524 315.324ZM223.654 264.244V264.719H241.172V264.244V263.769H223.654V264.244ZM241.172 264.244L240.71 264.351L249.753 303.361L250.215 303.254L250.678 303.147L241.635 264.137L241.172 264.244ZM250.215 303.254V303.729H250.329V303.254V302.779H250.215V303.254ZM250.329 303.254L250.792 303.361L259.759 264.35L259.296 264.244L258.833 264.138L249.866 303.148L250.329 303.254ZM259.296 264.244V264.719H276.815V264.244V263.769H259.296V264.244ZM276.815 264.244L276.359 264.112L261.527 315.192L261.983 315.324L262.439 315.457L277.271 264.377L276.815 264.244ZM261.983 315.324V314.849H238.524V315.324V315.799H261.983V315.324ZM272.805 315.324L272.35 315.186L272.163 315.799H272.805V315.324ZM288.394 264.206V263.731H288.042L287.939 264.068L288.394 264.206ZM312.723 264.206L313.177 264.067L313.075 263.731H312.723V264.206ZM328.35 315.324V315.799H328.992L328.804 315.185L328.35 315.324ZM310.566 315.324L310.104 315.433L310.19 315.799H310.566V315.324ZM307.993 304.389L308.456 304.28L308.37 303.914H307.993V304.389ZM293.199 304.389V303.914H292.824L292.737 304.279L293.199 304.389ZM290.588 315.324V315.799H290.963L291.05 315.435L290.588 315.324ZM295.961 293.114L295.5 293.002L295.357 293.589H295.961V293.114ZM305.269 293.114V293.589H305.873L305.731 293.002L305.269 293.114ZM300.691 274.233L301.153 274.121L301.065 273.758H300.691V274.233ZM300.54 274.233V273.758H300.166L300.078 274.121L300.54 274.233ZM272.805 315.324L273.259 315.463L288.848 264.345L288.394 264.206L287.939 264.068L272.35 315.186L272.805 315.324ZM288.394 264.206V264.681H312.723V264.206V263.731H288.394V264.206ZM312.723 264.206L312.269 264.345L327.896 315.463L328.35 315.324L328.804 315.185L313.177 264.067L312.723 264.206ZM328.35 315.324V314.849H310.566V315.324V315.799H328.35V315.324ZM310.566 315.324L311.029 315.215L308.456 304.28L307.993 304.389L307.531 304.498L310.104 315.433L310.566 315.324ZM307.993 304.389V303.914H293.199V304.389V304.864H307.993V304.389ZM293.199 304.389L292.737 304.279L290.126 315.214L290.588 315.324L291.05 315.435L293.661 304.5L293.199 304.389ZM290.588 315.324V314.849H272.805V315.324V315.799H290.588V315.324ZM295.961 293.114V293.589H305.269V293.114V292.639H295.961V293.114ZM305.269 293.114L305.731 293.002L301.153 274.121L300.691 274.233L300.229 274.345L304.807 293.226L305.269 293.114ZM300.691 274.233V273.758H300.54V274.233V274.708H300.691V274.233ZM300.54 274.233L300.078 274.121L295.5 293.002L295.961 293.114L296.423 293.226L301.001 274.345L300.54 274.233ZM332.684 315.324H332.209V315.799H332.684V315.324ZM332.684 264.244V263.769H332.209V264.244H332.684ZM378.353 269.087L378.754 268.831L378.754 268.831L378.353 269.087ZM378.164 291.789L378.548 292.07L378.548 292.07L378.164 291.789ZM350.013 296.292V295.817H349.538V296.292H350.013ZM350.013 315.324V315.799H350.489V315.324H350.013ZM364.013 315.324L363.586 315.532L363.716 315.799H364.013V315.324ZM352.586 291.789L352.571 291.315L351.839 291.339L352.159 291.997L352.586 291.789ZM369.689 291.222L370.107 290.996L369.967 290.737L369.673 290.747L369.689 291.222ZM382.743 315.324V315.799H383.54L383.16 315.098L382.743 315.324ZM350.013 285.811H349.538V286.286H350.013V285.811ZM363.256 284.638L363.638 284.921L363.642 284.916L363.256 284.638ZM363.219 277.109L362.833 277.386L362.839 277.394L363.219 277.109ZM350.013 275.898V275.423H349.538V275.898H350.013ZM332.684 315.324H333.159V264.244H332.684H332.209V315.324H332.684ZM332.684 264.244V264.719H365.829V264.244V263.769H332.684V264.244ZM365.829 264.244V264.719C372.055 264.719 376.017 266.321 377.953 269.343L378.353 269.087L378.754 268.831C376.553 265.396 372.166 263.769 365.829 263.769V264.244ZM378.353 269.087L377.953 269.343C379.965 272.483 380.981 276.25 380.981 280.665H381.456H381.931C381.931 276.1 380.879 272.148 378.754 268.831L378.353 269.087ZM381.456 280.665H380.981C380.981 284.998 379.905 288.603 377.781 291.509L378.164 291.789L378.548 292.07C380.812 288.972 381.931 285.161 381.931 280.665H381.456ZM378.164 291.789L377.781 291.509C375.725 294.32 371.578 295.817 365.11 295.817V296.292V296.767C371.659 296.767 376.214 295.262 378.548 292.07L378.164 291.789ZM365.11 296.292V295.817H350.013V296.292V296.767H365.11V296.292ZM350.013 296.292H349.538V315.324H350.013H350.489V296.292H350.013ZM350.013 315.324V314.849H332.684V315.324V315.799H350.013V315.324ZM364.013 315.324L364.441 315.117L353.014 291.582L352.586 291.789L352.159 291.997L363.586 315.532L364.013 315.324ZM352.586 291.789L352.602 292.264L369.705 291.697L369.689 291.222L369.673 290.747L352.571 291.315L352.586 291.789ZM369.689 291.222L369.271 291.448L382.325 315.55L382.743 315.324L383.16 315.098L370.107 290.996L369.689 291.222ZM382.743 315.324V314.849H364.013V315.324V315.799H382.743V315.324ZM350.013 285.811V286.286H360.04V285.811V285.336H350.013V285.811ZM360.04 285.811V286.286C361.663 286.286 362.925 285.883 363.638 284.921L363.256 284.638L362.875 284.355C362.428 284.958 361.546 285.336 360.04 285.336V285.811ZM363.256 284.638L363.642 284.916C364.309 283.988 364.602 282.619 364.602 280.892H364.127H363.652C363.652 282.545 363.365 283.674 362.871 284.361L363.256 284.638ZM364.127 280.892H364.602C364.602 279.139 364.296 277.753 363.599 276.824L363.219 277.109L362.839 277.394C363.352 278.079 363.652 279.215 363.652 280.892H364.127ZM363.219 277.109L363.604 276.831C362.894 275.843 361.646 275.423 360.04 275.423V275.898V276.373C361.512 276.373 362.383 276.76 362.833 277.386L363.219 277.109ZM360.04 275.898V275.423H350.013V275.898V276.373H360.04V275.898ZM350.013 275.898H349.538V285.811H350.013H350.489V275.898H350.013ZM386.779 315.324H386.304V315.799H386.779V315.324ZM386.779 264.244V263.769H386.304V264.244H386.779ZM414.173 264.244L414.619 264.079L414.504 263.769H414.173V264.244ZM428.249 302.27L427.803 302.435L427.918 302.745H428.249V302.27ZM428.362 302.27V302.745H428.836L428.838 302.272L428.362 302.27ZM428.514 264.244V263.769H428.041L428.039 264.242L428.514 264.244ZM445.73 264.244H446.205V263.769H445.73V264.244ZM445.73 315.324V315.799H446.205V315.324H445.73ZM418.6 315.324L418.155 315.49L418.27 315.799H418.6V315.324ZM404.147 276.39L404.592 276.224L404.477 275.915H404.147V276.39ZM403.957 276.39V275.915H403.482V276.39H403.957ZM403.957 315.324V315.799H404.433V315.324H403.957ZM386.779 315.324H387.254V264.244H386.779H386.304V315.324H386.779ZM386.779 264.244V264.719H414.173V264.244V263.769H386.779V264.244ZM414.173 264.244L413.728 264.409L427.803 302.435L428.249 302.27L428.694 302.105L414.619 264.079L414.173 264.244ZM428.249 302.27V302.745H428.362V302.27V301.795H428.249V302.27ZM428.362 302.27L428.838 302.272L428.989 264.246L428.514 264.244L428.039 264.242L427.887 302.268L428.362 302.27ZM428.514 264.244V264.719H445.73V264.244V263.769H428.514V264.244ZM445.73 264.244H445.255V315.324H445.73H446.205V264.244H445.73ZM445.73 315.324V314.849H418.6V315.324V315.799H445.73V315.324ZM418.6 315.324L419.046 315.159L404.592 276.224L404.147 276.39L403.701 276.555L418.155 315.49L418.6 315.324ZM404.147 276.39V275.915H403.957V276.39V276.865H404.147V276.39ZM403.957 276.39H403.482V315.324H403.957H404.433V276.39H403.957ZM403.957 315.324V314.849H386.779V315.324V315.799H403.957V315.324ZM450.462 315.324L450.008 315.186L449.821 315.799H450.462V315.324ZM466.051 264.206V263.731H465.699L465.597 264.068L466.051 264.206ZM490.381 264.206L490.835 264.067L490.732 263.731H490.381V264.206ZM506.007 315.324V315.799H506.649L506.462 315.185L506.007 315.324ZM488.224 315.324L487.761 315.433L487.848 315.799H488.224V315.324ZM485.651 304.389L486.113 304.28L486.027 303.914H485.651V304.389ZM470.857 304.389V303.914H470.482L470.394 304.279L470.857 304.389ZM468.246 315.324V315.799H468.621L468.708 315.435L468.246 315.324ZM473.619 293.114L473.157 293.002L473.015 293.589H473.619V293.114ZM482.927 293.114V293.589H483.531L483.388 293.002L482.927 293.114ZM478.348 274.233L478.81 274.121L478.722 273.758H478.348V274.233ZM478.197 274.233V273.758H477.823L477.735 274.121L478.197 274.233ZM450.462 315.324L450.917 315.463L466.506 264.345L466.051 264.206L465.597 264.068L450.008 315.186L450.462 315.324ZM466.051 264.206V264.681H490.381V264.206V263.731H466.051V264.206ZM490.381 264.206L489.926 264.345L505.553 315.463L506.007 315.324L506.462 315.185L490.835 264.067L490.381 264.206ZM506.007 315.324V314.849H488.224V315.324V315.799H506.007V315.324ZM488.224 315.324L488.686 315.215L486.113 304.28L485.651 304.389L485.188 304.498L487.761 315.433L488.224 315.324ZM485.651 304.389V303.914H470.857V304.389V304.864H485.651V304.389ZM470.857 304.389L470.394 304.279L467.784 315.214L468.246 315.324L468.708 315.435L471.319 304.5L470.857 304.389ZM468.246 315.324V314.849H450.462V315.324V315.799H468.246V315.324ZM473.619 293.114V293.589H482.927V293.114V292.639H473.619V293.114ZM482.927 293.114L483.388 293.002L478.81 274.121L478.348 274.233L477.887 274.345L482.465 293.226L482.927 293.114ZM478.348 274.233V273.758H478.197V274.233V274.708H478.348V274.233ZM478.197 274.233L477.735 274.121L473.157 293.002L473.619 293.114L474.08 293.226L478.659 274.345L478.197 274.233Z" fill="#EEEDF2" mask="url(#path-43-outside-2_1579_2088)"/>
</g>
<defs>
<linearGradient id="paint0_linear_1579_2088" x1="522.042" y1="186.579" x2="171.907" y2="348.837" gradientUnits="userSpaceOnUse">
<stop offset="0.0480769" stop-color="#00A4E4"/>
<stop offset="0.853476" stop-color="#90DBF0"/>
<stop offset="1" stop-color="#5FB9F8"/>
</linearGradient>
<linearGradient id="paint1_linear_1579_2088" x1="407.608" y1="24.3209" x2="-9.13879" y2="388.12" gradientUnits="userSpaceOnUse">
<stop stop-color="#2CD0FF" stop-opacity="0.8"/>
<stop offset="0.740385" stop-color="#2C98DD" stop-opacity="0.791442"/>
<stop offset="1" stop-color="#2B4EAF" stop-opacity="0.78"/>
</linearGradient>
<linearGradient id="paint2_linear_1579_2088" x1="278.901" y1="70.166" x2="45.5178" y2="455.586" gradientUnits="userSpaceOnUse">
<stop stop-color="#2CD0FF" stop-opacity="0.8"/>
<stop offset="0.817077" stop-color="#2B6BC1" stop-opacity="0.784531"/>
<stop offset="0.920474" stop-color="#2B73C6" stop-opacity="0.785673"/>
<stop offset="1" stop-color="#2B4EAF" stop-opacity="0.78"/>
</linearGradient>
<clipPath id="clip0_1579_2088">
<rect width="592" height="410" fill="white"/>
</clipPath>
</defs>
</svg>
