<svg width="800" height="800" viewBox="0 0 800 800" fill="none" xmlns="http://www.w3.org/2000/svg">
<path d="M100 166.667V693.097C100 707.943 117.952 715.38 128.452 704.88L256.904 576.43C263.155 570.18 271.633 566.667 280.474 566.667H633.333C670.153 566.667 700 536.82 700 500V166.667C700 129.848 670.153 100 633.333 100H166.667C129.848 100 100 129.848 100 166.667Z" stroke="#FAFAFA" stroke-width="66.6667" stroke-linecap="round" stroke-linejoin="round"/>
<path d="M500 400C473.35 420.747 438.34 433.333 400 433.333C361.66 433.333 326.651 420.747 300 400" stroke="#FAFAFA" stroke-width="66.6667" stroke-linecap="round" stroke-linejoin="round"/>
<path d="M300 267.318V266.667" stroke="#FAFAFA" stroke-width="66.6667" stroke-linecap="round" stroke-linejoin="round"/>
<path d="M500 267.318V266.667" stroke="#FAFAFA" stroke-width="66.6667" stroke-linecap="round" stroke-linejoin="round"/>
</svg>
