<svg width="110" height="69" viewBox="0 0 110 69" fill="none" xmlns="http://www.w3.org/2000/svg">
<g clip-path="url(#clip0_1317_2123)">
<path d="M36.1346 16.8297C38.959 15.5951 41.7034 14.4249 44.6236 13.1501C45.7036 12.6445 46.5937 12.2135 47.5224 11.8633C47.7556 11.7753 48.1124 11.9463 48.3549 12.0711C47.7286 15.376 48.1123 18.5619 48.7837 21.8553C49.4526 24.3131 50.1415 26.6487 50.8416 29.099C51.7476 31.0666 52.6424 32.9194 53.5517 34.873C53.9422 35.6129 54.3181 36.2519 54.7677 37.0161C53.2847 37.0527 52.0566 37.083 50.7373 37.0677C48.7825 37.0379 46.9188 37.0535 44.945 37.0525C44.0096 37.063 43.1843 37.09 42.2627 37.0677C40.3574 37.178 38.5484 37.3378 36.6435 37.4714C35.9283 36.8963 35.219 36.4046 34.7139 35.7831C34.1318 35.0669 33.7302 34.2361 33.2362 33.3473C32.5177 31.3453 31.7797 29.4603 31.1231 27.5529C30.8111 26.6462 30.6544 25.6969 30.4273 24.7669C30.5154 23.5036 30.7199 22.2356 30.666 20.9781C30.5705 18.7541 32.5532 18.358 34.2012 17.6398C34.8098 17.3745 35.4363 17.1416 36.1346 16.8297ZM34.0049 23.521C35.5272 23.1675 37.0495 22.814 38.8077 22.4438C39.9198 22.0164 41.1056 21.6949 42.1271 21.1374C43.7361 20.2593 45.2615 19.2527 46.7541 18.2233C47.0071 18.0488 46.9183 17.4872 46.9875 17.1044C46.6146 17.1486 46.1752 17.0949 45.8795 17.2526C43.5986 18.4688 41.3456 19.7259 38.8458 21.0018C37.9726 21.2528 37.0996 21.5043 36.2262 21.7548C35.228 22.041 34.2296 22.3263 32.9962 22.6547C32.6828 22.7656 32.2587 22.8007 32.0795 23.0035C31.7283 23.4009 31.2447 23.9323 31.3185 24.3325C31.3914 24.7273 32.0726 25.0421 32.5111 25.3666C32.8711 25.633 33.2666 25.8622 33.669 26.1225C35.0451 25.2129 35.047 25.1778 34.0049 23.521Z" fill="#EEEDF2"/>
<path d="M50.7329 36.9619C48.7775 36.932 46.9124 36.9474 44.9403 36.9465L44.9393 36.9466C44.2357 36.9545 43.5977 36.9717 42.9351 36.9704L42.2602 36.9621L42.2511 36.962C40.3593 37.0716 38.5594 37.2295 36.6726 37.3624C35.9611 36.7927 35.2831 36.3186 34.7963 35.7196C34.2241 35.0155 33.8306 34.201 33.3343 33.3074C32.615 31.3037 31.8807 29.4283 31.225 27.5235C30.9171 26.6288 30.7627 25.7003 30.5355 24.7657C30.6232 23.5195 30.8273 22.2385 30.7732 20.978C30.7501 20.4385 30.8535 20.0157 31.0418 19.6726C31.2304 19.329 31.5074 19.0588 31.8429 18.8317C32.1791 18.6042 32.5713 18.4214 32.9855 18.2493C33.3944 18.0794 33.8376 17.9158 34.2487 17.7366C34.5515 17.6046 34.8591 17.4806 35.1795 17.3501C35.4994 17.2197 35.8314 17.0822 36.182 16.9256C39.0106 15.6892 41.7457 14.5237 44.6712 13.2466L44.6731 13.2462C45.7552 12.7397 46.6411 12.3105 47.565 11.962C47.6468 11.9313 47.7644 11.9425 47.9065 11.9878C48.0181 12.0234 48.1314 12.0768 48.2345 12.1282C47.7027 15.0083 47.9296 17.7974 48.4406 20.6385L48.6782 21.8714L48.6799 21.878C49.349 24.3367 50.0383 26.6746 50.738 29.1238L50.7439 29.1386C51.6494 31.1052 52.5462 32.9626 53.4541 34.9132L53.4566 34.9187C53.8222 35.6114 54.1757 36.2155 54.5863 36.9137C53.1802 36.9483 51.9982 36.9765 50.7329 36.9619ZM46.3927 17.031C46.1969 17.0429 45.9932 17.0693 45.8245 17.1592C43.5436 18.3755 41.2952 19.6289 38.7992 20.903C37.9299 21.1529 37.061 21.4043 36.1916 21.6536C35.1937 21.9398 34.1958 22.2243 32.9637 22.5524L32.9563 22.5549C32.8828 22.5809 32.8011 22.6032 32.715 22.6251C32.6303 22.6467 32.5389 22.669 32.4531 22.6936C32.2852 22.7417 32.1077 22.8072 31.997 22.9324C31.8231 23.1292 31.6092 23.3666 31.4492 23.6057C31.2928 23.8395 31.1676 24.1033 31.2126 24.3471C31.2358 24.4725 31.3063 24.5839 31.395 24.6827C31.4839 24.7816 31.5973 24.8738 31.7172 24.9601C31.8372 25.0465 31.9682 25.1305 32.094 25.2113C32.2212 25.2929 32.3433 25.3714 32.4494 25.4499C32.813 25.7189 33.2168 25.9543 33.6126 26.2104L33.6741 26.2496L33.7314 26.2107C34.0732 25.9847 34.3386 25.8082 34.5224 25.6455C34.7073 25.4818 34.8243 25.3198 34.85 25.1199C34.8752 24.9234 34.8094 24.7111 34.6822 24.4557C34.5672 24.2251 34.3939 23.9451 34.1718 23.5912C35.6483 23.2483 37.1307 22.9063 38.8346 22.5475L38.8432 22.5457L38.8503 22.5422C39.9483 22.1203 41.1534 21.7919 42.1825 21.2303C43.7962 20.3496 45.325 19.3406 46.8184 18.3106C46.9054 18.2506 46.9571 18.1612 46.9895 18.0662C47.0218 17.9716 47.0376 17.8635 47.0469 17.7557C47.0562 17.6482 47.06 17.5326 47.0652 17.4263C47.0706 17.3176 47.0776 17.2164 47.0936 17.1277L47.1191 16.9816L46.9699 16.9997C46.7861 17.0215 46.5986 17.0184 46.3927 17.031Z" stroke="#EEEDF2" stroke-opacity="0.75" stroke-width="0.212983"/>
<path d="M27.984 19.9358C28.358 19.896 28.7319 19.8561 29.1371 19.8129C29.1435 21.5196 29.1497 23.1578 29.1455 24.9911C29.205 25.9185 29.275 26.651 29.2413 27.3909C28.5893 27.0167 28.0607 26.6092 27.4833 26.2651C27.2304 26.1144 26.8778 26.0929 26.5705 26.0128C26.6153 26.3117 26.5728 26.6528 26.7248 26.8998C26.9694 27.2972 27.3424 27.6324 27.5558 28.0041C25.5769 27.5744 25.0155 28.0636 25.3068 29.7952C24.1473 29.7503 23.0986 29.6956 21.9126 29.6337C21.9838 30.1552 22.114 30.3574 22.0326 30.7157C20.9572 31.0049 19.9198 31.37 18.8333 31.6373C17.0657 31.9934 15.4407 32.3637 13.7975 32.6487C13.3427 32.7276 12.8336 32.5529 12.3671 32.3815C12.0466 30.2567 12.0469 30.2577 14.2887 29.7707C14.5695 29.7097 14.8456 29.631 15.2393 29.5836C17.7305 29.1129 20.1141 28.6458 22.4741 28.0976C22.8376 28.0131 23.0931 27.5559 23.3986 27.2711C22.9541 27.1173 22.4633 26.7675 22.0726 26.8419C19.7364 27.287 17.4234 27.8298 14.972 28.3414C14.0706 28.4675 13.2998 28.5919 12.3152 28.7508C13.4687 25.0844 15.9178 22.9065 19.907 21.9201C22.691 21.2533 25.3375 20.5946 27.984 19.9358Z" fill="#EEEDF2"/>
<path d="M29.0294 19.9309C29.0356 21.5935 29.0422 23.1968 29.0381 24.9857L29.0379 24.9927C29.093 25.8508 29.1546 26.5326 29.1383 27.207C28.8763 27.0501 28.6314 26.8904 28.3924 26.7301C28.1076 26.5391 27.8277 26.3493 27.5358 26.1753C27.3928 26.0902 27.2261 26.0444 27.0655 26.0096C26.8969 25.9731 26.7454 25.9507 26.5935 25.9111L26.4412 25.8709L26.4647 26.0238C26.4752 26.0936 26.4799 26.1671 26.4846 26.2444C26.4892 26.3203 26.4933 26.4019 26.5005 26.4808C26.5148 26.6379 26.5436 26.8056 26.6334 26.9515C26.7607 27.1584 26.9206 27.3483 27.0699 27.5267C27.1634 27.6386 27.2521 27.746 27.3303 27.853C26.9381 27.7788 26.6026 27.743 26.3201 27.7538C25.9804 27.7668 25.7083 27.8452 25.5095 28.0064C25.3094 28.1687 25.1963 28.4044 25.151 28.7043C25.1104 28.9737 25.1249 29.3 25.1822 29.6835C24.0724 29.6395 23.0573 29.5877 21.9137 29.528L21.7895 29.522L21.8058 29.6434C21.8418 29.907 21.8945 30.1005 21.9238 30.251C21.9499 30.3846 21.9591 30.4967 21.9367 30.6309C21.4188 30.7717 20.9094 30.9291 20.4014 31.0833C19.8719 31.2441 19.3426 31.4012 18.8024 31.5341C17.0329 31.8907 15.4141 32.2606 13.7741 32.545C13.3713 32.6148 12.9145 32.469 12.4629 32.3046C12.3875 31.8044 12.3335 31.4333 12.3242 31.147C12.3145 30.8491 12.355 30.6627 12.4553 30.5265C12.5565 30.389 12.7316 30.2855 13.0359 30.1859C13.3397 30.0864 13.7533 29.9957 14.3157 29.8735C14.5311 29.8267 14.7356 29.7728 14.9873 29.7287L15.2574 29.6884L15.2641 29.687C17.7556 29.2163 20.1413 28.7495 22.5035 28.2008C22.7183 28.1508 22.8912 27.9941 23.0398 27.8325C23.1149 27.7507 23.1888 27.6613 23.2598 27.5789C23.3319 27.4953 23.402 27.4168 23.474 27.3496L23.6012 27.2312L23.43 27.172C23.3248 27.1356 23.2155 27.0865 23.1016 27.0336C22.9892 26.9814 22.8702 26.9237 22.7546 26.8741C22.5264 26.7763 22.2782 26.6948 22.0477 26.7387C19.7128 27.1835 17.3963 27.7257 14.951 28.2361C14.1045 28.3545 13.373 28.472 12.473 28.6172C13.0467 26.8778 13.9211 25.4881 15.1225 24.4102C16.2853 23.367 17.7581 22.6119 19.5707 22.1179L19.9373 22.0226C22.7181 21.3565 25.3617 20.6982 28.0047 20.0404C28.3388 20.0048 28.6728 19.9689 29.0294 19.9309Z" stroke="#EEEDF2" stroke-opacity="0.75" stroke-width="0.212983"/>
<path d="M26.1244 16.5338C27.0389 16.9787 27.9534 17.4235 28.9363 17.936C28.6358 18.3447 28.267 18.6857 27.6779 19.091C24.891 19.7684 22.3245 20.3816 19.6736 20.954C19.4654 19.5266 20.2079 18.4828 21.4394 17.5501C23.0884 17.191 24.6064 16.8624 26.1244 16.5338Z" fill="#EEEDF2"/>
<path d="M26.1151 16.6446C26.9817 17.0662 27.8472 17.4893 28.7719 17.9691C28.4954 18.321 28.153 18.6293 27.6268 18.9925C24.8904 19.6576 22.3669 20.2605 19.7666 20.8237C19.6243 19.5178 20.3164 18.5408 21.49 17.6475C23.1167 17.2933 24.6164 16.969 26.1151 16.6446Z" stroke="#EEEDF2" stroke-opacity="0.75" stroke-width="0.212983"/>
<path d="M37.9966 11.8188C37.7803 11.3669 37.4121 10.8182 37.5678 10.4294C38.199 8.85383 38.9885 7.32649 39.7251 5.78333C40.0988 5.00049 40.618 4.78846 41.3933 5.54328C40.6085 7.40192 39.7947 9.19838 38.9231 10.9731C38.7659 11.2931 38.3708 11.5237 37.9966 11.8188Z" fill="#EEEDF2"/>
<path d="M40.4354 5.18996C40.6433 5.1471 40.9119 5.23868 41.265 5.56655C40.4896 7.39962 39.686 9.17288 38.8258 10.9242C38.7569 11.0643 38.6325 11.1908 38.4704 11.3228C38.3899 11.3884 38.3024 11.4536 38.2101 11.5218C38.1516 11.5651 38.0914 11.61 38.0307 11.656C37.9913 11.5787 37.9516 11.4987 37.9115 11.4212C37.8494 11.3007 37.7898 11.1813 37.7419 11.065C37.6441 10.8271 37.6061 10.6269 37.668 10.4721C38.2975 8.90055 39.0847 7.3788 39.8231 5.83179C40.007 5.44636 40.2118 5.23618 40.4354 5.18996Z" stroke="#EEEDF2" stroke-opacity="0.75" stroke-width="0.212983"/>
<path d="M46.5837 7.96034C47.3859 8.25436 47.6704 8.75581 46.995 9.23937C45.4895 10.3174 43.904 11.3084 42.2379 12.3632C42.1395 11.9257 41.9356 11.2454 42.2063 11.0301C43.5624 9.95103 45.0429 8.99371 46.5837 7.96034Z" fill="#EEEDF2"/>
<path d="M46.5991 8.07898C46.9634 8.22052 47.1777 8.39519 47.2433 8.56308C47.3039 8.71864 47.2525 8.9213 46.9293 9.15279C45.4656 10.2009 43.9254 11.1659 42.3059 12.1907C42.2612 12.0024 42.2129 11.7961 42.1906 11.6055C42.1765 11.4845 42.1745 11.3771 42.1895 11.2901C42.2045 11.2031 42.2348 11.1464 42.2764 11.1132C43.6147 10.0485 45.0733 9.10159 46.5991 8.07898Z" stroke="#EEEDF2" stroke-opacity="0.75" stroke-width="0.212983"/>
<path d="M33.229 11.8271C32.7505 10.3777 32.3542 8.97557 31.9159 7.45903C31.7919 6.97156 31.6583 6.6004 31.6441 6.22486C31.6325 5.91911 31.7638 5.60811 31.8318 5.29944C32.2384 5.39665 32.6451 5.49387 33.1013 5.67194C33.515 7.18343 33.8792 8.61408 34.2887 10.1587C34.3343 10.9745 35.1655 12.0849 33.229 11.8271Z" fill="#EEEDF2"/>
<path d="M31.9094 5.42709C32.2666 5.51289 32.6213 5.6025 33.0119 5.75085C33.4186 7.23886 33.7776 8.64932 34.1816 10.1734C34.1955 10.3861 34.259 10.6148 34.3108 10.8206C34.3657 11.0386 34.4075 11.2289 34.3949 11.3824C34.3888 11.4566 34.37 11.5171 34.3369 11.5663C34.3041 11.6148 34.2533 11.6587 34.1724 11.6924C34.0136 11.7585 33.7461 11.7812 33.3078 11.7286C33.078 11.0292 32.8671 10.3403 32.6605 9.64316L32.0196 7.43457C31.9886 7.31281 31.9564 7.19853 31.9265 7.09041C31.8963 6.98099 31.8679 6.87808 31.843 6.77922C31.793 6.58151 31.7578 6.40294 31.7511 6.22607C31.7459 6.08853 31.7731 5.94559 31.8122 5.79388C31.8416 5.68002 31.8775 5.55149 31.9094 5.42709Z" stroke="#EEEDF2" stroke-opacity="0.75" stroke-width="0.212983"/>
<path d="M49.6818 11.7533C49.7803 11.4363 49.8787 11.1192 50.0208 10.6511C50.8149 9.08348 51.4049 7.52047 53.6343 7.45223C54.3242 7.73807 55.0142 8.02392 55.7881 8.34128C56.7993 9.45735 57.7266 10.5419 58.7163 11.6924C59.533 13.2837 60.2873 14.809 61.0997 16.4261C61.1923 16.7106 61.2268 16.9031 61.2267 17.238C61.2892 17.5137 61.3862 17.647 61.4832 17.7802C61.5945 17.9535 61.7058 18.1267 61.8739 18.5027C62.0555 19.2187 62.1804 19.732 62.1973 20.269C61.1132 20.5052 60.4349 21.0272 60.7508 21.9264C61.0705 22.8364 61.978 23.0249 62.9919 22.7605C63.1748 23.4379 63.3578 24.1153 63.5874 25.0058C63.6385 25.499 63.643 25.7792 63.5866 26.1027C63.6016 26.3748 63.6775 26.6035 63.7922 26.9239C63.8891 27.2047 63.9472 27.3938 64.0052 27.5828C64.0134 27.7816 64.0217 27.9804 64.0092 28.3179C63.9521 28.5164 63.9343 28.58 63.935 28.6475C63.9247 30.6083 63.9145 32.569 63.9237 34.6293C63.6824 35.4667 63.5033 36.237 63.1414 36.9346C62.6212 37.9372 61.8555 38.7745 60.4103 39.0248C59.8734 38.9422 59.4431 38.8402 58.9394 38.7018C58.1078 38.0947 57.3496 37.5239 56.5027 36.7931C55.7195 35.6115 55.0251 34.5899 54.3164 33.4683C54.1117 32.9944 53.9214 32.6206 53.7037 32.1931C56.864 30.5953 58.7763 28.3431 59.1764 25.135C60.2716 24.8693 61.2405 24.4601 61.0169 23.4407C60.8056 22.478 59.9585 21.9799 58.6903 22.2846C58.5853 22.2162 58.5241 22.1772 58.447 22.0434C58.3608 21.7411 58.2818 21.5442 58.1716 21.2483C57.3689 20.2498 56.5975 19.3502 55.7768 18.377C54.2369 17.733 52.7464 17.1626 51.1592 16.5577C50.595 16.4655 50.1275 16.4079 49.5178 16.3328C49.5731 14.7892 49.6275 13.2713 49.6818 11.7533Z" fill="#EEEDF2"/>
<path d="M51.3714 8.56086C51.8756 7.98971 52.5484 7.59665 53.6192 7.55856C54.2938 7.83806 54.9696 8.11783 55.7247 8.42755C56.7252 9.53248 57.6441 10.6069 58.6254 11.7477C59.4386 13.3322 60.1904 14.8508 61.0001 16.4626C61.0872 16.7317 61.119 16.9127 61.119 17.2329L61.119 17.2449L61.122 17.2562C61.1724 17.4786 61.2448 17.6177 61.3203 17.7313L61.3966 17.8392C61.5044 18.007 61.6102 18.175 61.772 18.5361C61.9429 19.2101 62.0594 19.6937 62.0853 20.1857C61.5724 20.3068 61.141 20.4962 60.8699 20.7743C60.7257 20.9222 60.6259 21.0956 60.5855 21.2959C60.5451 21.4962 60.5657 21.717 60.6499 21.9567C60.8212 22.4445 61.1547 22.7455 61.5818 22.8842C61.9734 23.0113 62.4356 22.9982 62.9151 22.8873C63.0881 23.5281 63.263 24.1782 63.4796 25.0179C63.5297 25.5035 63.5347 25.7717 63.481 26.0803L63.4789 26.0917L63.479 26.1037C63.4909 26.3204 63.5403 26.5106 63.6121 26.7271L63.6913 26.9553C63.7847 27.2262 63.8416 27.4109 63.8979 27.5944C63.9058 27.7858 63.9134 27.9779 63.9019 28.2977C63.8499 28.4785 63.8266 28.5582 63.8271 28.6419C63.8168 30.5973 63.8073 32.5537 63.8164 34.6085C63.5748 35.4482 63.3996 36.2005 63.0454 36.8833C62.5364 37.8644 61.7963 38.6712 60.4029 38.9176C59.887 38.8374 59.4695 38.7385 58.9825 38.6051C58.1623 38.0061 57.415 37.4422 56.5819 36.7239C55.803 35.549 55.1144 34.5343 54.4106 33.4207C54.2207 32.9819 54.042 32.6282 53.8446 32.2402C56.952 30.6452 58.8542 28.4026 59.2737 25.2194C59.7985 25.0885 60.3045 24.9204 60.6584 24.6555C60.8444 24.5162 60.9926 24.348 61.0775 24.1417C61.1628 23.9346 61.1817 23.6962 61.122 23.4234C61.0104 22.915 60.7275 22.5193 60.2969 22.2948C59.8801 22.0776 59.3403 22.0294 58.7112 22.1715C58.6774 22.1491 58.6519 22.1332 58.6296 22.1126C58.603 22.0881 58.5758 22.0565 58.5435 22.0017C58.4579 21.7043 58.3793 21.5044 58.2719 21.2163L58.2666 21.1995L58.2547 21.1849L57.6566 20.4515C57.0617 19.7306 56.473 19.0415 55.858 18.3122L55.8404 18.2909L55.8155 18.2801L54.6656 17.8084C53.5212 17.3475 52.3842 16.9135 51.194 16.4598L51.1837 16.455L51.1722 16.4534L50.3651 16.3348C50.1307 16.3034 49.8921 16.2729 49.6287 16.2404C49.6825 14.7366 49.735 13.2567 49.788 11.7768C49.8848 11.465 49.9813 11.151 50.1207 10.6919C50.5197 9.90357 50.8589 9.1416 51.3714 8.56086Z" stroke="#EEEDF2" stroke-opacity="0.75" stroke-width="0.212983"/>
<path d="M39.1362 41.9262C39.6709 42.5725 40.2057 43.2188 40.7882 43.9049C40.725 44.1295 40.6142 44.3142 40.4458 44.5235C40.2941 44.5081 40.1999 44.468 40.0561 44.4137C39.6151 43.9379 39.2239 43.4764 38.7622 42.9305C38.4733 42.5803 38.2124 42.3326 38.0555 42.0408C37.9843 41.9081 38.0653 41.6498 38.1818 41.5232C38.2454 41.4542 38.5511 41.501 38.7052 41.5692C38.8743 41.644 38.9946 41.8036 39.1362 41.9262Z" fill="#EEEDF2"/>
<path d="M38.4055 41.5575C38.504 41.5686 38.6117 41.5964 38.6809 41.627C38.7549 41.6598 38.821 41.7118 38.8881 41.7747C38.9485 41.8313 39.0181 41.905 39.0862 41.9651L39.0871 41.9649C39.6143 42.602 40.1419 43.2394 40.7152 43.9151C40.6565 44.1067 40.5602 44.2702 40.4144 44.4551C40.2975 44.4391 40.2162 44.407 40.091 44.3596C39.6561 43.8896 39.2677 43.4327 38.81 42.8915C38.6663 42.7174 38.5253 42.5632 38.4077 42.425C38.2876 42.2838 38.1871 42.1527 38.112 42.0131C38.0883 41.9688 38.0863 41.8908 38.1108 41.7986C38.1348 41.709 38.1804 41.6218 38.2309 41.5669C38.2328 41.5656 38.2452 41.5585 38.2791 41.5549C38.3127 41.5514 38.3566 41.5521 38.4055 41.5575Z" stroke="#EEEDF2" stroke-opacity="0.75" stroke-width="0.127506"/>
<path d="M40.8169 40.012C41.4059 40.3951 41.9948 40.7782 42.6336 41.1809C42.9015 41.3642 43.1573 41.5026 43.3261 41.6993C43.4757 41.8736 43.5285 42.1129 43.6241 42.3235C43.3689 42.3433 43.1135 42.3778 42.8587 42.3759C42.755 42.3751 42.6527 42.2953 42.5012 42.2152C41.7778 41.6906 41.1029 41.2023 40.354 40.6432C40.459 40.3856 40.6379 40.1988 40.8169 40.012Z" fill="#EEEDF2"/>
<path d="M40.8282 40.0936C41.4012 40.4663 41.9762 40.8392 42.598 41.2312L42.5982 41.2321C42.6659 41.2785 42.733 41.3218 42.7971 41.3635C42.8615 41.4054 42.9234 41.4455 42.9817 41.4859C43.0985 41.5668 43.1987 41.6471 43.2774 41.7389C43.345 41.8177 43.3924 41.9129 43.4353 42.0186C43.4665 42.0955 43.4999 42.1834 43.534 42.2678C43.3036 42.2879 43.0811 42.3145 42.8568 42.3129C42.8213 42.3126 42.7811 42.299 42.726 42.2702C42.6989 42.256 42.6703 42.2386 42.6375 42.2197C42.6074 42.2023 42.5737 42.1838 42.5378 42.1646C41.828 41.6499 41.1653 41.1707 40.4338 40.6251C40.5284 40.4178 40.6726 40.2567 40.8282 40.0936Z" stroke="#EEEDF2" stroke-opacity="0.75" stroke-width="0.127506"/>
<path d="M43.6661 39.5154C42.9791 39.306 42.3553 39.0985 41.6533 38.823C41.404 38.3207 41.6923 38.1944 42.1003 38.1485C42.9153 38.3951 43.7302 38.6417 44.6035 38.9036C44.6353 39.1437 44.6088 39.3685 44.5823 39.5934C44.298 39.5681 44.0137 39.5427 43.6661 39.5154Z" fill="#EEEDF2"/>
<path d="M42.0968 38.213C42.8934 38.4541 43.6905 38.6948 44.5423 38.9503C44.563 39.1466 44.5455 39.3334 44.5232 39.5255C44.2615 39.5022 43.9957 39.4781 43.6768 39.453C43.0014 39.2471 42.3876 39.043 41.6999 38.774C41.5923 38.5465 41.6147 38.4277 41.6787 38.3579C41.7151 38.3184 41.7713 38.2875 41.8463 38.2631C41.9175 38.24 42.0023 38.2241 42.0968 38.213Z" stroke="#EEEDF2" stroke-opacity="0.75" stroke-width="0.127506"/>
<path d="M21.8237 34.4906C21.6404 34.5454 21.4033 34.5547 21.2845 34.664C21.0151 34.9122 20.8038 35.2096 20.5689 35.487C20.9618 35.6208 21.3955 35.9271 21.7413 35.8612C24.6278 35.3114 27.4958 34.6843 30.3753 34.1039C30.8776 34.0026 31.4074 34.0109 32.0665 34.1119C32.7325 35.2313 33.2565 36.2074 33.8573 37.3266C32.5609 37.4777 31.3861 37.6145 30.0936 37.7285C27.6555 38.1969 25.3351 38.6881 23.0146 39.1792C21.4687 39.5229 20.025 39.1644 18.496 38.7036C17.8155 38.474 17.2344 38.2511 16.4991 37.9416C15.7939 37.4878 15.243 37.1208 14.6445 36.6649C14.0208 35.8592 13.4448 35.1425 12.6797 34.1904C14.6928 33.7713 16.4154 33.4127 18.2751 33.055C19.7623 32.8035 21.1123 32.5509 22.5001 32.3864C22.7044 32.8559 22.8709 33.2373 23.177 33.9389C22.3371 33.6694 21.9064 33.5312 21.3597 33.3558C21.5465 33.8126 21.6851 34.1516 21.8237 34.4906ZM18.3536 35.669C18.0556 35.3317 17.7914 34.961 17.4348 34.6819C17.3507 34.6162 16.7705 34.8296 16.7413 34.9661C16.6772 35.2654 16.6906 35.7395 16.9026 35.8891C17.4795 36.2962 18.1603 36.6039 18.8448 36.8589C18.932 36.8914 19.2858 36.3758 19.5787 36.0431C19.069 35.9195 18.7973 35.8536 18.3536 35.669Z" fill="#EEEDF2"/>
<path d="M12.8686 34.26C14.8118 33.8554 16.4901 33.5063 18.2979 33.1586L18.2981 33.1595C19.7581 32.9126 21.0797 32.6652 22.435 32.501C22.6038 32.8886 22.7525 33.2299 22.987 33.7673C22.2873 33.5428 21.8861 33.4145 21.3892 33.255L21.1766 33.1875L21.2606 33.3917C21.4266 33.7977 21.5542 34.1108 21.6779 34.4134C21.6231 34.425 21.5662 34.4389 21.5004 34.4543C21.402 34.4775 21.2898 34.5119 21.2096 34.5858C20.9342 34.8395 20.7131 35.149 20.4856 35.4177L20.3851 35.5345L20.5383 35.5865C20.6306 35.6179 20.7271 35.6598 20.8277 35.706C20.9267 35.7514 21.032 35.8025 21.1344 35.8459C21.3362 35.9314 21.559 36.0045 21.7666 35.9649C24.6532 35.4151 27.5245 34.7871 30.4011 34.2072C30.874 34.1119 31.3754 34.1174 32.0017 34.2096C32.6264 35.2619 33.127 36.1901 33.6895 37.2379C32.7737 37.3445 31.9159 37.4454 31.0287 37.5342L30.0792 37.623L30.0687 37.6252C27.6295 38.0937 25.3075 38.5854 22.9872 39.0765L22.9863 39.0767C21.4704 39.4136 20.0512 39.0633 18.5231 38.6027C17.8497 38.3754 17.2738 38.1543 16.5457 37.8479C15.8505 37.4004 15.3077 37.038 14.72 36.5911C14.1284 35.8271 13.5778 35.1424 12.8686 34.26ZM17.2698 34.5761C17.1954 34.5905 17.1081 34.6175 17.0245 34.6501C16.9409 34.6828 16.8558 34.7223 16.7888 34.7651C16.7554 34.7865 16.7232 34.8104 16.6975 34.8361C16.6737 34.8598 16.6455 34.8948 16.6359 34.9398C16.6016 35.0995 16.5884 35.3048 16.6118 35.4921C16.6236 35.5858 16.6453 35.6792 16.6805 35.7614C16.7156 35.8431 16.7666 35.9211 16.8423 35.9744C17.4307 36.3896 18.1221 36.7015 18.8105 36.9579C18.8453 36.9709 18.8773 36.9664 18.8977 36.9607C18.9182 36.955 18.936 36.9455 18.9498 36.9369C18.9776 36.9195 19.006 36.8948 19.0327 36.8687C19.087 36.8155 19.1511 36.7394 19.2191 36.6561C19.3585 36.4855 19.5162 36.2794 19.6613 36.1146L19.7762 35.9838L19.6001 35.9406C19.0999 35.8193 18.8361 35.7548 18.4149 35.5811C18.1699 35.3013 17.9293 34.9781 17.6332 34.7132L17.4994 34.6002L17.4663 34.5811C17.4328 34.5664 17.3991 34.5646 17.3785 34.5645C17.3445 34.5642 17.3068 34.5689 17.2698 34.5761Z" stroke="#EEEDF2" stroke-opacity="0.75" stroke-width="0.212983"/>
<path d="M22.2939 43.6024C21.6486 42.9054 21.0034 42.2083 20.2934 41.451C20.1015 41.0815 19.9743 40.7721 19.8359 40.4355C20.987 40.3877 22.0281 40.3445 23.3029 40.2804C25.761 39.8385 27.9853 39.4175 30.3402 38.9997C31.9393 38.8591 33.4079 38.7153 35.3679 38.5235C34.7018 39.7113 34.4218 40.7359 33.7059 41.3888C31.5482 43.3567 28.7321 44.3258 25.7059 44.955C24.516 44.4698 23.405 44.0361 22.2939 43.6024Z" fill="#EEEDF2"/>
<path d="M19.9914 40.535C21.0852 40.4896 22.0918 40.4472 23.3128 40.3858L23.313 40.3868L23.3264 40.384C24.5565 40.1629 25.7272 39.9477 26.8845 39.7351L30.3637 39.1036C31.9032 38.9683 33.3229 38.8304 35.1768 38.6489C34.8922 39.1784 34.674 39.6758 34.4589 40.1067C34.2174 40.5904 33.9747 40.9962 33.6308 41.3098C31.5005 43.2527 28.718 44.2164 25.7106 44.8443C24.541 44.3678 23.447 43.9411 22.3545 43.5146C21.7185 42.8276 21.0819 42.1395 20.3825 41.3934C20.2223 41.0835 20.1077 40.8163 19.9914 40.535Z" stroke="#EEEDF2" stroke-opacity="0.75" stroke-width="0.212983"/>
<path d="M10.9025 48.6426C11.4035 47.8657 11.9393 47.0947 12.6096 46.429C13.2007 45.8421 13.942 45.3727 14.7166 44.8412C14.9368 45.2328 15.3087 45.8357 15.1363 46.003C14.1385 46.9713 13.0309 47.8556 11.91 48.7172C11.7409 48.8472 11.3071 48.7087 10.9025 48.6426Z" fill="#EEEDF2"/>
<path d="M14.6823 44.9952C14.7825 45.1711 14.8957 45.3675 14.9755 45.5454C15.0236 45.6525 15.0563 45.7454 15.0681 45.8177C15.0807 45.8944 15.0658 45.92 15.0591 45.9265C14.0656 46.8905 12.9616 47.7718 11.8413 48.6328C11.822 48.6476 11.7873 48.661 11.7268 48.6646C11.6671 48.6682 11.5927 48.6617 11.5055 48.6488C11.4189 48.636 11.3242 48.6179 11.2238 48.5976C11.1772 48.5882 11.1292 48.5798 11.0809 48.5704C11.5562 47.8405 12.0629 47.1254 12.6876 46.5051C13.2459 45.9507 13.9396 45.5021 14.6823 44.9952Z" stroke="#EEEDF2" stroke-opacity="0.75" stroke-width="0.212983"/>
<path d="M9.87713 27.1732C10.3608 27.1091 10.7377 27.0902 10.8083 27.0867C10.9228 29.2344 11.0338 31.3183 11.2337 33.5877C11.9852 34.7966 12.6479 35.82 13.3479 36.9082C13.5497 37.0879 13.7141 37.2028 13.9258 37.3971C13.6019 37.7278 13.2307 37.9793 12.8596 38.2308C12.1579 38.272 11.4562 38.3133 10.6378 38.3587C9.99535 38.1252 9.46963 37.8875 8.86183 37.6334C7.99899 36.9654 7.21823 36.3139 6.34386 35.6364C5.95848 34.6873 5.66673 33.7642 5.38657 32.7367C5.79505 30.165 6.88884 28.1332 9.87713 27.1732Z" fill="#EEEDF2"/>
<path d="M9.90213 27.2768C10.2545 27.2304 10.5492 27.2091 10.7067 27.1992C10.8191 29.3074 10.9306 31.3604 11.1272 33.5924L11.1286 33.6171L11.1426 33.6402C11.8946 34.8499 12.5585 35.8742 13.2583 36.9619L13.2665 36.9742L13.2773 36.9849C13.3805 37.0768 13.4751 37.1522 13.5673 37.2272C13.6328 37.2805 13.6959 37.3364 13.765 37.3967C13.4748 37.6756 13.1517 37.9009 12.8177 38.1273C12.1324 38.1676 11.4455 38.2071 10.6484 38.2514C10.0241 38.0234 9.51135 37.7924 8.91302 37.542L6.43249 35.5736C6.05733 34.6458 5.77062 33.7412 5.49563 32.7345C5.69922 31.4671 6.07123 30.3413 6.75247 29.4147C7.43481 28.4867 8.43289 27.7511 9.90213 27.2768Z" stroke="#EEEDF2" stroke-opacity="0.75" stroke-width="0.212983"/>
<path d="M18.6384 47.0436C18.1519 49.1031 17.3647 51.0088 15.4667 52.473C15.26 52.0736 14.9373 51.5816 15.0894 51.2636C15.7131 49.96 16.4282 48.6823 17.2362 47.4596C17.4248 47.1742 18.1098 47.1416 18.6384 47.0436Z" fill="#EEEDF2"/>
<path d="M18.2432 47.2139C18.3264 47.2013 18.4111 47.1868 18.4942 47.1736C18.0164 49.1239 17.2486 50.9112 15.4962 52.307C15.4055 52.1387 15.3115 51.9689 15.243 51.8025C15.157 51.5935 15.1315 51.4284 15.1874 51.3117C15.8091 50.0121 16.5213 48.7381 17.3266 47.5195C17.3593 47.4701 17.4191 47.4253 17.509 47.3847C17.5983 47.3444 17.7098 47.3118 17.837 47.2844C17.9637 47.2572 18.1018 47.2352 18.2432 47.2139Z" stroke="#EEEDF2" stroke-opacity="0.75" stroke-width="0.212983"/>
<path d="M37.7683 53.9343C36.642 54.1184 35.5876 54.2393 34.4192 54.375C33.4945 53.8034 32.6839 53.2172 31.7834 52.6032C31.2226 52.0389 30.7517 51.5024 30.1699 50.8454C30.0073 50.5883 29.9557 50.4516 29.9986 50.2812C30.1341 49.8132 30.3906 49.2093 30.1645 48.9856C29.8455 48.6699 29.1693 48.6355 28.5712 48.3979C28.0841 47.5753 27.6716 46.8357 27.2305 46.0449C28.2782 45.6487 29.118 45.3312 30.007 44.9853C30.1167 44.9108 30.7331 44.6748 30.7331 44.6748C30.7331 44.6748 32.49 43.9414 32.3403 44.0019C33.079 44.81 32.4953 46.2035 33.2455 46.8848C33.3769 47.0041 33.753 46.9137 34.016 46.9202C33.9555 46.6719 33.9801 46.3633 33.8193 46.186C33.2028 45.506 32.5268 44.868 31.9646 44.1585C32.8637 43.6583 33.6713 43.214 34.5129 42.8584C34.5986 43.1287 34.6503 43.3104 34.5924 43.5187C33.4968 43.8535 33.2301 44.5108 33.6951 45.2394C34.3194 46.2176 35.2583 46.151 36.2912 45.5694C36.9205 46.0912 37.4688 46.5669 38.07 47.1206C39.4264 48.1346 40.1153 49.3464 40.1942 50.832C39.4096 51.8451 38.6249 52.8582 37.7683 53.9343ZM32.198 46.8644C31.5646 46.1724 30.7644 46.3688 30.3708 46.92C30.1131 47.2809 30.2992 48.0338 30.5669 48.4782C30.7124 48.7196 31.6131 48.8948 31.8777 48.7296C32.4967 48.3432 33.0856 47.7599 32.198 46.8644Z" fill="#EEEDF2"/>
<path d="M34.446 43.0052C34.4994 43.1846 34.5224 43.3079 34.4984 43.4367C33.9705 43.608 33.6185 43.8609 33.4613 44.1819C33.2955 44.5205 33.3588 44.907 33.6049 45.2926C33.9335 45.8075 34.3548 46.0589 34.8363 46.0949C35.289 46.1286 35.7792 45.9688 36.2799 45.6965C36.8841 46.1986 37.4162 46.6603 37.9974 47.1955L37.9976 47.1965L38.0075 47.2034C39.3288 48.1912 39.9973 49.3626 40.0837 50.7961C39.3142 51.7895 38.5436 52.7824 37.7055 53.836C36.6096 54.0138 35.5799 54.1328 34.4404 54.265C33.5351 53.7034 32.7392 53.1293 31.8494 52.5224C31.2972 51.9661 30.8319 51.436 30.2553 50.7849C30.099 50.5365 30.0711 50.4345 30.1023 50.3104C30.1669 50.0879 30.2685 49.8078 30.3217 49.5686C30.3489 49.4463 30.3664 49.3245 30.3599 49.2151C30.3535 49.1061 30.3231 48.9954 30.2394 48.9126C30.0561 48.7312 29.7785 48.6381 29.4967 48.5608C29.216 48.4839 28.9229 48.4198 28.6419 48.3123C28.1861 47.5416 27.795 46.8423 27.382 46.1018C28.3791 45.7248 29.1918 45.4178 30.0501 45.0839L30.0611 45.0796L30.0703 45.0727C30.0889 45.0601 30.1398 45.0351 30.2149 45.0016C30.2866 44.9697 30.3726 44.9335 30.456 44.8995C30.5392 44.8656 30.6193 44.8344 30.6785 44.8112C30.7081 44.7997 30.7328 44.79 30.7497 44.7834C30.758 44.7802 30.7646 44.7781 30.769 44.7764C30.7713 44.7755 30.7734 44.7747 30.7745 44.7743L30.7764 44.7739L30.7791 44.7723L30.78 44.7721C30.7808 44.7718 30.7821 44.771 30.7836 44.7704C30.7869 44.769 30.7926 44.7668 30.7991 44.7642C30.8119 44.7588 30.8307 44.7505 30.8543 44.7407C30.9021 44.7207 30.9704 44.6925 31.0514 44.6587C31.2136 44.5909 31.4285 44.5014 31.6386 44.4136C31.7411 44.3708 31.8425 44.3279 31.9361 44.2887C32.1589 44.5646 32.3993 44.8312 32.6453 45.0939C32.6601 45.2239 32.6712 45.3578 32.6815 45.4938C32.7014 45.7592 32.7219 46.0328 32.7871 46.2828C32.8528 46.5348 32.9662 46.7717 33.1748 46.9611C33.2322 47.0131 33.3068 47.0349 33.3734 47.0446C33.4417 47.0545 33.5175 47.0538 33.5911 47.0502C33.6648 47.0467 33.7443 47.0398 33.8163 47.0343C33.8902 47.0286 33.9583 47.0238 34.0181 47.0253L34.1519 47.0294L34.1204 46.9001C34.1068 46.844 34.0978 46.7828 34.0891 46.7169C34.0807 46.6527 34.0719 46.5815 34.0608 46.514C34.0387 46.3806 34.0012 46.2315 33.8978 46.1175C33.552 45.736 33.1955 45.373 32.85 45.0063C32.8038 44.6506 32.713 44.2949 32.4748 43.9998C33.1569 43.6241 33.7933 43.2881 34.446 43.0052ZM31.1798 46.3208C30.8173 46.3556 30.4928 46.5605 30.2815 46.8564C30.1292 47.0697 30.1167 47.3829 30.1659 47.6805C30.2159 47.9824 30.3339 48.2947 30.475 48.5289C30.5306 48.6213 30.6431 48.6898 30.7557 48.7392C30.8741 48.7911 31.017 48.8327 31.1612 48.8605C31.3056 48.8883 31.4563 48.9024 31.5896 48.8991C31.7186 48.8959 31.8479 48.8758 31.9381 48.8196C32.2492 48.6253 32.5775 48.3677 32.7037 48.028C32.7681 47.8544 32.7788 47.6619 32.7115 47.4521C32.6615 47.2962 32.5694 47.1337 32.4295 46.9645L32.2733 46.7923C31.9359 46.4254 31.5449 46.286 31.1798 46.3208ZM32.3097 44.1311C32.448 44.3035 32.5306 44.501 32.5821 44.7175C32.4291 44.5493 32.2795 44.3793 32.1365 44.2041C32.158 44.1951 32.179 44.1873 32.1984 44.1792C32.2418 44.161 32.2791 44.1439 32.3097 44.1311Z" stroke="#EEEDF2" stroke-opacity="0.75" stroke-width="0.212983"/>
<path d="M26.1071 10.8577C25.4915 10.3498 24.8759 9.84181 24.1814 9.28001C24.0936 9.11777 24.0848 9.00936 24.059 8.8211C24.5229 8.20805 25.0228 8.11521 25.6173 8.6202C26.2015 9.1164 26.8264 9.57533 27.5251 10.0779C28.4488 10.748 29.3323 11.3482 30.085 12.0566C30.3528 12.3086 30.3029 12.8234 30.3981 13.2183C29.9766 13.1743 29.5204 13.2037 29.1429 13.0669C28.7163 12.9123 28.3604 12.6084 27.8261 12.3019C27.1546 11.7756 26.6309 11.3166 26.1071 10.8577Z" fill="#EEEDF2"/>
<path d="M24.8092 8.40559C25.0234 8.37502 25.2652 8.45812 25.5489 8.69903C25.9899 9.07368 26.4539 9.42668 26.953 9.79193L27.4641 10.1619C28.392 10.8351 29.2665 11.4294 30.0123 12.1312C30.1165 12.2293 30.1672 12.3878 30.1998 12.5956C30.2158 12.6977 30.2267 12.8035 30.2399 12.9138C30.2474 12.9764 30.2562 13.04 30.2667 13.103C30.0953 13.0905 29.9174 13.0837 29.757 13.0723C29.5457 13.0572 29.3497 13.0314 29.176 12.9685C28.9752 12.8957 28.7883 12.7866 28.5807 12.654C28.3787 12.5249 28.1545 12.372 27.89 12.2195C27.2219 11.6957 26.7005 11.2391 26.177 10.7804L26.1744 10.778L24.2666 9.21568C24.2041 9.09451 24.192 9.00965 24.171 8.85406C24.3874 8.57791 24.5993 8.43556 24.8092 8.40559Z" stroke="#EEEDF2" stroke-opacity="0.75" stroke-width="0.212983"/>
<path d="M20.9444 51.5306C21.2259 50.3631 21.5091 49.2889 21.7831 48.2129C21.9504 47.5563 22.2581 47.1613 23.1581 47.7807C22.8871 49.7137 22.529 51.4878 22.059 53.2938C21.6397 53.3666 21.3323 53.4075 21.0249 53.4484C20.9973 52.84 20.9698 52.2316 20.9444 51.5306Z" fill="#EEEDF2"/>
<path d="M22.2472 47.613C22.3949 47.5404 22.6328 47.5604 23.0413 47.8292C22.7752 49.7095 22.4257 51.4403 21.9702 53.1996C21.6394 53.256 21.3788 53.2925 21.127 53.3262C21.1015 52.7625 21.0751 52.1938 21.0515 51.5462C21.3318 50.3846 21.614 49.3161 21.8873 48.2432C21.9282 48.0829 21.9765 47.9436 22.037 47.8345C22.0974 47.7259 22.1667 47.6526 22.2472 47.613Z" stroke="#EEEDF2" stroke-opacity="0.75" stroke-width="0.212983"/>
<path d="M34.0615 23.4997C37.4318 23.8589 35.1823 25.5712 33.8062 26.4808C33.4037 26.2204 32.869 25.6353 32.509 25.3689C32.0705 25.0444 31.3892 24.7296 31.3164 24.3348C31.2425 23.9345 31.7261 23.4032 32.0773 23.0057C32.2565 22.803 32.6116 22.3862 33.0568 22.3429C33.3464 22.6667 33.9036 23.2435 34.0615 23.4997Z" fill="#EEEDF2"/>
<path d="M33.0199 22.4576C33.1608 22.6133 33.3578 22.8246 33.5292 23.0147C33.7261 23.2334 33.898 23.4333 33.9707 23.551L33.9992 23.599L34.0549 23.6044C34.8951 23.694 35.3526 23.8664 35.5647 24.0641C35.6661 24.1586 35.7107 24.2583 35.7174 24.3629C35.7243 24.4711 35.6908 24.5941 35.6176 24.7312C35.4705 25.007 35.1785 25.3082 34.8289 25.6005C34.5017 25.874 34.1315 26.1328 33.8033 26.3514C33.6253 26.2261 33.4202 26.0435 33.2135 25.852C33.044 25.695 32.8721 25.5325 32.7181 25.4028L32.5711 25.2856C32.4579 25.2018 32.3296 25.1195 32.2034 25.0385C32.0761 24.9568 31.9506 24.8764 31.8365 24.7943C31.7222 24.712 31.6239 24.6305 31.5508 24.5492C31.4778 24.4679 31.4355 24.3922 31.4222 24.3203C31.3934 24.1639 31.4738 23.9613 31.6285 23.73C31.7795 23.5044 31.9824 23.2775 32.1595 23.0772C32.2502 22.9746 32.3786 22.8256 32.5378 22.6968C32.683 22.5794 32.8465 22.4879 33.0199 22.4576Z" stroke="#EEEDF2" stroke-opacity="0.75" stroke-width="0.212983"/>
<path d="M27.6881 28.0979C28.2387 28.14 28.8154 28.2834 29.4966 28.4055C30.0631 29.7222 30.5253 31.0603 31.0594 32.6067C28.0011 33.2434 25.0487 33.8581 21.959 34.4808C21.6831 34.1498 21.5445 33.8108 21.3577 33.354C21.9044 33.5294 22.335 33.6676 23.1749 33.9371C22.8688 33.2356 22.7024 32.8541 22.4981 32.3846C22.9423 32.1793 23.4244 32.0621 24.028 31.9187C24.5076 31.9065 25.1157 32.0292 25.1802 31.9154C25.4478 31.4428 25.5513 30.8988 25.7745 30.3057C27.4689 30.3428 27.998 29.7713 27.6881 28.0979Z" fill="#EEEDF2"/>
<path d="M27.8148 28.2153C28.302 28.2658 28.8115 28.3862 29.4204 28.4973C29.9611 29.7607 30.4086 31.0466 30.9195 32.5257C28.3732 33.0558 25.8982 33.5693 23.3545 34.0867L23.2737 33.8988C22.9883 33.2449 22.8234 32.8695 22.637 32.4413C23.0433 32.2663 23.4877 32.1568 24.0466 32.024C24.2769 32.0192 24.535 32.0458 24.7571 32.0609C24.867 32.0683 24.9709 32.0725 25.0524 32.0673C25.0929 32.0647 25.1336 32.0593 25.1691 32.048C25.2025 32.0373 25.2483 32.0164 25.2747 31.9701C25.4135 31.7249 25.5086 31.4627 25.5963 31.192C25.6783 30.9388 25.7533 30.6809 25.8517 30.4108C26.6636 30.4202 27.238 30.2868 27.5656 29.9141C27.8857 29.5498 27.942 28.9887 27.8148 28.2153ZM23.1456 34.0373L23.3211 34.0936C22.8825 34.1828 22.4425 34.2744 21.9991 34.3639C21.8021 34.1135 21.6795 33.8544 21.541 33.5224C21.9965 33.6686 22.4171 33.8035 23.1456 34.0373Z" stroke="#EEEDF2" stroke-opacity="0.75" stroke-width="0.212983"/>
<path d="M20.5271 13.4387C21.49 13.5271 22.4529 13.6155 23.5898 13.745C24.6312 13.97 25.4986 14.154 26.3661 14.338C26.5667 14.6703 26.7673 15.0026 26.968 15.3349C26.5609 15.4831 26.1539 15.6314 25.6521 15.8063C24.2807 15.5114 22.9844 15.2372 21.7365 14.8455C21.218 14.6828 20.8028 14.269 20.3188 13.8836C20.2969 13.7978 20.2741 13.7704 20.3279 13.7359C20.4301 13.6138 20.4786 13.5263 20.5271 13.4387Z" fill="#EEEDF2"/>
<path d="M20.5879 13.5499C21.5276 13.6362 22.4701 13.7222 23.5776 13.8483C24.5968 14.0686 25.4494 14.2502 26.2987 14.4303C26.3907 14.5827 26.4829 14.7349 26.5749 14.8872C26.6532 15.0169 26.7311 15.1471 26.8094 15.2768C26.4479 15.4084 26.0799 15.5423 25.6388 15.6963C24.2778 15.4037 22.9974 15.1318 21.7651 14.745C21.5235 14.6692 21.3019 14.5334 21.0774 14.3648C20.8571 14.1995 20.6501 14.0173 20.412 13.8262C20.4103 13.8203 20.4092 13.8148 20.4079 13.8101L20.4117 13.8053C20.4968 13.7037 20.5463 13.6227 20.5879 13.5499Z" stroke="#EEEDF2" stroke-opacity="0.75" stroke-width="0.212983"/>
<path d="M58.8014 22.7017C58.7847 22.6366 58.7681 22.5715 58.7474 22.4062C58.0717 21.0351 61.4675 22.0553 61.0175 23.4432C61.2412 24.4626 60.2722 24.8719 59.1771 25.1375C58.993 24.4107 58.9274 23.6617 58.8278 22.803C58.7938 22.6934 58.8014 22.7017 58.8014 22.7017Z" fill="#EEEDF2"/>
<path d="M58.9201 21.8944C59.1009 21.8313 59.4178 21.8635 59.7643 21.9893C60.1059 22.1133 60.4501 22.3186 60.6791 22.5709C60.9062 22.8211 61.0123 23.1069 60.9147 23.4077L60.9063 23.4334L60.9125 23.4611C60.9644 23.6977 60.9464 23.8929 60.8787 24.0574C60.8107 24.2226 60.6894 24.3641 60.5244 24.4877C60.2134 24.7206 59.758 24.8778 59.2546 25.0057C59.0931 24.3222 59.029 23.6143 58.934 22.7954L58.9334 22.7855L58.93 22.7762L58.908 22.6989C58.9083 22.701 58.9088 22.7123 58.9061 22.7263C58.9047 22.7334 58.9003 22.7531 58.8846 22.7717C58.876 22.7818 58.8628 22.7907 58.8461 22.7977L58.827 22.8016C58.816 22.766 58.8117 22.7425 58.8079 22.7277L58.9053 22.6805C58.8895 22.6189 58.8742 22.5576 58.8542 22.3975L58.8517 22.38L58.8434 22.3638C58.7646 22.2039 58.7556 22.098 58.7736 22.0318C58.7901 21.9708 58.8351 21.9241 58.9201 21.8944Z" stroke="#EEEDF2" stroke-opacity="0.75" stroke-width="0.212983"/>
<path d="M32.5766 46.5772C33.6334 47.5256 32.8288 48.2358 31.992 48.7135C31.6342 48.9178 30.4449 48.738 30.2611 48.4562C29.9228 47.9374 29.7049 47.0501 30.0611 46.614C30.6051 45.9479 31.6753 45.6899 32.5766 46.5772Z" fill="#EEEDF2"/>
<path d="M31.1985 46.1181C31.6121 46.0841 32.073 46.2279 32.5017 46.6498L32.5019 46.6507L32.5058 46.6539C32.76 46.8821 32.8928 47.0871 32.9454 47.2685C32.9973 47.4475 32.9743 47.6143 32.8969 47.773C32.7377 48.099 32.3525 48.383 31.9348 48.6214C31.8673 48.66 31.7466 48.6867 31.5865 48.694C31.4302 48.701 31.2494 48.6896 31.0727 48.6631C30.8957 48.6366 30.7264 48.5952 30.5927 48.5453C30.5259 48.5204 30.4702 48.4941 30.4278 48.4678C30.3842 48.4408 30.3607 48.4178 30.3504 48.402C30.19 48.1559 30.0564 47.8189 30.0065 47.4928C29.9561 47.1635 29.9939 46.8676 30.1456 46.6819C30.4022 46.3678 30.7816 46.1524 31.1985 46.1181Z" stroke="#EEEDF2" stroke-opacity="0.75" stroke-width="0.212983"/>
<path d="M34.5961 43.5197C35.1442 44.054 35.5826 44.615 36.1023 45.2434C36.1835 45.3108 36.362 45.7469 36.3746 45.7997C35.4353 46.4802 34.3231 46.2187 33.6988 45.2404C33.2338 44.5118 33.5004 43.8546 34.5961 43.5197Z" fill="#EEEDF2"/>
<path d="M34.5707 43.6419C35.0904 44.1562 35.5141 44.6952 36.0205 45.3075L36.0268 45.3162L36.0354 45.3224C36.0332 45.3206 36.0372 45.3247 36.0482 45.3407C36.0581 45.3551 36.0701 45.3746 36.0832 45.3983C36.1096 45.4459 36.1385 45.5061 36.166 45.5669C36.1934 45.6271 36.2194 45.6867 36.2386 45.7345C36.2413 45.7412 36.2433 45.7479 36.2456 45.754C35.8146 46.0446 35.3575 46.1301 34.9377 46.0393C34.4975 45.9439 34.087 45.6541 33.7888 45.1869C33.5703 44.8443 33.5343 44.5378 33.6593 44.282C33.7823 44.0307 34.0735 43.8044 34.5707 43.6419Z" stroke="#EEEDF2" stroke-opacity="0.75" stroke-width="0.212983"/>
<path d="M31.0102 44.7137C31.1977 44.5003 33.461 43.3999 33.7016 43.3644C34.4514 44.0193 34.2955 46.6395 34.912 47.3196C35.0728 47.4969 34.2065 47.6019 34.2671 47.8502C34.004 47.8437 33.3225 47.0536 33.1911 46.9343C32.4409 46.253 31.7489 45.5218 31.0102 44.7137Z" fill="#EEEDF2"/>
<path d="M33.675 43.4846C33.8153 43.632 33.9263 43.8739 34.0168 44.1874C34.1151 44.5286 34.1847 44.9327 34.2507 45.3442C34.3163 45.7528 34.3792 46.1698 34.4641 46.5262C34.5434 46.859 34.6471 47.1598 34.8063 47.3548C34.7588 47.3864 34.6797 47.4192 34.5812 47.4606C34.489 47.4994 34.3815 47.5455 34.3014 47.5997C34.2626 47.626 34.2158 47.6636 34.1861 47.7136C34.1523 47.6954 34.1126 47.6707 34.069 47.6381C33.972 47.5657 33.8624 47.4665 33.754 47.3612C33.646 47.2563 33.5412 47.1476 33.455 47.0569C33.3713 46.9689 33.2987 46.8919 33.2618 46.8584C32.5415 46.2043 31.8752 45.5023 31.1658 44.728C31.1838 44.7157 31.2051 44.7015 31.2302 44.6857C31.3082 44.6366 31.4114 44.5765 31.5317 44.51C31.7722 44.3773 32.0788 44.2198 32.3876 44.0672C32.6963 43.9146 33.0065 43.7679 33.254 43.6571C33.3778 43.6016 33.4855 43.5548 33.5689 43.5216C33.6137 43.5038 33.6495 43.4932 33.675 43.4846Z" stroke="#EEEDF2" stroke-opacity="0.75" stroke-width="0.212983"/>
<path d="M55.1343 28.3696C54.898 28.1119 54.6069 27.8791 54.4407 27.5897C54.2707 27.2937 54.2232 26.9423 54.122 26.6151C54.4805 26.6743 54.861 26.6883 55.1885 26.8109C55.3623 26.8759 55.4439 27.1293 55.5671 27.2977C55.6363 27.1999 55.7055 27.1021 55.7746 27.0043C55.6366 26.5259 55.4986 26.0475 55.3606 25.5691C55.9384 25.8249 56.5163 26.0806 57.1931 26.3317C56.9497 27.0712 56.486 28.6657 55.7643 28.7725C55.3477 28.6998 54.8107 28.8189 54.513 28.7733L55.1343 28.3696Z" fill="#EEEDF2"/>
<path d="M55.5237 25.7539C56.0066 25.9671 56.4996 26.1804 57.0584 26.3912C56.9378 26.7625 56.774 27.285 56.56 27.7414C56.4435 27.9897 56.3148 28.2134 56.1742 28.38C56.0357 28.5438 55.8947 28.6406 55.7542 28.6652C55.5372 28.6312 55.2965 28.6429 55.0823 28.6572C55.0072 28.6623 54.9358 28.6666 54.8696 28.6706L55.1959 28.4588L55.2975 28.3927L55.2123 28.3006C55.0939 28.1715 54.9537 28.0399 54.8373 27.9202C54.7162 27.7957 54.61 27.6732 54.534 27.5409C54.4559 27.405 54.4042 27.2537 54.3592 27.091C54.3289 26.9813 54.2974 26.8596 54.2654 26.74C54.3978 26.758 54.5336 26.7756 54.6563 26.7934C54.8345 26.8192 55.0018 26.8526 55.154 26.9095C55.2023 26.9276 55.2491 26.9769 55.3056 27.0677C55.3329 27.1116 55.3583 27.1578 55.3873 27.2085C55.4152 27.2574 55.4462 27.3093 55.481 27.3568L55.5714 27.4808L55.6559 27.3603C55.725 27.2625 55.7945 27.1651 55.8637 27.0674L55.8916 27.0276L55.8781 26.9795C55.7602 26.5709 55.6416 26.1625 55.5237 25.7539Z" stroke="#EEEDF2" stroke-opacity="0.75" stroke-width="0.212983"/>
<path d="M51.7037 27.5842C52.5601 27.0664 53.2551 26.9513 53.6949 27.9886C53.7983 28.2326 54.4931 28.2779 55.0248 28.3926C55.1338 28.3705 55.1341 28.3688 55.1426 28.4653C54.8999 29.4682 54.2309 29.4813 53.4129 29.219C53.0827 29.1131 52.9765 29.3186 52.6363 29.2363C52.378 29.1739 52.1221 28.7273 51.941 28.5562C51.832 28.2334 51.7682 27.9612 51.7037 27.5842Z" fill="#EEEDF2"/>
<path d="M51.8216 27.6417C52.2233 27.4057 52.5647 27.2775 52.8485 27.308C53.128 27.3382 53.385 27.5269 53.5963 28.0253C53.6388 28.1255 53.7335 28.1904 53.8294 28.2344C53.9285 28.2798 54.0513 28.3136 54.1801 28.3421C54.3098 28.3709 54.4525 28.3958 54.5935 28.4199C54.7356 28.4442 54.8762 28.4677 55.0063 28.4957L55.0202 28.4988C54.9013 28.9353 54.7002 29.1384 54.4567 29.2164C54.1908 29.3014 53.8471 29.249 53.4419 29.1191C53.2468 29.0565 53.1135 29.0874 52.9978 29.1166C52.8885 29.1442 52.7989 29.1679 52.6572 29.1336C52.617 29.1238 52.5682 29.0969 52.5116 29.0491C52.4557 29.0018 52.3989 28.9403 52.3411 28.8718C52.283 28.803 52.2284 28.7319 52.1734 28.6631C52.1277 28.6059 52.0798 28.55 52.0347 28.5042C51.9394 28.2181 51.8799 27.97 51.8216 27.6417Z" stroke="#EEEDF2" stroke-opacity="0.75" stroke-width="0.212983"/>
<path d="M52.4299 29.0793C52.739 29.0499 53.0875 29.1124 53.4177 29.2183C54.2357 29.4807 54.9047 29.4675 55.1466 28.4651C55.4358 28.4142 55.6918 28.3486 56.0733 28.5829C55.2498 29.4084 54.386 30.1554 53.2325 31.1529C52.8567 30.1971 52.6589 29.694 52.4299 29.0793Z" fill="#EEEDF2"/>
<path d="M55.2326 28.5581C55.3553 28.536 55.4614 28.5176 55.5754 28.5227C55.6713 28.5269 55.7745 28.5482 55.8942 28.6041C55.131 29.3605 54.3253 30.0623 53.2745 30.9712C52.9615 30.1751 52.7772 29.7036 52.5802 29.1782C52.8352 29.1763 53.1158 29.2309 53.3889 29.3185C53.8015 29.4508 54.2019 29.5229 54.5355 29.4163C54.8655 29.3108 55.1023 29.0397 55.2326 28.5581Z" stroke="#EEEDF2" stroke-opacity="0.75" stroke-width="0.212983"/>
<path d="M24.1319 31.9471C24.375 30.6324 23.5267 30.4485 21.5512 30.7886C21.7918 30.753 21.8734 29.9686 21.8021 29.4463C22.9903 29.5082 24.1314 29.8043 25.3722 29.8788C25.6481 30.0263 25.7338 30.1541 25.76 30.3573C25.5364 30.9515 25.4327 31.4965 25.1646 31.97C25.1 32.084 24.4907 31.961 24.1319 31.9471Z" fill="#EEEDF2"/>
<path d="M21.9202 29.5605C22.4669 29.5961 23.0056 29.6773 23.5554 29.7624C24.1343 29.8519 24.7252 29.9431 25.341 29.9819C25.4615 30.048 25.5326 30.1034 25.5758 30.1587C25.6157 30.2098 25.6369 30.2672 25.6492 30.3452C25.5416 30.6352 25.46 30.9156 25.3767 31.1729C25.2915 31.4358 25.2015 31.6776 25.0765 31.9016C25.0646 31.905 25.0452 31.9095 25.0156 31.9112C24.9524 31.915 24.8654 31.9099 24.7635 31.9008C24.6093 31.8871 24.4174 31.8645 24.2538 31.8511C24.2944 31.5667 24.2852 31.3269 24.2091 31.1304C24.1202 30.9007 23.9495 30.7431 23.7095 30.6491C23.4746 30.5572 23.1736 30.5257 22.8143 30.5359C22.525 30.5441 22.192 30.58 21.8159 30.6379C21.8517 30.5467 21.8814 30.4379 21.8998 30.3208C21.9365 30.0857 21.9418 29.806 21.9202 29.5605Z" stroke="#EEEDF2" stroke-opacity="0.75" stroke-width="0.213373"/>
<path d="M25.8172 30.2821C25.7315 30.1543 25.6459 30.0265 25.481 29.8692C24.999 28.1147 25.5614 27.6247 27.5437 28.055C27.6491 28.0447 27.6486 28.0443 27.6748 28.1458C27.9853 29.8222 27.4552 30.3948 25.8172 30.2821Z" fill="#EEEDF2"/>
<path d="M26.3262 28.0164C26.6368 28.0041 27.0333 28.0518 27.5245 28.1585L27.5415 28.1619L27.568 28.1594C27.7224 28.9932 27.659 29.5126 27.3937 29.8136C27.1349 30.1071 26.6548 30.2258 25.872 30.1784C25.7984 30.0699 25.7155 29.9543 25.5779 29.8192C25.4639 29.3978 25.414 29.0597 25.4286 28.7956C25.4436 28.5277 25.5235 28.3439 25.6616 28.2227C25.8013 28.1001 26.0156 28.0288 26.3262 28.0164Z" stroke="#EEEDF2" stroke-opacity="0.75" stroke-width="0.213373"/>
<path d="M29.2328 27.4428C29.412 27.7004 29.4874 27.9655 29.4726 28.3539C28.8045 28.3337 28.2267 28.19 27.6489 28.0463L27.6495 28.0468C27.3304 27.6848 26.9567 27.3489 26.7117 26.9508C26.5594 26.7034 26.602 26.3616 26.5571 26.0622C26.865 26.1425 27.2182 26.164 27.4715 26.315C28.05 26.6597 28.5796 27.0679 29.2328 27.4428Z" fill="#EEEDF2"/>
<path d="M27.0161 26.2652C27.172 26.299 27.3092 26.3394 27.4193 26.405C27.7051 26.5753 27.9791 26.7612 28.2663 26.9537C28.5451 27.1407 28.8356 27.3327 29.1554 27.5177C29.2951 27.7244 29.363 27.9376 29.365 28.2421C28.7666 28.2118 28.239 28.0842 27.7027 27.951C27.5501 27.78 27.3814 27.6074 27.2316 27.4438C27.0692 27.2666 26.9198 27.0888 26.8029 26.8989C26.7408 26.7977 26.7149 26.6714 26.7013 26.5215C26.6945 26.4468 26.6907 26.371 26.6859 26.291C26.6839 26.2587 26.6793 26.2261 26.6766 26.1931C26.7927 26.2176 26.9117 26.2427 27.0161 26.2652Z" stroke="#EEEDF2" stroke-opacity="0.75" stroke-width="0.213373"/>
<path d="M18.4058 35.7902C18.7642 35.9157 19.0364 35.9817 19.5471 36.1056C19.2536 36.4389 18.8992 36.9553 18.8118 36.9228C18.1261 36.6674 17.444 36.359 16.8661 35.9513C16.6536 35.8014 16.6402 35.3264 16.7044 35.0266C16.7337 34.8898 17.315 34.676 17.3992 34.7419C17.7564 35.0215 18.0212 35.3929 18.4058 35.7902Z" fill="#EEEDF2"/>
<path d="M17.3487 34.8345C17.5133 34.9654 17.6591 35.1188 17.8126 35.2902C17.9687 35.4645 18.1353 35.661 18.3296 35.8617L18.3486 35.8807L18.374 35.8894C18.6958 36.0021 18.9503 36.0663 19.3565 36.1652C19.2399 36.3063 19.1176 36.4593 19.0169 36.5825C18.9489 36.6657 18.8904 36.7343 18.8446 36.7792C18.8302 36.7932 18.817 36.8015 18.808 36.8087C18.1394 36.5577 17.4815 36.2584 16.9258 35.8663C16.8956 35.8449 16.866 35.8066 16.841 35.7481C16.8161 35.6901 16.7986 35.618 16.7884 35.5374C16.7684 35.377 16.779 35.1969 16.8081 35.0579C16.8065 35.0625 16.8066 35.0589 16.8176 35.0479C16.8296 35.036 16.8488 35.0217 16.8749 35.005C16.9276 34.9714 16.999 34.9361 17.0747 34.9065C17.1503 34.8769 17.2256 34.8542 17.2845 34.8428C17.3132 34.8373 17.3347 34.8345 17.3487 34.8345Z" stroke="#EEEDF2" stroke-opacity="0.75" stroke-width="0.213373"/>
<path d="M30.7187 51.4194C30.573 51.4381 30.0295 50.7376 29.7051 50.1105C29.2456 49.4489 28.7446 48.6845 28.3984 48.125C28.3984 48.125 28.6459 48.323 28.692 48.3152C29.2616 48.4835 29.9403 48.539 30.2553 48.8769C30.4785 49.1164 30.8637 50.936 30.7187 51.4194Z" fill="#EEEDF2"/>
<path d="M29.1119 48.5297C29.2615 48.5641 29.4068 48.5963 29.544 48.6341C29.8222 48.7107 30.043 48.8027 30.1772 48.9465C30.1909 48.9612 30.2153 49.0006 30.2463 49.0727C30.2758 49.1415 30.3076 49.2307 30.3396 49.3345C30.4034 49.5418 30.4672 49.8032 30.5196 50.073C30.5721 50.3427 30.6131 50.6186 30.6319 50.8558C30.6444 51.0143 30.6445 51.149 30.636 51.2515C30.6304 51.2464 30.6234 51.2418 30.6174 51.2361C30.5467 51.1687 30.4587 51.0678 30.3632 50.9446C30.1726 50.6985 29.9595 50.3726 29.8007 50.0657L29.7972 50.0594L29.7928 50.0532L29.4444 49.5438C29.1875 49.163 28.9331 48.7742 28.7135 48.429C28.8447 48.466 28.9796 48.4993 29.1119 48.5297Z" stroke="#EEEDF2" stroke-opacity="0.75" stroke-width="0.213373"/>
<path d="M62.2673 20.3248C62.54 20.9026 62.7039 21.5007 62.9191 22.2049C62.9686 22.4289 62.9667 22.5468 62.9592 22.7533C62.2913 23.892 61.0309 22.8532 60.7508 21.9329C60.1448 20.6391 60.4463 19.1606 62.2673 20.3248Z" fill="#EEEDF2"/>
<path d="M60.6921 20.2626C60.7868 20.1018 60.9415 20.0048 61.1786 20.009C61.4189 20.0133 61.7493 20.1227 62.183 20.3958C62.4422 20.9533 62.6021 21.5304 62.8138 22.2233L62.814 22.2242C62.8585 22.4262 62.8576 22.5332 62.851 22.7201C62.6978 22.971 62.5213 23.0922 62.3444 23.1318C62.1605 23.1729 61.9592 23.1299 61.7584 23.0222C61.3528 22.8048 60.9858 22.3403 60.8536 21.9059L60.851 21.8984L60.8474 21.8911C60.7006 21.5776 60.6102 21.2546 60.583 20.9661C60.5556 20.6755 60.5934 20.4302 60.6921 20.2626Z" stroke="#EEEDF2" stroke-opacity="0.75" stroke-width="0.212983"/>
<rect width="5.83631" height="4.7377" transform="matrix(0.98923 -0.146369 0.178217 0.983991 23.3281 26.9551)" fill="#EEEDF2"/>
<rect x="0.206851" y="0.148412" width="5.48195" height="4.38333" transform="matrix(0.98923 -0.146369 0.178217 0.983991 23.3039 26.9877)" stroke="#EEEDF2" stroke-opacity="0.75" stroke-width="0.354365"/>
<rect width="2.91816" height="2.5842" transform="matrix(0.98923 -0.146369 0.178217 0.983991 16.4531 35.3691)" fill="#EEEDF2"/>
<rect x="0.206851" y="0.148412" width="2.56379" height="2.22983" transform="matrix(0.98923 -0.146369 0.178217 0.983991 16.4289 35.4018)" stroke="#EEEDF2" stroke-opacity="0.75" stroke-width="0.354365"/>
<path d="M20.8789 33.0762L21.8312 32.8873L22.2077 34.4175L21.2554 34.6064L20.8789 33.0762Z" fill="#EEEDF2"/>
<path d="M21.6997 33.0938L21.9915 34.2796L21.3861 34.3996L21.0943 33.2138L21.6997 33.0938Z" stroke="#EEEDF2" stroke-opacity="0.75" stroke-width="0.354365"/>
<mask id="path-75-outside-1_1317_2123" maskUnits="userSpaceOnUse" x="53.4961" y="41.7402" width="46" height="10" fill="black">
<rect fill="white" x="53.4961" y="41.7402" width="46" height="10"/>
<path d="M57.8026 50.7812C56.205 50.7812 55.1406 50.5137 54.6093 49.9785C54.082 49.4395 53.8183 48.7637 53.8183 47.9512H56.4901C56.4901 48.4356 56.6171 48.7305 56.871 48.836C57.1288 48.9375 57.4315 48.9883 57.7792 48.9883C58.1307 48.9883 58.4315 48.9532 58.6815 48.8828C58.9354 48.8125 59.0624 48.668 59.0624 48.4493C59.0624 48.1993 58.869 48.0352 58.4823 47.9571C58.0995 47.8789 57.578 47.7891 56.9179 47.6875C55.7187 47.461 54.9023 47.1973 54.4687 46.8965C54.039 46.5958 53.8242 46.0977 53.8242 45.4024C53.8242 44.6798 54.0917 44.0587 54.6269 43.5392C55.162 43.0157 56.203 42.754 57.7499 42.754C59.2889 42.754 60.328 43.0333 60.867 43.5919C61.41 44.1466 61.6815 44.8048 61.6815 45.5665H59.0038C59.0038 45.0899 58.871 44.8009 58.6053 44.6993C58.3397 44.5977 58.0448 44.547 57.7206 44.547C57.3495 44.547 57.037 44.588 56.7831 44.67C56.5331 44.752 56.4081 44.8927 56.4081 45.0919C56.4081 45.377 56.6073 45.5567 57.0058 45.6309C57.4042 45.7012 57.9276 45.7911 58.5761 45.9005C59.8221 46.127 60.6522 46.377 61.0663 46.6504C61.4842 46.92 61.6932 47.3926 61.6932 48.0684C61.6932 48.8145 61.4334 49.4531 60.9139 49.9844C60.3944 50.5156 59.3573 50.7812 57.8026 50.7812ZM62.5874 50.7402V42.8302H66.8881L67.9486 48.8067H67.9662L69.0267 42.8302H73.3275V50.7402H70.6849V44.6642H70.6615L69.5013 50.7109H66.4135L65.2534 44.6642H65.2299V50.7402H62.5874ZM74.0512 50.7402L76.4652 42.8243H80.2327L82.6526 50.7402H79.8987L79.5003 49.0469H77.2093L76.805 50.7402H74.0512ZM77.6371 47.3008H79.0784L78.3695 44.377H78.346L77.6371 47.3008ZM83.3238 50.7402V42.8302H88.4565C89.4292 42.8302 90.0756 43.0802 90.3959 43.5802C90.7162 44.0802 90.8764 44.6778 90.8764 45.3731C90.8764 46.0567 90.7065 46.6309 90.3666 47.0958C90.0268 47.5606 89.353 47.793 88.3452 47.793H86.0073V50.7402H83.3238ZM88.1753 50.7402L86.4058 47.0958L89.0542 47.0079L91.0756 50.7402H88.1753ZM86.0073 46.17H87.56C87.8022 46.17 87.9682 46.1094 88.0581 45.9883C88.1479 45.8634 88.1928 45.67 88.1928 45.4083C88.1928 45.1427 88.146 44.9473 88.0522 44.8224C87.9624 44.6974 87.7983 44.6349 87.56 44.6349H86.0073V46.17ZM93.8078 50.7402V44.6349H91.5109V42.8302H98.7765V44.6349H96.4855V50.7402H93.8078Z"/>
</mask>
<path d="M57.8026 50.7812C56.205 50.7812 55.1406 50.5137 54.6093 49.9785C54.082 49.4395 53.8183 48.7637 53.8183 47.9512H56.4901C56.4901 48.4356 56.6171 48.7305 56.871 48.836C57.1288 48.9375 57.4315 48.9883 57.7792 48.9883C58.1307 48.9883 58.4315 48.9532 58.6815 48.8828C58.9354 48.8125 59.0624 48.668 59.0624 48.4493C59.0624 48.1993 58.869 48.0352 58.4823 47.9571C58.0995 47.8789 57.578 47.7891 56.9179 47.6875C55.7187 47.461 54.9023 47.1973 54.4687 46.8965C54.039 46.5958 53.8242 46.0977 53.8242 45.4024C53.8242 44.6798 54.0917 44.0587 54.6269 43.5392C55.162 43.0157 56.203 42.754 57.7499 42.754C59.2889 42.754 60.328 43.0333 60.867 43.5919C61.41 44.1466 61.6815 44.8048 61.6815 45.5665H59.0038C59.0038 45.0899 58.871 44.8009 58.6053 44.6993C58.3397 44.5977 58.0448 44.547 57.7206 44.547C57.3495 44.547 57.037 44.588 56.7831 44.67C56.5331 44.752 56.4081 44.8927 56.4081 45.0919C56.4081 45.377 56.6073 45.5567 57.0058 45.6309C57.4042 45.7012 57.9276 45.7911 58.5761 45.9005C59.8221 46.127 60.6522 46.377 61.0663 46.6504C61.4842 46.92 61.6932 47.3926 61.6932 48.0684C61.6932 48.8145 61.4334 49.4531 60.9139 49.9844C60.3944 50.5156 59.3573 50.7812 57.8026 50.7812ZM62.5874 50.7402V42.8302H66.8881L67.9486 48.8067H67.9662L69.0267 42.8302H73.3275V50.7402H70.6849V44.6642H70.6615L69.5013 50.7109H66.4135L65.2534 44.6642H65.2299V50.7402H62.5874ZM74.0512 50.7402L76.4652 42.8243H80.2327L82.6526 50.7402H79.8987L79.5003 49.0469H77.2093L76.805 50.7402H74.0512ZM77.6371 47.3008H79.0784L78.3695 44.377H78.346L77.6371 47.3008ZM83.3238 50.7402V42.8302H88.4565C89.4292 42.8302 90.0756 43.0802 90.3959 43.5802C90.7162 44.0802 90.8764 44.6778 90.8764 45.3731C90.8764 46.0567 90.7065 46.6309 90.3666 47.0958C90.0268 47.5606 89.353 47.793 88.3452 47.793H86.0073V50.7402H83.3238ZM88.1753 50.7402L86.4058 47.0958L89.0542 47.0079L91.0756 50.7402H88.1753ZM86.0073 46.17H87.56C87.8022 46.17 87.9682 46.1094 88.0581 45.9883C88.1479 45.8634 88.1928 45.67 88.1928 45.4083C88.1928 45.1427 88.146 44.9473 88.0522 44.8224C87.9624 44.6974 87.7983 44.6349 87.56 44.6349H86.0073V46.17ZM93.8078 50.7402V44.6349H91.5109V42.8302H98.7765V44.6349H96.4855V50.7402H93.8078Z" fill="#EEEDF2"/>
<path d="M54.6093 49.9785L54.5567 50.03L54.5571 50.0304L54.6093 49.9785ZM53.8183 47.9512V47.8776H53.7447V47.9512H53.8183ZM56.4901 47.9512H56.5637V47.8776H56.4901V47.9512ZM56.871 48.836L56.8428 48.9039L56.844 48.9044L56.871 48.836ZM58.6815 48.8828L58.6619 48.8119L58.6616 48.812L58.6815 48.8828ZM58.4823 47.9571L58.4676 48.0292L58.4677 48.0292L58.4823 47.9571ZM56.9179 47.6875L56.9042 47.7599L56.9067 47.7603L56.9179 47.6875ZM54.4687 46.8965L54.4265 46.9568L54.4268 46.957L54.4687 46.8965ZM54.6269 43.5392L54.6781 43.592L54.6783 43.5918L54.6269 43.5392ZM60.867 43.5919L60.8141 43.643L60.8145 43.6434L60.867 43.5919ZM61.6815 45.5665V45.6401H61.755V45.5665H61.6815ZM59.0038 45.5665H58.9302V45.6401H59.0038V45.5665ZM56.7831 44.67L56.7605 44.6L56.7602 44.6001L56.7831 44.67ZM57.0058 45.6309L56.9923 45.7033L56.993 45.7034L57.0058 45.6309ZM58.5761 45.9005L58.5892 45.8281L58.5883 45.8279L58.5761 45.9005ZM61.0663 46.6504L61.0257 46.7118L61.0264 46.7123L61.0663 46.6504ZM60.9139 49.9844L60.8613 49.9329L60.9139 49.9844ZM57.8026 50.7812V50.7077C57.0074 50.7077 56.3484 50.641 55.824 50.5092C55.2992 50.3773 54.9144 50.1814 54.6615 49.9267L54.6093 49.9785L54.5571 50.0304C54.8355 50.3108 55.2485 50.5163 55.7881 50.6519C56.3282 50.7877 57.0002 50.8548 57.8026 50.8548V50.7812ZM54.6093 49.9785L54.6619 49.9271C54.1491 49.4029 53.8919 48.7461 53.8919 47.9512H53.8183H53.7447C53.7447 48.7813 54.0148 49.476 54.5567 50.03L54.6093 49.9785ZM53.8183 47.9512V48.0248H56.4901V47.9512V47.8776H53.8183V47.9512ZM56.4901 47.9512H56.4166C56.4166 48.441 56.5444 48.78 56.8428 48.9039L56.871 48.836L56.8992 48.768C56.6898 48.681 56.5637 48.4301 56.5637 47.9512H56.4901ZM56.871 48.836L56.844 48.9044C57.1123 49.0101 57.4246 49.0619 57.7792 49.0619V48.9883V48.9147C57.4385 48.9147 57.1453 48.865 56.898 48.7675L56.871 48.836ZM57.7792 48.9883V49.0619C58.1353 49.0619 58.4431 49.0263 58.7014 48.9537L58.6815 48.8828L58.6616 48.812C58.4199 48.88 58.1262 48.9147 57.7792 48.9147V48.9883ZM58.6815 48.8828L58.7012 48.9537C58.837 48.9161 58.9466 48.8566 59.0224 48.7703C59.0993 48.6827 59.1359 48.5739 59.1359 48.4493H59.0624H58.9888C58.9888 48.5434 58.9619 48.6162 58.9119 48.6732C58.8608 48.7314 58.78 48.7792 58.6619 48.8119L58.6815 48.8828ZM59.0624 48.4493H59.1359C59.1359 48.3023 59.0778 48.1784 58.965 48.0826C58.8549 47.9893 58.6963 47.9252 58.4969 47.885L58.4823 47.9571L58.4677 48.0292C58.6551 48.067 58.7864 48.1241 58.8698 48.1948C58.9502 48.2631 58.9888 48.3462 58.9888 48.4493H59.0624ZM58.4823 47.9571L58.497 47.885C58.1125 47.8065 57.5897 47.7165 56.9291 47.6148L56.9179 47.6875L56.9067 47.7603C57.5664 47.8617 58.0865 47.9514 58.4676 48.0292L58.4823 47.9571ZM56.9179 47.6875L56.9315 47.6153C55.7326 47.3887 54.9302 47.1271 54.5106 46.8361L54.4687 46.8965L54.4268 46.957C54.8744 47.2675 55.7048 47.5332 56.9042 47.7598L56.9179 47.6875ZM54.4687 46.8965L54.5109 46.8363C54.107 46.5535 53.8977 46.0823 53.8977 45.4024H53.8242H53.7506C53.7506 46.1131 53.971 46.638 54.4265 46.9568L54.4687 46.8965ZM53.8242 45.4024H53.8977C53.8977 44.7004 54.1567 44.0981 54.6781 43.592L54.6269 43.5392L54.5756 43.4864C54.0267 44.0193 53.7506 44.6592 53.7506 45.4024H53.8242ZM54.6269 43.5392L54.6783 43.5918C54.9334 43.3423 55.3139 43.1506 55.8269 43.0217C56.3396 42.8928 56.9801 42.8276 57.7499 42.8276V42.754V42.6805C56.9728 42.6805 56.3194 42.7461 55.7911 42.879C55.2631 43.0117 54.8555 43.2126 54.5754 43.4866L54.6269 43.5392ZM57.7499 42.754V42.8276C59.2862 42.8276 60.2975 43.1077 60.8141 43.643L60.867 43.5919L60.92 43.5408C60.3585 42.959 59.2917 42.6805 57.7499 42.6805V42.754ZM60.867 43.5919L60.8145 43.6434C61.3442 44.1846 61.6079 44.8244 61.6079 45.5665H61.6815H61.755C61.755 44.7851 61.4757 44.1086 60.9196 43.5404L60.867 43.5919ZM61.6815 45.5665V45.4929H59.0038V45.5665V45.6401H61.6815V45.5665ZM59.0038 45.5665H59.0774C59.0774 45.0824 58.9424 44.7494 58.6316 44.6306L58.6053 44.6993L58.5791 44.768C58.7996 44.8523 58.9302 45.0975 58.9302 45.5665H59.0038ZM58.6053 44.6993L58.6316 44.6306C58.3565 44.5254 58.0525 44.4734 57.7206 44.4734V44.547V44.6205C58.0371 44.6205 58.3229 44.6701 58.5791 44.768L58.6053 44.6993ZM57.7206 44.547V44.4734C57.3446 44.4734 57.0239 44.5149 56.7605 44.6L56.7831 44.67L56.8057 44.74C57.0501 44.6611 57.3544 44.6205 57.7206 44.6205V44.547ZM56.7831 44.67L56.7602 44.6001C56.6275 44.6436 56.5208 44.705 56.4469 44.7881C56.3717 44.8727 56.3345 44.9754 56.3345 45.0919H56.4081H56.4817C56.4817 45.0091 56.5071 44.9419 56.5569 44.8859C56.6079 44.8284 56.6887 44.7784 56.806 44.7399L56.7831 44.67ZM56.4081 45.0919H56.3345C56.3345 45.2538 56.3921 45.3904 56.5083 45.4951C56.6218 45.5976 56.7861 45.6648 56.9923 45.7033L57.0058 45.6309L57.0192 45.5586C56.827 45.5228 56.6924 45.4631 56.6068 45.3859C56.5237 45.3109 56.4817 45.2151 56.4817 45.0919H56.4081ZM57.0058 45.6309L56.993 45.7034C57.3917 45.7737 57.9153 45.8636 58.5638 45.973L58.5761 45.9005L58.5883 45.8279C57.9399 45.7186 57.4167 45.6287 57.0185 45.5585L57.0058 45.6309ZM58.5761 45.9005L58.5629 45.9728C59.1843 46.0858 59.7005 46.2044 60.1119 46.3283C60.5244 46.4526 60.8275 46.5809 61.0257 46.7118L61.0663 46.6504L61.1068 46.5891C60.8909 46.4465 60.572 46.3132 60.1544 46.1874C59.7358 46.0614 59.2139 45.9416 58.5892 45.8281L58.5761 45.9005ZM61.0663 46.6504L61.0264 46.7123C61.4162 46.9636 61.6196 47.4077 61.6196 48.0684H61.6932H61.7668C61.7668 47.3776 61.5523 46.8763 61.1061 46.5886L61.0663 46.6504ZM61.6932 48.0684H61.6196C61.6196 48.7953 61.3673 49.4155 60.8613 49.9329L60.9139 49.9844L60.9665 50.0358C61.4995 49.4908 61.7668 48.8336 61.7668 48.0684H61.6932ZM60.9139 49.9844L60.8613 49.9329C60.6142 50.1856 60.2391 50.3799 59.7282 50.5108C59.2176 50.6415 58.5763 50.7077 57.8026 50.7077V50.7812V50.8548C58.5836 50.8548 59.2382 50.7882 59.7647 50.6533C60.2909 50.5185 60.6941 50.3144 60.9665 50.0358L60.9139 49.9844ZM62.5874 50.7402H62.5138V50.8138H62.5874V50.7402ZM62.5874 42.8302V42.7566H62.5138V42.8302H62.5874ZM66.8881 42.8302L66.9605 42.8173L66.9498 42.7566H66.8881V42.8302ZM67.9486 48.8067L67.8762 48.8195L67.887 48.8802H67.9486V48.8067ZM67.9662 48.8067V48.8802H68.0279L68.0386 48.8195L67.9662 48.8067ZM69.0267 42.8302V42.7566H68.9651L68.9543 42.8173L69.0267 42.8302ZM73.3275 42.8302H73.401V42.7566H73.3275V42.8302ZM73.3275 50.7402V50.8138H73.401V50.7402H73.3275ZM70.6849 50.7402H70.6113V50.8138H70.6849V50.7402ZM70.6849 44.6642H70.7585V44.5906H70.6849V44.6642ZM70.6615 44.6642V44.5906H70.6007L70.5892 44.6503L70.6615 44.6642ZM69.5013 50.7109V50.7845H69.5621L69.5736 50.7248L69.5013 50.7109ZM66.4135 50.7109L66.3412 50.7248L66.3527 50.7845H66.4135V50.7109ZM65.2534 44.6642L65.3256 44.6503L65.3142 44.5906H65.2534V44.6642ZM65.2299 44.6642V44.5906H65.1563V44.6642H65.2299ZM65.2299 50.7402V50.8138H65.3035V50.7402H65.2299ZM62.5874 50.7402H62.6609V42.8302H62.5874H62.5138V50.7402H62.5874ZM62.5874 42.8302V42.9038H66.8881V42.8302V42.7566H62.5874V42.8302ZM66.8881 42.8302L66.8157 42.843L67.8762 48.8195L67.9486 48.8067L68.0211 48.7938L66.9605 42.8173L66.8881 42.8302ZM67.9486 48.8067V48.8802H67.9662V48.8067V48.7331H67.9486V48.8067ZM67.9662 48.8067L68.0386 48.8195L69.0992 42.843L69.0267 42.8302L68.9543 42.8173L67.8938 48.7938L67.9662 48.8067ZM69.0267 42.8302V42.9038H73.3275V42.8302V42.7566H69.0267V42.8302ZM73.3275 42.8302H73.2539V50.7402H73.3275H73.401V42.8302H73.3275ZM73.3275 50.7402V50.6667H70.6849V50.7402V50.8138H73.3275V50.7402ZM70.6849 50.7402H70.7585V44.6642H70.6849H70.6113V50.7402H70.6849ZM70.6849 44.6642V44.5906H70.6615V44.6642V44.7377H70.6849V44.6642ZM70.6615 44.6642L70.5892 44.6503L69.4291 50.6971L69.5013 50.7109L69.5736 50.7248L70.7337 44.678L70.6615 44.6642ZM69.5013 50.7109V50.6374H66.4135V50.7109V50.7845H69.5013V50.7109ZM66.4135 50.7109L66.4857 50.6971L65.3256 44.6503L65.2534 44.6642L65.1811 44.678L66.3412 50.7248L66.4135 50.7109ZM65.2534 44.6642V44.5906H65.2299V44.6642V44.7377H65.2534V44.6642ZM65.2299 44.6642H65.1563V50.7402H65.2299H65.3035V44.6642H65.2299ZM65.2299 50.7402V50.6667H62.5874V50.7402V50.8138H65.2299V50.7402ZM74.0512 50.7402L73.9808 50.7188L73.9518 50.8138H74.0512V50.7402ZM76.4652 42.8243V42.7508H76.4107L76.3948 42.8029L76.4652 42.8243ZM80.2327 42.8243L80.3031 42.8028L80.2872 42.7508H80.2327V42.8243ZM82.6526 50.7402V50.8138H82.752L82.723 50.7187L82.6526 50.7402ZM79.8987 50.7402L79.8271 50.7571L79.8405 50.8138H79.8987V50.7402ZM79.5003 49.0469L79.5719 49.03L79.5586 48.9733H79.5003V49.0469ZM77.2093 49.0469V48.9733H77.1513L77.1378 49.0298L77.2093 49.0469ZM76.805 50.7402V50.8138H76.8631L76.8766 50.7573L76.805 50.7402ZM77.6371 47.3008L77.5656 47.2835L77.5435 47.3744H77.6371V47.3008ZM79.0784 47.3008V47.3744H79.172L79.1499 47.2835L79.0784 47.3008ZM78.3695 44.377L78.441 44.3597L78.4273 44.3035H78.3695V44.377ZM78.346 44.377V44.3035H78.2882L78.2745 44.3597L78.346 44.377ZM74.0512 50.7402L74.1215 50.7617L76.5356 42.8458L76.4652 42.8243L76.3948 42.8029L73.9808 50.7188L74.0512 50.7402ZM76.4652 42.8243V42.8979H80.2327V42.8243V42.7508H76.4652V42.8243ZM80.2327 42.8243L80.1624 42.8458L82.5823 50.7617L82.6526 50.7402L82.723 50.7187L80.3031 42.8028L80.2327 42.8243ZM82.6526 50.7402V50.6667H79.8987V50.7402V50.8138H82.6526V50.7402ZM79.8987 50.7402L79.9704 50.7234L79.5719 49.03L79.5003 49.0469L79.4287 49.0638L79.8271 50.7571L79.8987 50.7402ZM79.5003 49.0469V48.9733H77.2093V49.0469V49.1205H79.5003V49.0469ZM77.2093 49.0469L77.1378 49.0298L76.7335 50.7231L76.805 50.7402L76.8766 50.7573L77.2809 49.064L77.2093 49.0469ZM76.805 50.7402V50.6667H74.0512V50.7402V50.8138H76.805V50.7402ZM77.6371 47.3008V47.3744H79.0784V47.3008V47.2273H77.6371V47.3008ZM79.0784 47.3008L79.1499 47.2835L78.441 44.3597L78.3695 44.377L78.298 44.3944L79.0069 47.3182L79.0784 47.3008ZM78.3695 44.377V44.3035H78.346V44.377V44.4506H78.3695V44.377ZM78.346 44.377L78.2745 44.3597L77.5656 47.2835L77.6371 47.3008L77.7086 47.3182L78.4175 44.3944L78.346 44.377ZM83.3238 50.7402H83.2502V50.8138H83.3238V50.7402ZM83.3238 42.8302V42.7566H83.2502V42.8302H83.3238ZM90.3959 43.5802L90.4579 43.5405L90.4579 43.5405L90.3959 43.5802ZM90.3666 47.0958L90.426 47.1392L90.426 47.1392L90.3666 47.0958ZM86.0073 47.793V47.7194H85.9338V47.793H86.0073ZM86.0073 50.7402V50.8138H86.0809V50.7402H86.0073ZM88.1753 50.7402L88.1091 50.7724L88.1292 50.8138H88.1753V50.7402ZM86.4058 47.0958L86.4033 47.0222L86.2901 47.026L86.3396 47.1279L86.4058 47.0958ZM89.0542 47.0079L89.1188 46.9728L89.0972 46.9328L89.0517 46.9343L89.0542 47.0079ZM91.0756 50.7402V50.8138H91.1991L91.1403 50.7052L91.0756 50.7402ZM86.0073 46.17H85.9338V46.2436H86.0073V46.17ZM88.0581 45.9883L88.1172 46.0322L88.1178 46.0313L88.0581 45.9883ZM88.0522 44.8224L87.9925 44.8653L87.9934 44.8665L88.0522 44.8224ZM86.0073 44.6349V44.5613H85.9338V44.6349H86.0073ZM83.3238 50.7402H83.3973V42.8302H83.3238H83.2502V50.7402H83.3238ZM83.3238 42.8302V42.9038H88.4565V42.8302V42.7566H83.3238V42.8302ZM88.4565 42.8302V42.9038C89.4205 42.9038 90.0342 43.1519 90.334 43.6199L90.3959 43.5802L90.4579 43.5405C90.1171 43.0085 89.4378 42.7566 88.4565 42.7566V42.8302ZM90.3959 43.5802L90.334 43.6199C90.6455 44.1061 90.8028 44.6894 90.8028 45.3731H90.8764H90.95C90.95 44.6662 90.787 44.0542 90.4579 43.5405L90.3959 43.5802ZM90.8764 45.3731H90.8028C90.8028 46.0441 90.6362 46.6023 90.3072 47.0523L90.3666 47.0958L90.426 47.1392C90.7767 46.6595 90.95 46.0693 90.95 45.3731H90.8764ZM90.3666 47.0958L90.3072 47.0523C89.989 47.4877 89.3466 47.7194 88.3452 47.7194V47.793V47.8666C89.3593 47.8666 90.0646 47.6335 90.426 47.1392L90.3666 47.0958ZM88.3452 47.793V47.7194H86.0073V47.793V47.8666H88.3452V47.793ZM86.0073 47.793H85.9338V50.7402H86.0073H86.0809V47.793H86.0073ZM86.0073 50.7402V50.6667H83.3238V50.7402V50.8138H86.0073V50.7402ZM88.1753 50.7402L88.2414 50.7081L86.4719 47.0636L86.4058 47.0958L86.3396 47.1279L88.1091 50.7724L88.1753 50.7402ZM86.4058 47.0958L86.4082 47.1693L89.0566 47.0814L89.0542 47.0079L89.0517 46.9343L86.4033 47.0222L86.4058 47.0958ZM89.0542 47.0079L88.9895 47.0429L91.0109 50.7753L91.0756 50.7402L91.1403 50.7052L89.1188 46.9728L89.0542 47.0079ZM91.0756 50.7402V50.6667H88.1753V50.7402V50.8138H91.0756V50.7402ZM86.0073 46.17V46.2436H87.56V46.17V46.0964H86.0073V46.17ZM87.56 46.17V46.2436C87.8113 46.2436 88.0067 46.181 88.1172 46.0322L88.0581 45.9883L87.999 45.9445C87.9298 46.0378 87.7932 46.0964 87.56 46.0964V46.17ZM88.0581 45.9883L88.1178 46.0313C88.221 45.8877 88.2664 45.6757 88.2664 45.4083H88.1928H88.1193C88.1193 45.6643 88.0748 45.839 87.9983 45.9454L88.0581 45.9883ZM88.1928 45.4083H88.2664C88.2664 45.1368 88.219 44.9221 88.1111 44.7782L88.0522 44.8224L87.9934 44.8665C88.0729 44.9726 88.1193 45.1485 88.1193 45.4083H88.1928ZM88.0522 44.8224L88.112 44.7794C88.002 44.6264 87.8086 44.5613 87.56 44.5613V44.6349V44.7084C87.788 44.7084 87.9228 44.7683 87.9925 44.8653L88.0522 44.8224ZM87.56 44.6349V44.5613H86.0073V44.6349V44.7084H87.56V44.6349ZM86.0073 44.6349H85.9338V46.17H86.0073H86.0809V44.6349H86.0073ZM93.8078 50.7402H93.7342V50.8138H93.8078V50.7402ZM93.8078 44.6349H93.8814V44.5613H93.8078V44.6349ZM91.5109 44.6349H91.4374V44.7084H91.5109V44.6349ZM91.5109 42.8302V42.7566H91.4374V42.8302H91.5109ZM98.7765 42.8302H98.85V42.7566H98.7765V42.8302ZM98.7765 44.6349V44.7084H98.85V44.6349H98.7765ZM96.4855 44.6349V44.5613H96.4119V44.6349H96.4855ZM96.4855 50.7402V50.8138H96.559V50.7402H96.4855ZM93.8078 50.7402H93.8814V44.6349H93.8078H93.7342V50.7402H93.8078ZM93.8078 44.6349V44.5613H91.5109V44.6349V44.7084H93.8078V44.6349ZM91.5109 44.6349H91.5845V42.8302H91.5109H91.4374V44.6349H91.5109ZM91.5109 42.8302V42.9038H98.7765V42.8302V42.7566H91.5109V42.8302ZM98.7765 42.8302H98.7029V44.6349H98.7765H98.85V42.8302H98.7765ZM98.7765 44.6349V44.5613H96.4855V44.6349V44.7084H98.7765V44.6349ZM96.4855 44.6349H96.4119V50.7402H96.4855H96.559V44.6349H96.4855ZM96.4855 50.7402V50.6667H93.8078V50.7402V50.8138H96.4855V50.7402Z" fill="#EEEDF2" fill-opacity="0.75" mask="url(#path-75-outside-1_1317_2123)"/>
<mask id="path-77-outside-2_1317_2123" maskUnits="userSpaceOnUse" x="53.0977" y="54.6621" width="45" height="9" fill="black">
<rect fill="white" x="53.0977" y="54.6621" width="45" height="9"/>
<path d="M56.3681 62.6621L54.0654 54.7521H56.7782L58.1786 60.793H58.1962L59.5848 54.7521H62.2977L60.0008 62.6621H56.3681ZM61.6767 62.6621L64.0907 54.7462H67.8582L70.2781 62.6621H67.5242L67.1258 60.9688H64.8348L64.4305 62.6621H61.6767ZM65.2625 59.2227H66.7039L65.995 56.2989H65.9715L65.2625 59.2227ZM70.9493 62.6621V54.7521H76.082C77.0546 54.7521 77.7011 55.0021 78.0214 55.5021C78.3417 56.002 78.5019 56.5997 78.5019 57.295C78.5019 57.9786 78.332 58.5528 77.9921 59.0176C77.6523 59.4825 76.9785 59.7149 75.9707 59.7149H73.6328V62.6621H70.9493ZM75.8008 62.6621L74.0313 59.0176L76.6796 58.9297L78.7011 62.6621H75.8008ZM73.6328 58.0919H75.1855C75.4277 58.0919 75.5937 58.0313 75.6836 57.9102C75.7734 57.7852 75.8183 57.5919 75.8183 57.3302C75.8183 57.0645 75.7715 56.8692 75.6777 56.7442C75.5879 56.6192 75.4238 56.5567 75.1855 56.5567H73.6328V58.0919ZM79.3262 62.6621V54.7521H83.5683L85.748 60.6407H85.7656L85.789 54.7521H88.455V62.6621H84.2539L82.0156 56.6329H81.9863V62.6621H79.3262ZM89.1879 62.6621L91.6019 54.7462H95.3694L97.7893 62.6621H95.0354L94.637 60.9688H92.346L91.9417 62.6621H89.1879ZM92.7737 59.2227H94.2151L93.5062 56.2989H93.4827L92.7737 59.2227Z"/>
</mask>
<path d="M56.3681 62.6621L54.0654 54.7521H56.7782L58.1786 60.793H58.1962L59.5848 54.7521H62.2977L60.0008 62.6621H56.3681ZM61.6767 62.6621L64.0907 54.7462H67.8582L70.2781 62.6621H67.5242L67.1258 60.9688H64.8348L64.4305 62.6621H61.6767ZM65.2625 59.2227H66.7039L65.995 56.2989H65.9715L65.2625 59.2227ZM70.9493 62.6621V54.7521H76.082C77.0546 54.7521 77.7011 55.0021 78.0214 55.5021C78.3417 56.002 78.5019 56.5997 78.5019 57.295C78.5019 57.9786 78.332 58.5528 77.9921 59.0176C77.6523 59.4825 76.9785 59.7149 75.9707 59.7149H73.6328V62.6621H70.9493ZM75.8008 62.6621L74.0313 59.0176L76.6796 58.9297L78.7011 62.6621H75.8008ZM73.6328 58.0919H75.1855C75.4277 58.0919 75.5937 58.0313 75.6836 57.9102C75.7734 57.7852 75.8183 57.5919 75.8183 57.3302C75.8183 57.0645 75.7715 56.8692 75.6777 56.7442C75.5879 56.6192 75.4238 56.5567 75.1855 56.5567H73.6328V58.0919ZM79.3262 62.6621V54.7521H83.5683L85.748 60.6407H85.7656L85.789 54.7521H88.455V62.6621H84.2539L82.0156 56.6329H81.9863V62.6621H79.3262ZM89.1879 62.6621L91.6019 54.7462H95.3694L97.7893 62.6621H95.0354L94.637 60.9688H92.346L91.9417 62.6621H89.1879ZM92.7737 59.2227H94.2151L93.5062 56.2989H93.4827L92.7737 59.2227Z" fill="#EEEDF2"/>
<path d="M56.3681 62.6621L56.2974 62.6827L56.3128 62.7357H56.3681V62.6621ZM54.0654 54.7521V54.6785H53.9673L53.9947 54.7726L54.0654 54.7521ZM56.7782 54.7521L56.8499 54.7355L56.8367 54.6785H56.7782V54.7521ZM58.1786 60.793L58.1069 60.8096L58.1201 60.8666H58.1786V60.793ZM58.1962 60.793V60.8666H58.2547L58.2679 60.8095L58.1962 60.793ZM59.5848 54.7521V54.6785H59.5262L59.5131 54.7356L59.5848 54.7521ZM62.2977 54.7521L62.3683 54.7726L62.3956 54.6785H62.2977V54.7521ZM60.0008 62.6621V62.7357H60.0561L60.0715 62.6826L60.0008 62.6621ZM56.3681 62.6621L56.4387 62.6415L54.136 54.7315L54.0654 54.7521L53.9947 54.7726L56.2974 62.6827L56.3681 62.6621ZM54.0654 54.7521V54.8256H56.7782V54.7521V54.6785H54.0654V54.7521ZM56.7782 54.7521L56.7065 54.7687L58.1069 60.8096L58.1786 60.793L58.2502 60.7764L56.8499 54.7355L56.7782 54.7521ZM58.1786 60.793V60.8666H58.1962V60.793V60.7194H58.1786V60.793ZM58.1962 60.793L58.2679 60.8095L59.6565 54.7685L59.5848 54.7521L59.5131 54.7356L58.1245 60.7765L58.1962 60.793ZM59.5848 54.7521V54.8256H62.2977V54.7521V54.6785H59.5848V54.7521ZM62.2977 54.7521L62.227 54.7316L59.9302 62.6416L60.0008 62.6621L60.0715 62.6826L62.3683 54.7726L62.2977 54.7521ZM60.0008 62.6621V62.5885H56.3681V62.6621V62.7357H60.0008V62.6621ZM61.6767 62.6621L61.6063 62.6406L61.5773 62.7357H61.6767V62.6621ZM64.0907 54.7462V54.6726H64.0362L64.0203 54.7247L64.0907 54.7462ZM67.8582 54.7462L67.9286 54.7247L67.9127 54.6726H67.8582V54.7462ZM70.2781 62.6621V62.7357H70.3775L70.3485 62.6406L70.2781 62.6621ZM67.5242 62.6621L67.4526 62.679L67.466 62.7357H67.5242V62.6621ZM67.1258 60.9688L67.1974 60.9519L67.1841 60.8952H67.1258V60.9688ZM64.8348 60.9688V60.8952H64.7767L64.7633 60.9517L64.8348 60.9688ZM64.4305 62.6621V62.7357H64.4886L64.5021 62.6792L64.4305 62.6621ZM65.2625 59.2227L65.191 59.2054L65.169 59.2963H65.2625V59.2227ZM66.7039 59.2227V59.2963H66.7975L66.7754 59.2054L66.7039 59.2227ZM65.995 56.2989L66.0665 56.2816L66.0528 56.2253H65.995V56.2989ZM65.9715 56.2989V56.2253H65.9137L65.9 56.2816L65.9715 56.2989ZM61.6767 62.6621L61.747 62.6836L64.1611 54.7677L64.0907 54.7462L64.0203 54.7247L61.6063 62.6406L61.6767 62.6621ZM64.0907 54.7462V54.8198H67.8582V54.7462V54.6726H64.0907V54.7462ZM67.8582 54.7462L67.7879 54.7677L70.2077 62.6836L70.2781 62.6621L70.3485 62.6406L67.9286 54.7247L67.8582 54.7462ZM70.2781 62.6621V62.5885H67.5242V62.6621V62.7357H70.2781V62.6621ZM67.5242 62.6621L67.5958 62.6453L67.1974 60.9519L67.1258 60.9688L67.0542 60.9856L67.4526 62.679L67.5242 62.6621ZM67.1258 60.9688V60.8952H64.8348V60.9688V61.0423H67.1258V60.9688ZM64.8348 60.9688L64.7633 60.9517L64.359 62.645L64.4305 62.6621L64.5021 62.6792L64.9064 60.9859L64.8348 60.9688ZM64.4305 62.6621V62.5885H61.6767V62.6621V62.7357H64.4305V62.6621ZM65.2625 59.2227V59.2963H66.7039V59.2227V59.1491H65.2625V59.2227ZM66.7039 59.2227L66.7754 59.2054L66.0665 56.2816L65.995 56.2989L65.9235 56.3163L66.6324 59.24L66.7039 59.2227ZM65.995 56.2989V56.2253H65.9715V56.2989V56.3725H65.995V56.2989ZM65.9715 56.2989L65.9 56.2816L65.191 59.2054L65.2625 59.2227L65.334 59.24L66.043 56.3163L65.9715 56.2989ZM70.9493 62.6621H70.8757V62.7357H70.9493V62.6621ZM70.9493 54.7521V54.6785H70.8757V54.7521H70.9493ZM78.0214 55.5021L78.0834 55.4624L78.0834 55.4624L78.0214 55.5021ZM77.9921 59.0176L78.0515 59.0611L78.0515 59.0611L77.9921 59.0176ZM73.6328 59.7149V59.6413H73.5592V59.7149H73.6328ZM73.6328 62.6621V62.7357H73.7064V62.6621H73.6328ZM75.8008 62.6621L75.7346 62.6942L75.7547 62.7357H75.8008V62.6621ZM74.0313 59.0176L74.0288 58.9441L73.9156 58.9479L73.9651 59.0498L74.0313 59.0176ZM76.6796 58.9297L76.7443 58.8947L76.7227 58.8547L76.6772 58.8562L76.6796 58.9297ZM78.7011 62.6621V62.7357H78.8246L78.7658 62.6271L78.7011 62.6621ZM73.6328 58.0919H73.5592V58.1654H73.6328V58.0919ZM75.6836 57.9102L75.7427 57.9541L75.7433 57.9532L75.6836 57.9102ZM75.6777 56.7442L75.618 56.7872L75.6189 56.7884L75.6777 56.7442ZM73.6328 56.5567V56.4832H73.5592V56.5567H73.6328ZM70.9493 62.6621H71.0228V54.7521H70.9493H70.8757V62.6621H70.9493ZM70.9493 54.7521V54.8256H76.082V54.7521V54.6785H70.9493V54.7521ZM76.082 54.7521V54.8256C77.046 54.8256 77.6597 55.0737 77.9595 55.5417L78.0214 55.5021L78.0834 55.4624C77.7426 54.9304 77.0633 54.6785 76.082 54.6785V54.7521ZM78.0214 55.5021L77.9595 55.5417C78.271 56.028 78.4283 56.6113 78.4283 57.295H78.5019H78.5755C78.5755 56.5881 78.4125 55.9761 78.0834 55.4624L78.0214 55.5021ZM78.5019 57.295H78.4283C78.4283 57.966 78.2617 58.5242 77.9327 58.9742L77.9921 59.0176L78.0515 59.0611C78.4022 58.5814 78.5755 57.9912 78.5755 57.295H78.5019ZM77.9921 59.0176L77.9327 58.9742C77.6145 59.4096 76.9721 59.6413 75.9707 59.6413V59.7149V59.7885C76.9848 59.7885 77.6901 59.5554 78.0515 59.0611L77.9921 59.0176ZM75.9707 59.7149V59.6413H73.6328V59.7149V59.7885H75.9707V59.7149ZM73.6328 59.7149H73.5592V62.6621H73.6328H73.7064V59.7149H73.6328ZM73.6328 62.6621V62.5885H70.9493V62.6621V62.7357H73.6328V62.6621ZM75.8008 62.6621L75.8669 62.63L74.0974 58.9855L74.0313 59.0176L73.9651 59.0498L75.7346 62.6942L75.8008 62.6621ZM74.0313 59.0176L74.0337 59.0912L76.6821 59.0033L76.6796 58.9297L76.6772 58.8562L74.0288 58.9441L74.0313 59.0176ZM76.6796 58.9297L76.615 58.9648L78.6364 62.6971L78.7011 62.6621L78.7658 62.6271L76.7443 58.8947L76.6796 58.9297ZM78.7011 62.6621V62.5885H75.8008V62.6621V62.7357H78.7011V62.6621ZM73.6328 58.0919V58.1654H75.1855V58.0919V58.0183H73.6328V58.0919ZM75.1855 58.0919V58.1654C75.4368 58.1654 75.6322 58.1029 75.7427 57.9541L75.6836 57.9102L75.6245 57.8664C75.5552 57.9597 75.4187 58.0183 75.1855 58.0183V58.0919ZM75.6836 57.9102L75.7433 57.9532C75.8465 57.8096 75.8919 57.5976 75.8919 57.3302H75.8183H75.7448C75.7448 57.5861 75.7003 57.7609 75.6238 57.8673L75.6836 57.9102ZM75.8183 57.3302H75.8919C75.8919 57.0587 75.8445 56.844 75.7366 56.7001L75.6777 56.7442L75.6189 56.7884C75.6984 56.8944 75.7448 57.0704 75.7448 57.3302H75.8183ZM75.6777 56.7442L75.7375 56.7013C75.6275 56.5483 75.4341 56.4832 75.1855 56.4832V56.5567V56.6303C75.4135 56.6303 75.5482 56.6902 75.618 56.7872L75.6777 56.7442ZM75.1855 56.5567V56.4832H73.6328V56.5567V56.6303H75.1855V56.5567ZM73.6328 56.5567H73.5592V58.0919H73.6328H73.7064V56.5567H73.6328ZM79.3262 62.6621H79.2526V62.7357H79.3262V62.6621ZM79.3262 54.7521V54.6785H79.2526V54.7521H79.3262ZM83.5683 54.7521L83.6373 54.7265L83.6196 54.6785H83.5683V54.7521ZM85.748 60.6407L85.679 60.6662L85.6968 60.7142H85.748V60.6407ZM85.7656 60.6407V60.7142H85.8389L85.8392 60.6409L85.7656 60.6407ZM85.789 54.7521V54.6785H85.7157L85.7154 54.7518L85.789 54.7521ZM88.455 54.7521H88.5286V54.6785H88.455V54.7521ZM88.455 62.6621V62.7357H88.5286V62.6621H88.455ZM84.2539 62.6621L84.1849 62.6877L84.2027 62.7357H84.2539V62.6621ZM82.0156 56.6329L82.0846 56.6073L82.0668 56.5593H82.0156V56.6329ZM81.9863 56.6329V56.5593H81.9128V56.6329H81.9863ZM81.9863 62.6621V62.7357H82.0599V62.6621H81.9863ZM79.3262 62.6621H79.3998V54.7521H79.3262H79.2526V62.6621H79.3262ZM79.3262 54.7521V54.8256H83.5683V54.7521V54.6785H79.3262V54.7521ZM83.5683 54.7521L83.4993 54.7776L85.679 60.6662L85.748 60.6407L85.817 60.6151L83.6373 54.7265L83.5683 54.7521ZM85.748 60.6407V60.7142H85.7656V60.6407V60.5671H85.748V60.6407ZM85.7656 60.6407L85.8392 60.6409L85.8626 54.7524L85.789 54.7521L85.7154 54.7518L85.692 60.6404L85.7656 60.6407ZM85.789 54.7521V54.8256H88.455V54.7521V54.6785H85.789V54.7521ZM88.455 54.7521H88.3814V62.6621H88.455H88.5286V54.7521H88.455ZM88.455 62.6621V62.5885H84.2539V62.6621V62.7357H88.455V62.6621ZM84.2539 62.6621L84.3229 62.6365L82.0846 56.6073L82.0156 56.6329L81.9467 56.6585L84.1849 62.6877L84.2539 62.6621ZM82.0156 56.6329V56.5593H81.9863V56.6329V56.7065H82.0156V56.6329ZM81.9863 56.6329H81.9128V62.6621H81.9863H82.0599V56.6329H81.9863ZM81.9863 62.6621V62.5885H79.3262V62.6621V62.7357H81.9863V62.6621ZM89.1879 62.6621L89.1175 62.6406L89.0885 62.7357H89.1879V62.6621ZM91.6019 54.7462V54.6726H91.5474L91.5315 54.7247L91.6019 54.7462ZM95.3694 54.7462L95.4398 54.7247L95.4239 54.6726H95.3694V54.7462ZM97.7893 62.6621V62.7357H97.8887L97.8597 62.6406L97.7893 62.6621ZM95.0354 62.6621L94.9638 62.679L94.9772 62.7357H95.0354V62.6621ZM94.637 60.9688L94.7086 60.9519L94.6953 60.8952H94.637V60.9688ZM92.346 60.9688V60.8952H92.2879L92.2745 60.9517L92.346 60.9688ZM91.9417 62.6621V62.7357H91.9998L92.0133 62.6792L91.9417 62.6621ZM92.7737 59.2227L92.7022 59.2054L92.6802 59.2963H92.7737V59.2227ZM94.2151 59.2227V59.2963H94.3087L94.2866 59.2054L94.2151 59.2227ZM93.5062 56.2989L93.5777 56.2816L93.564 56.2253H93.5062V56.2989ZM93.4827 56.2989V56.2253H93.4249L93.4112 56.2816L93.4827 56.2989ZM89.1879 62.6621L89.2582 62.6836L91.6723 54.7677L91.6019 54.7462L91.5315 54.7247L89.1175 62.6406L89.1879 62.6621ZM91.6019 54.7462V54.8198H95.3694V54.7462V54.6726H91.6019V54.7462ZM95.3694 54.7462L95.2991 54.7677L97.7189 62.6836L97.7893 62.6621L97.8597 62.6406L95.4398 54.7247L95.3694 54.7462ZM97.7893 62.6621V62.5885H95.0354V62.6621V62.7357H97.7893V62.6621ZM95.0354 62.6621L95.107 62.6453L94.7086 60.9519L94.637 60.9688L94.5654 60.9856L94.9638 62.679L95.0354 62.6621ZM94.637 60.9688V60.8952H92.346V60.9688V61.0423H94.637V60.9688ZM92.346 60.9688L92.2745 60.9517L91.8702 62.645L91.9417 62.6621L92.0133 62.6792L92.4176 60.9859L92.346 60.9688ZM91.9417 62.6621V62.5885H89.1879V62.6621V62.7357H91.9417V62.6621ZM92.7737 59.2227V59.2963H94.2151V59.2227V59.1491H92.7737V59.2227ZM94.2151 59.2227L94.2866 59.2054L93.5777 56.2816L93.5062 56.2989L93.4347 56.3163L94.1436 59.24L94.2151 59.2227ZM93.5062 56.2989V56.2253H93.4827V56.2989V56.3725H93.5062V56.2989ZM93.4827 56.2989L93.4112 56.2816L92.7022 59.2054L92.7737 59.2227L92.8452 59.24L93.5542 56.3163L93.4827 56.2989Z" fill="#EEEDF2" fill-opacity="0.75" mask="url(#path-77-outside-2_1317_2123)"/>
</g>
<defs>
<clipPath id="clip0_1317_2123">
<rect width="109.19" height="68.94" fill="white"/>
</clipPath>
</defs>
</svg>
