<svg width="606" height="560" viewBox="0 0 606 560" fill="none" xmlns="http://www.w3.org/2000/svg">
<g clip-path="url(#clip0_1580_2095)">
<path d="M117.904 7.12695H124.483V13.8086H117.356V25.8662L118.453 26.9629V35.1172L128.732 37.2822L128.774 37.291L128.807 37.3184L135.385 42.7998L135.393 42.8066L144.165 51.0303L144.182 51.0469L144.195 51.0693L150.225 61.4854L150.251 61.5303L150.249 61.5811L149.156 79.0469L152.406 82.2969L152.417 82.3145L154.062 85.0557L154.086 85.0967V88.4629L154.077 88.4902L152.442 93.1006L152.99 104.872L152.996 105.012L152.86 105.046L150.796 105.562V113.655L150.25 138.778L153.461 140.919L153.51 140.952L153.529 141.008L154.619 144.278L156.25 146.997L157.346 148.642L157.375 148.685V156.314L160.034 157.91L160.041 157.914L161.685 159.011L161.747 159.052L161.758 159.125L162.286 162.29L166 162.821L166.147 162.842V167.764L174.757 168.302L174.823 168.306L174.868 168.352L176.513 169.996L176.557 170.041L176.562 170.104L177.104 177.142L190.733 185.32L191.263 185.638H186.984L188.073 226.484L190.692 228.057H198.909L198.945 228.074L203.22 230.212L205.286 228.146L206.375 220.528L206.385 220.453L206.449 220.41L208.017 219.364V188.265L206.407 186.118L206.33 186.016L206.407 185.913L208.017 183.765V176.253L205.918 175.204L205.824 175.156V172.688H207.986L204.73 153.699L204.728 153.686V151.307H207.754L207.797 151.412L210.209 157.2V130.622L210.216 130.599L212.41 122.924L212.417 122.896L212.435 122.871L220.658 111.358L220.67 111.342L220.686 111.328L232.198 101.461L232.206 101.454L232.213 101.449L247.563 91.0332L247.586 91.0176L247.613 91.0098L255.254 88.8262L265.052 81.2061L267.224 73.6084V62.8906L267.256 62.8457L269.417 59.8701V53.9492L266.708 50.1582L266.705 50.1533L265.624 48.5322L263.5 46.9404H262.512L260.912 48.0078L260.869 48.0361H259.597L259.558 47.9199L259.009 46.2754L259 46.249V44.6816L258 44.1807L257.948 44.1553L257.922 44.1045L257.375 43.0078L257.336 42.9316L257.375 42.8555L257.922 41.7588L257.955 41.6953L258.021 41.6729L259.584 41.1514L260.106 39.5879L260.128 39.5205L260.192 39.4893L261.289 38.9414L261.399 38.8857L262.602 40.0889L263.116 41.1162H267.89L269.417 40.0986V35.9756H267.224V34.0684L267.3 34.0176L268.908 32.9453L269.46 31.8398L269.511 31.8145L270.608 31.2656L270.644 31.248H272.4L273.596 32.4443V32.9707L275.166 34.0176L275.242 34.0684V35.9756H273.596V40.1494L274.08 41.1162H278.188V39.5361L278.283 39.4893L279.379 38.9414L279.456 38.9023L279.533 38.9414L280.628 39.4893L280.692 39.5205L280.714 39.5879L281.236 41.1514L282.799 41.6729L282.867 41.6953L282.898 41.7588L283.447 42.8555L283.485 42.9316L283.447 43.0078L282.898 44.1045L282.873 44.1553L282.822 44.1807L281.857 44.6621L282.359 46.167L282.385 46.2461L282.339 46.3154L281.243 47.96L281.192 48.0361H279.933L278.837 46.9404H277.411L277.192 48.4385L277.183 48.5029L277.133 48.5449L275.217 50.1572L274.688 51.7441L274.145 53.917V59.8545L277.143 62.8242L277.192 62.8721L277.194 62.9404L277.434 69.7881V73.6133L279.061 81.209L283.94 85.0029L286.667 86.6396L290.505 88.833L290.517 88.8408L297.632 93.7666L303.659 96.5059L310.786 100.344L310.797 100.351L310.809 100.359L315.743 104.196L315.754 104.205L315.764 104.217L321.247 110.247L321.253 110.254L321.258 110.261L325.644 116.292L325.648 116.297L330.034 122.876L330.042 122.887L330.046 122.899L333.336 130.025L333.352 130.06V147.58L337.7 153.016L337.723 153.045L337.733 153.081L338.281 155.273L338.292 155.315L338.281 155.356L337.733 157.55L337.724 157.583L337.704 157.61L336.093 159.758V162.992L335.544 215.029L336.062 216.065L337.089 217.093H338.734L339.93 218.289V224.318L340.927 225.315H342.572L342.622 225.365L344.231 226.976L346.379 227.514L346.509 227.546V230.828L349.093 231.346H352.349L372.067 226.964L372.077 226.962L399.434 222.584L402.683 219.335L412.551 209.468L412.555 209.463H412.556L419.682 202.884L419.698 202.87L419.716 202.859L425.747 199.57L425.757 199.564L425.769 199.561L434.429 196.312V188.138L434.479 188.087L437.17 185.396V174.667L429.66 174.388L429.496 174.382V169.668L429.673 169.675L436.623 169.939V161.438L436.801 161.446L442.284 161.704L442.447 161.711V169.953L447.765 170.189L447.928 170.196V175.69L447.742 175.673L442.447 175.176V185.396L445.137 188.087L445.187 188.138V196.293L457.662 199.005L457.687 199.011L457.71 199.023L465.385 203.409L465.398 203.417L471.435 208.356L478.562 213.839L478.576 213.85L478.587 213.863L481.876 217.7L481.917 217.748V227.09L483.544 230.344L483.568 230.392L483.561 230.444L483.012 234.282L483.005 234.332L482.973 234.369L479.753 238.125L481.903 242.96L481.939 243.041L481.893 243.117L478.628 248.559V252.229L499.349 259.863L499.433 259.895L499.456 259.982L500.003 262.176L500.007 262.188L500.008 262.201L500.546 268.133L506.487 270.833L506.587 270.878V273.048L510.843 274.111L510.967 274.143L510.973 274.27L511.515 285.66L516.87 287.267L523.283 288.336L525.986 277.525L525.995 277.492L526.015 277.464L529.304 273.078L529.356 273.01H532.748L532.764 273.014L535.505 273.562L535.572 273.575L535.611 273.63L538.352 277.468L538.383 277.512V281.385L539.468 287.36L541.635 290.069L541.652 290.089L541.661 290.112L542.757 292.854L542.773 292.894L542.768 292.936L542.22 297.87L542.21 297.954L542.138 297.997L539.488 299.587L540.028 306.609L540.029 306.619L540.575 333.397L542.701 334.992L542.75 335.029L542.764 335.088L543.294 337.208L552.001 342.107L552.015 342.114L552.026 342.124L558.057 347.058L558.068 347.066L558.077 347.077L561.915 351.463L561.924 351.475L561.932 351.486L569.6 364.084L581.652 378.328L581.666 378.344L584.961 384.936L588.799 392.062L588.82 392.101V406.346L590.964 409.562L594.225 411.737L594.24 411.746L594.251 411.758L595.896 413.403L595.991 413.497L595.921 413.612L594.277 416.353L594.227 416.436H593.753V421.37H588.85L589.914 427.749L589.916 427.76V427.771L590.464 442.024H590.463L592.108 466.689L592.109 466.697L592.657 495.201L594.301 537.413V537.416L594.85 558.796L594.854 558.976L594.675 558.972L-1.23291 545.814L-1.40088 545.811V429.045H-9.62354V419.932H-2.49463L-1.40283 341.879H-4.68994V336.186L-4.67139 336.149L-3.57568 333.956L-3.52783 333.862H-1.38818L1.33154 296.318L-1.29248 295.269L-1.40088 295.226V293.088H-4.68994V289.456H-1.34521L-0.291504 286.823L-0.271973 286.773L-0.228027 286.744L1.35791 285.686L2.98877 277.533L2.98975 277.525L3.15576 277.566L2.99072 277.525L4.63525 270.947L4.646 270.901L8.61963 266.928L8.73779 267.012L12.5757 269.753L12.5815 269.757L12.5874 269.762L16.4243 273.052L16.4448 273.068L16.4585 273.091L19.1997 277.477L19.2251 277.518V285.501L24.9243 282.393L26.0112 273.161L26.0288 273.01H31.0562L33.686 270.904L35.3276 188.82L30.4399 183.389L30.3364 183.274L30.4399 183.16L35.3735 177.678L35.4868 177.552L35.6138 177.663L39.9048 181.418L42.4604 179.885L43.0054 168.464L43.0142 168.279L43.1968 168.303L47.5132 168.842L56.7456 161.781L58.3726 158.528L58.4116 158.45L58.4976 158.436L61.644 157.911V150.21H65.0903L67.6997 149.688L69.3228 141.576L69.3364 141.507L69.395 141.468L70.9644 140.42L72.0601 81.3037L72.062 81.2275L72.1187 81.1777L76.4429 77.3926L75.8979 60.4795L75.896 60.4365L80.8677 50.4932L80.9019 50.4688L89.1245 44.4385L89.1255 44.4375L98.9937 37.3105L99.0083 37.3008L99.0239 37.293L103.958 35.1006L103.992 35.0859H109.338V26.9414L109.415 26.8906L110.983 25.8447V13.8086H103.857V7.12695H110.983V0H117.904V7.12695ZM27.1772 359.662L24.9849 361.307L24.9468 361.335L24.9282 361.38L23.8325 364.121L23.8276 364.132L23.8247 364.143L23.2769 366.336L23.272 366.356V413.146H32.3833L32.3853 412.978L32.9331 364.187L32.9341 364.152L32.9214 364.121L31.8247 361.38L31.812 361.348L30.0923 359.628H27.2231L27.1772 359.662ZM43.687 357.438L43.6509 357.455L42.5542 358.004L42.5288 358.016L42.5093 358.036L41.4048 359.141L41.397 359.15L39.7524 361.343L39.729 361.374L39.7222 361.412L39.1733 364.153L39.1704 364.17V410.956H49.9302L49.9282 410.783L49.3804 364.733V362.515L49.3716 362.488L48.8228 360.844L48.8198 360.832L48.814 360.821L48.2661 359.725L47.7173 358.628L47.6997 358.592L47.6675 358.568L46.5708 357.746L46.5435 357.725L46.5093 357.717L45.4136 357.442L45.3931 357.438H43.687ZM60.6323 355.265L57.8911 356.909L57.8628 356.927L57.8423 356.953L56.1978 359.146L56.1636 359.191V408.759H68.02L68.0181 408.586L67.4702 359.247L67.4692 359.22L67.4614 359.194L66.9126 357.55L66.896 357.499L66.853 357.467L64.6606 355.822L64.6382 355.806L64.6118 355.797L62.9673 355.249L62.9409 355.24H60.6724L60.6323 355.265ZM204.276 331.137L203.179 331.686L203.155 331.697L203.135 331.718L201.491 333.362L201.478 333.374L201.469 333.388L200.373 335.032L200.367 335.042L200.362 335.051L199.265 337.244L199.248 337.28V392.312H210.554V336.951L210.549 336.932L210.001 334.541L209.997 334.521L209.988 334.503L208.891 332.31L208.871 332.27L208.833 332.244L207.188 331.147L207.145 331.119H204.312L204.276 331.137ZM122.644 291.644L119.354 292.192L119.329 292.196L119.306 292.208L117.113 293.304L117.099 293.311L117.087 293.32L114.894 294.965L114.875 294.979L114.86 294.999L113.215 297.191L113.209 297.2L111.017 300.489L111.008 300.502L111.002 300.517L109.357 304.354L109.355 304.36L109.352 304.367L107.708 309.301L107.702 309.319L107.7 309.338L107.152 314.82L107.151 314.829V390.127L107.334 390.113L136.39 387.921L136.549 387.908L136.548 387.749L136 304.969V304.955L135.998 304.941L135.45 301.652L135.447 301.634L135.44 301.617L134.343 298.876L134.338 298.863L134.331 298.852L132.686 296.11L132.682 296.103L132.676 296.096L131.032 293.902L131.014 293.879L130.99 293.863L129.345 292.767L129.331 292.757L129.314 292.75L126.573 291.653L126.542 291.642H122.658L122.644 291.644ZM227.885 326.19L225.693 326.738L225.664 326.746L225.639 326.763L223.995 327.858L223.981 327.868L223.968 327.88L222.873 328.977L222.853 328.996L222.84 329.021L222.292 330.117L221.744 331.214L221.741 331.221L221.738 331.227L220.641 333.968L220.629 333.998V390.127L220.807 390.12L234.512 389.572L234.676 389.565V334.018L234.674 334.003L234.126 330.714L234.122 330.688L234.111 330.666L233.014 328.473L233.001 328.448L231.337 326.784L231.309 326.755L231.27 326.742L229.625 326.194L229.599 326.186H227.906L227.885 326.19ZM244.789 327.345L244.78 327.358L243.683 329.003L243.67 329.022L243.664 329.044L243.115 330.688L243.106 330.714V330.741L242.558 386.659L242.556 386.831H257.702V331.263L257.693 331.236L256.596 327.947L256.59 327.93L256.581 327.913L254.936 325.173L254.917 325.14L254.884 325.118L253.24 324.021L253.197 323.993H248.14L244.789 327.345ZM314.92 157.523L319.854 209.604L319.865 209.714L319.97 209.749L326.548 211.942L326.774 212.018V173.943L326.773 173.935L326.225 169L326.223 168.984L326.218 168.969L324.025 161.842L324.016 161.812L323.996 161.786L321.802 159.045L321.784 159.021L321.757 159.005L319.016 157.36L318.975 157.336H314.902L314.92 157.523ZM228.397 155.708L226.19 156.812L226.177 156.821L223.985 158.466L223.958 158.485L223.941 158.515L222.296 161.256L220.652 163.996L220.644 164.008L220.639 164.021L219.542 166.762L219.53 166.794L219.531 166.828L220.079 211.781L220.082 211.996L220.29 211.945L236.188 208.107L236.321 208.076L236.319 207.939L235.771 169.016V164.623L235.77 164.614L235.221 159.68L235.216 159.634L235.189 159.596L233.543 157.403L233.529 157.384L233.509 157.369L231.317 155.725L231.271 155.69H228.433L228.397 155.708ZM135.223 92.6602L133.579 93.208L133.552 93.2168L133.53 93.2334L131.337 94.8779L131.314 94.8955L131.297 94.9199L130.201 96.5645L130.172 96.6084V134.62L130.302 134.652L139.073 136.846L139.283 136.897L139.286 136.682L139.833 97.7588L139.834 97.7363L139.829 97.7148L139.281 95.5215L139.272 95.4883L139.251 95.4609L137.607 93.2676L137.571 93.2197L137.511 93.2041L135.319 92.6562L135.27 92.6445L135.223 92.6602ZM82.5747 93.2168L81.478 93.7656L81.4077 93.8008L81.3882 93.877L80.8403 96.0693L80.8354 96.0898V134.657H87.2075V95.5352L87.1987 95.5088L86.6509 93.8643L86.6284 93.7969L86.5649 93.7656L85.4683 93.2168L85.4321 93.1992H82.6108L82.5747 93.2168ZM106.716 89.3682L105.072 89.916L105.034 89.9287L103.9 91.0625L103.892 91.0723L102.248 93.2646L102.227 93.293L102.218 93.3262L101.67 95.5195L101.666 95.54V132.462H116.261V95.54L116.256 95.5195L115.708 93.3262L115.7 93.293L115.678 93.2646L114.034 91.0723L114.027 91.0625L114.018 91.0537L112.921 89.958L112.893 89.9287L112.855 89.916L111.21 89.3682L111.184 89.3594H106.743L106.716 89.3682Z" fill="url(#paint0_linear_1580_2095)"/>
<path d="M299.192 355.413L303.578 353.768L330.989 351.575H359.496L415.962 352.124L403.901 323.068L396.226 311.556L384.714 305.526L373.201 301.688V297.302L434.053 296.206L496.001 294.561L509.158 286.338L529.442 289.079V279.211L531.087 274.277H536.021L538.762 289.079L544.792 292.917L538.762 298.947L540.954 336.225L548.081 339.515L555.208 344.997L562.335 351.575L567.269 359.799L569.462 372.408L577.685 376.245L588.101 388.854V406.397L594.131 410.782L592.487 422.843H588.101L594.131 560.445H-1.7768V429.422H-10V419.554H-2.87323L22.8928 413.524H32.7606L38.791 411.331H50.3035L55.7856 409.138H68.3945L93.6123 403.107L104.028 400.915L102.384 391.047L139.114 387.758L138.018 393.24L146.789 397.077L159.946 386.113L172.555 393.24L188.453 397.077L297 386.113L299.192 355.413Z" fill="#7FD0ED"/>
<path d="M496.003 294.561L417.06 296.754L373.203 297.302L377.041 294.561L423.091 274.277L430.217 277.018L446.664 275.922L496.003 291.272V294.561Z" fill="#7FD0ED" stroke="#352996" stroke-opacity="0.32" stroke-width="0.342133"/>
<path d="M334.828 351.574L303.031 353.767L307.965 334.032L310.706 323.067L312.899 312.103L324.412 303.88L332.635 301.687L341.954 300.042L350.726 299.494H360.594L367.72 300.042L375.395 302.235L384.715 304.976L395.679 311.555L401.161 318.133L406.644 326.905L412.126 339.514L415.963 352.123L334.828 351.574Z" fill="#7FD0ED" stroke="#352996" stroke-opacity="0.32" stroke-width="0.342133"/>
<path d="M237.246 202.461L235.602 207.943L208.739 213.426L208.191 220.552L204.354 230.42L211.48 233.709L261.916 223.293H311.255L346.341 232.065V228.227L339.762 225.486V217.811H334.828V214.522L325.509 211.781L322.768 210.684L320.575 208.492V203.558L322.219 200.817L326.057 194.786L328.25 191.497L329.346 186.563V182.726L328.798 178.34L327.153 173.954L324.412 170.665L320.575 166.279L316.737 161.345L313.996 158.604L311.803 156.96L307.418 153.67L304.128 151.477L300.291 149.833L294.809 148.188L290.423 147.092L286.586 145.995L284.393 144.351L283.844 141.61V136.127L286.586 135.031V131.742L283.844 130.645V122.422L286.586 121.874L288.23 122.97L289.875 121.874L290.423 119.681L292.616 119.133L293.164 117.488L292.068 115.844H290.423V113.651L288.778 113.102L287.134 113.651V115.295V116.392H284.393L284.941 115.844L283.296 114.199V112.006L284.393 112.554L284.941 112.006L283.296 110.361L284.941 109.813L285.489 108.169L284.393 107.072H281.652V104.879L280.007 104.331L278.362 104.879V107.072H276.718L275.621 108.169V109.813L277.266 110.361L276.169 112.006L277.266 112.554L278.911 112.006V114.199L277.266 116.392H275.073V115.295V113.651L273.428 113.102L271.784 113.651V115.844H269.591L268.494 117.488V119.133L270.687 119.681L270.139 121.874L271.784 122.97L273.977 121.874L277.814 122.422V130.645L274.525 131.742L275.073 135.031L277.814 136.127V141.61L274.525 145.995L268.494 146.543L262.464 148.188L255.886 152.026L250.403 155.863L243.825 160.797L238.343 165.731L232.312 172.858L230.12 182.177L230.668 186.563L231.216 191.497L235.053 195.883L237.246 202.461Z" fill="#7FD0ED" stroke="#352996" stroke-opacity="0.32" stroke-width="0.342133"/>
<path d="M54.1431 235.351L60.7216 247.412V254.539L81.0055 252.894L62.9145 274.823L65.1073 277.016L69.493 280.305H72.7823L114.995 225.483L156.111 266.051L157.755 264.955V262.214V257.828L148.436 248.508L201.064 245.219L158.852 217.809H148.984V215.616V211.778H155.563V206.296H148.984V198.073H144.05V206.296H136.923V211.778H120.477V207.941L118.832 204.651L115.543 201.362L112.802 199.169L108.964 196.976L106.223 195.88L103.482 194.784L100.193 193.139V188.753L102.934 187.657V185.464L101.838 184.367H100.193V172.929L107.513 172.929V167.373L100.193 167.373V160.246H97.4519H95.2591V167.373H87.5841V172.929L95.2591 172.929V184.367H93.6144L91.9698 185.464V187.657L94.7109 188.753V193.139L91.9698 194.784L87.0359 195.88L78.8127 198.073L73.8788 200.814L69.493 204.103L64.0109 208.489L59.077 213.423L56.3359 217.26L54.1431 221.646V235.351Z" fill="#7FD0ED" stroke="#352996" stroke-opacity="0.32" stroke-width="0.342133"/>
</g>
<defs>
<linearGradient id="paint0_linear_1580_2095" x1="286.142" y1="683.862" x2="328.797" y2="-81.2412" gradientUnits="userSpaceOnUse">
<stop offset="0.0480769" stop-color="#00A4E4"/>
<stop offset="0.995029" stop-color="#89D3E7"/>
<stop offset="1" stop-color="#5FB9F8"/>
</linearGradient>
<clipPath id="clip0_1580_2095">
<rect width="606" height="560" fill="white"/>
</clipPath>
</defs>
</svg>
