<svg width="401" height="354" viewBox="0 0 401 354" fill="none" xmlns="http://www.w3.org/2000/svg">
<g clip-path="url(#clip0_1317_2139)">
<path d="M79.1807 5.66211H83.5625V10.6494H78.8154V18.3018L79.5459 19.0322V24.3574L86.1807 25.7549L86.2734 25.7744L86.3467 25.835L90.7285 29.4863L90.7373 29.4941L90.7451 29.501L96.5879 34.9795L96.6289 35.0176L96.6572 35.0664L100.675 42.0049L100.732 42.1045L100.726 42.2197L100.005 53.7334L102.074 55.8027L102.108 55.8359L102.132 55.876L103.228 57.7021L103.282 57.793V60.1553L103.261 60.2178L102.189 63.2383L102.552 71.0273L102.566 71.3398L102.263 71.416L101.091 71.709V76.8965L100.729 93.4834L102.747 94.8281L102.855 94.9014L102.897 95.0254L103.614 97.1768L104.679 98.9512L105.474 100.144V105.154L107.113 106.139L107.129 106.148L108.362 106.971L108.39 107.135L108.708 109.049L110.987 109.375L111.316 109.422V112.681L116.801 113.023L116.944 113.032L118.242 114.33L118.253 114.472L118.603 119.021L127.563 124.397L128.747 125.107H125.203L125.917 151.894L127.474 152.827H132.935L133.015 152.867L135.689 154.204L136.865 153.028L137.578 148.043L137.603 147.873L137.744 147.778L138.67 147.161V126.68L137.65 125.32L137.479 125.091L137.65 124.861L138.67 123.502V118.754L137.209 118.023V115.944H138.599L136.484 103.61L136.479 103.578V101.702H138.941L139.04 101.938L140.13 104.554V88.1543L140.146 88.1035L141.605 82.9902L141.624 82.9268L141.662 82.873L147.14 75.2051L147.167 75.167L147.202 75.1367L154.871 68.5635L154.887 68.5498L154.905 68.5371L165.13 61.5996L165.181 61.5645L165.239 61.5479L170.282 60.1064L176.695 55.1172L178.108 50.1758V42.9883L178.182 42.8877L179.569 40.9746V37.2051L177.814 34.75L177.808 34.7402L177.113 33.6982L175.807 32.7188H175.319L174.32 33.3848L174.225 33.4492H173.103L173.016 33.1875L172.65 32.0928L172.631 32.0332V31.1123L171.998 30.7959L171.94 30.6816L171.575 29.9512L171.49 29.7803L171.575 29.6094L171.94 28.8789L172.012 28.7373L172.162 28.6875L173.076 28.3828L173.381 27.4688L173.431 27.3184L173.572 27.2471L174.303 26.8818L174.55 26.7588L174.744 26.9541L175.519 27.7285L175.806 28.3027H178.74L179.569 27.75V25.415H178.108V23.7334L178.278 23.6191L179.289 22.9443L179.609 22.3057L179.666 22.1924L179.78 22.1348L180.511 21.7695L180.592 21.7295H181.936L182.048 21.8418L182.778 22.5713L182.89 22.6836V23.002L183.815 23.6191L183.985 23.7334V25.415H182.89V27.8633L183.109 28.3027H185.412V27.3535L185.623 27.2471L186.354 26.8818L186.524 26.7969L186.695 26.8818L187.426 27.2471L187.567 27.3184L187.617 27.4688L187.921 28.3818L188.837 28.6875L188.986 28.7373L189.058 28.8789L189.423 29.6094L189.508 29.7803L189.423 29.9512L189.058 30.6816L189.001 30.7959L188.887 30.8525L188.452 31.0693L188.713 31.8506L188.772 32.0283L187.825 33.4492H186.731L186.619 33.3369L186 32.7188H185.395L185.282 33.4873L185.262 33.6309L185.15 33.7246L183.931 34.751L183.607 35.7236L183.255 37.1338V40.9404L185.173 42.8408L185.281 42.9473L185.286 43.0986L185.446 47.6602V50.1904L186.504 55.126L189.666 57.585L191.462 58.6621L194.018 60.123L194.032 60.1309L194.046 60.1406L198.767 63.4082L202.75 65.2197L202.762 65.2246L202.773 65.2305L207.521 67.7871L207.549 67.8018L207.574 67.8223L210.86 70.3779L210.887 70.3984L210.909 70.4229L214.561 74.4395L214.575 74.4551L214.587 74.4717L217.509 78.4893L217.513 78.4951L217.518 78.502L220.438 82.8838L220.455 82.9082L220.468 82.9355L222.659 87.6826L222.694 87.7588V99.3945L225.531 102.941L225.584 103.007L225.604 103.088L225.969 104.548L225.992 104.641L225.969 104.733L225.604 106.194L225.585 106.27L225.539 106.331L224.52 107.69V109.758L224.155 144.355L224.451 144.948L225.027 145.523H226.122L227.076 146.478V150.495L227.582 151.001H228.678L228.79 151.113L229.811 152.133L231.169 152.473L231.458 152.545V154.722L232.938 155.018H235.05L248.156 152.105L248.167 152.103L248.179 152.102L266.314 149.199L274.991 140.522L274.997 140.518L275.002 140.512L279.75 136.13L279.784 136.098L279.826 136.075L283.843 133.885L283.866 133.871L283.892 133.862L289.486 131.764V126.393L289.599 126.281L291.312 124.566V117.79L286.568 117.614L286.2 117.601V113.923L286.597 113.938L290.947 114.103V108.438L291.348 108.457L294.999 108.628L295.363 108.646V114.135L298.649 114.28L299.016 114.297V118.508L298.597 118.469L295.363 118.165V124.566L297.077 126.281L297.189 126.393V131.72L305.287 133.481L305.345 133.494L305.396 133.522L310.508 136.444L310.536 136.46L310.561 136.48L314.568 139.76L319.315 143.411L319.347 143.436L319.373 143.466L321.563 146.021L321.656 146.129V152.39L322.711 154.499L322.765 154.605L322.748 154.724L322.383 157.28L322.367 157.391L322.294 157.475L320.26 159.848L321.623 162.913L321.704 163.095L321.602 163.266L319.465 166.825V169.01L333.092 174.03L333.281 174.101L333.695 175.757L333.702 175.786L333.705 175.815L334.05 179.61L337.864 181.345L338.089 181.446V182.854L340.721 183.513L340.996 183.582L341.01 183.865L341.361 191.264L344.732 192.274L348.741 192.942L350.481 185.982L350.5 185.907L350.547 185.846L352.738 182.924L352.853 182.771H355.272L355.31 182.778L357.136 183.144L357.284 183.173L357.372 183.296L359.197 185.853L359.269 185.952V188.594L359.976 192.485L361.376 194.234L361.411 194.279L361.433 194.332L362.163 196.157L362.198 196.246L362.188 196.342L361.822 199.628L361.802 199.816L361.64 199.914L360.016 200.888L360.363 205.399L360.364 205.41V205.421L360.726 223.128L362.037 224.112L362.146 224.193L362.179 224.325L362.503 225.625L368.203 228.832L368.232 228.849L368.258 228.869L372.274 232.156L372.3 232.176L372.32 232.2L374.877 235.121L374.898 235.146L374.916 235.174L380.014 243.55L388.027 253.02L388.057 253.055L388.077 253.096L390.269 257.478H390.268L392.819 262.215L392.865 262.3V271.774L394.22 273.807L396.347 275.224L396.378 275.245L397.711 276.578L397.558 276.834L396.351 278.846H396.151V282.133H392.934L393.59 286.069L393.594 286.094L393.595 286.117L393.96 295.602L395.055 312.034L395.056 312.043V312.052L395.421 331.034L396.517 359.152V359.157L396.882 373.398L396.892 373.8L396.491 373.791L-0.453125 365.026L-0.826172 365.019V287.245H-6.30469V280.638H-1.55176L-0.832031 229.183H-3.01758V225.058L-2.1416 223.306H-0.799805L0.979492 198.741L-0.585938 198.115L-0.826172 198.02V196.682H-3.01758V193.727H-0.703125L-0.0693359 192.141L-0.0244141 192.03L0.0742188 191.965L1.03711 191.322L2.10254 186L2.10352 185.991L2.10645 185.982L3.20215 181.6L3.22754 181.497L6.08789 178.637L6.35156 178.825L8.90723 180.651L8.9209 180.661L8.93359 180.672L11.4902 182.863L11.5342 182.901L11.5654 182.95L13.3916 185.872L13.4492 185.965V190.908L16.7266 189.12L17.4346 183.108L17.4746 182.771H20.9668L22.5479 181.504L23.6357 127.059L20.4512 123.521L20.2217 123.265L20.4512 123.009L23.7383 119.357L23.9902 119.077L24.2744 119.325L26.9854 121.698L28.3965 120.852L28.7529 113.387L28.7725 112.975L29.1826 113.025L31.9482 113.371L37.9609 108.773L39.0176 106.661L39.1045 106.487L39.2969 106.455L41.168 106.143V100.972H43.7061L45.2422 100.664L46.2881 95.4365L46.3193 95.2812L46.4512 95.1934L47.3789 94.5742L48.1064 55.3359L48.1094 55.166L48.2373 55.0547L51.0225 52.6172L50.6631 41.4785L50.6602 41.3818L50.7031 41.2949L53.9902 34.7217L54.0312 34.6396L54.1055 34.585L59.583 30.5674L59.5859 30.5664L66.1582 25.8184L66.1904 25.7959L66.2275 25.7793L69.5137 24.3184L69.5879 24.2852H72.9385V18.9854L74.0342 18.2549V10.6494H69.2871V5.66211H74.0342V0.914062H79.1807V5.66211ZM18.3213 240.544L16.8604 241.64L16.7744 241.703L16.7344 241.803L16.0039 243.629L15.9951 243.653L15.9883 243.679L15.623 245.139L15.6113 245.185V276.654H22.2148L22.2197 276.275L22.584 243.775L22.585 243.699L22.5566 243.629L21.8271 241.803L21.7979 241.73L20.5342 240.467H18.4229L18.3213 240.544ZM29.416 239.009L29.335 239.05L28.6055 239.415L28.5498 239.442L27.7559 240.236L27.7402 240.258L26.6445 241.719L26.5918 241.788L26.5752 241.873L26.21 243.698L26.2021 243.735V275.196H33.9102L33.9053 274.809L33.54 244.135V242.616L33.1553 241.462L33.1475 241.436L33.1348 241.412L32.4043 239.951L32.3643 239.87L32.292 239.816L31.5615 239.269L31.5 239.222L31.4248 239.203L30.6943 239.021L30.6494 239.009H29.416ZM40.627 237.6L38.8008 238.695L38.7373 238.734L38.6924 238.794L37.5967 240.255L37.5195 240.356V273.732H45.958L45.9531 273.346L45.5879 240.479V240.42L45.5684 240.363L45.2031 239.268L45.166 239.154L45.0703 239.083L43.6094 237.987L43.5596 237.95L43.501 237.93L42.4053 237.565L42.3467 237.545H40.7178L40.627 237.6ZM136.328 221.519L135.543 221.911L134.403 223.051L134.376 223.077L134.355 223.109L133.625 224.204L133.612 224.225L133.602 224.245L132.871 225.706L132.83 225.787V262.777H140.898V225.601L140.889 225.559L140.523 223.966L140.514 223.921L140.493 223.881L139.763 222.42L139.718 222.329L138.537 221.542L138.441 221.478H136.409L136.328 221.519ZM82.0283 195.187L79.8369 195.552L79.7803 195.561L79.7295 195.587L78.2686 196.317L78.2373 196.332L78.21 196.354L76.749 197.448L76.7051 197.481L76.6729 197.525L75.5771 198.985L74.085 201.224L74.0713 201.256L72.9756 203.812L72.9688 203.826L72.9639 203.842L71.8682 207.128L71.8555 207.169L71.8506 207.211L71.4854 210.862L71.4834 210.882V261.342L71.8945 261.311L91.249 259.851L91.6055 259.823L91.6025 259.467L91.2373 204.325V204.295L91.2324 204.265L90.8672 202.074L90.8604 202.033L90.8447 201.994L90.1143 200.169L90.1035 200.141L90.0879 200.114L88.9922 198.288L88.9814 198.271L88.9697 198.256L87.875 196.795L87.835 196.742L87.7812 196.706L86.6855 195.976L86.6523 195.953L86.6152 195.938L84.7207 195.181H82.0596L82.0283 195.187ZM152.108 218.202L150.647 218.567L150.584 218.584L150.528 218.62L149.433 219.351L149.401 219.372L148.601 220.173L148.573 220.229L148.208 220.958L147.843 221.688L147.835 221.703L147.071 223.612V261.331L147.47 261.315L156.599 260.95L156.966 260.936V223.654L156.961 223.623L156.596 221.432L156.586 221.375L156.561 221.323L155.83 219.863L155.802 219.808L155.758 219.764L154.663 218.668L154.599 218.604L154.514 218.575L153.418 218.211L153.359 218.19H152.154L152.108 218.202ZM165.445 216.842L163.254 219.033L163.227 219.06L163.206 219.091L162.476 220.187L162.447 220.229L162.431 220.278L162.065 221.373L162.047 221.431L162.046 221.49L161.681 258.738L161.678 259.124H172.306V221.798L172.286 221.738L171.556 219.548L171.542 219.508L171.521 219.472L170.381 217.572L170.31 217.524L169.117 216.729H165.557L165.445 216.842ZM209.881 106.137L213.168 140.828L213.191 141.076L213.428 141.155L217.81 142.615L218.312 142.783V117.034L218.311 117.014L217.941 113.691L217.931 113.657L216.47 108.909L216.448 108.84L216.403 108.783L214.899 106.903L213.015 105.772L212.924 105.718H209.842L209.881 106.137ZM152.394 104.663L150.933 105.394L150.902 105.408L150.874 105.43L149.414 106.524L149.354 106.569L149.315 106.634L147.124 110.286L147.108 110.312L147.097 110.341L146.366 112.166L146.339 112.237V112.313L146.704 142.257L146.71 142.736L147.177 142.624L157.767 140.068L158.063 139.996L158.06 139.691L157.694 113.764V110.826L157.691 110.806L157.326 107.519L157.315 107.415L157.252 107.332L156.157 105.871L156.124 105.827L156.08 105.795L154.62 104.699L154.518 104.622H152.475L152.394 104.663ZM90.3672 62.6494L89.2715 63.0137L89.2129 63.0342L89.1631 63.0713L87.7021 64.167L87.6494 64.2061L87.6133 64.2607L86.8828 65.3555L86.8184 65.4521V91.0635L87.1084 91.1357L92.9512 92.5967L93.4199 92.7139L93.4268 92.2314L93.791 66.3037L93.792 66.2539L93.7803 66.2051L93.415 64.7451L93.3965 64.6699L93.3496 64.6084L92.2539 63.1475L92.1729 63.0391L92.041 63.0059L90.5801 62.6406L90.4727 62.6133L90.3672 62.6494ZM55.2598 63.0361L54.5293 63.4014L54.3721 63.4795L54.3291 63.6504L53.9639 65.1113L53.9521 65.1562V91.1484H58.7344V64.7764L58.3496 63.6221L58.2998 63.4717L58.1572 63.4014L57.4277 63.0361L57.3467 62.9951H55.3398L55.2598 63.0361ZM71.373 60.4561L70.2773 60.8203L70.1914 60.8496L69.3779 61.6631L69.3623 61.6846L68.2666 63.1455L68.2197 63.207L68.2012 63.2822L67.8359 64.7422L67.8242 64.7881V89.6846H78.084V64.7881L78.0723 64.7422L77.707 63.2822L77.6885 63.207L77.6426 63.1455L76.5469 61.6846L76.5303 61.6631L76.5107 61.6436L75.7812 60.9131L75.7168 60.8496L75.6318 60.8203L74.5361 60.4561L74.4766 60.4355H71.4316L71.373 60.4561Z" fill="url(#paint0_linear_1317_2139)"/>
<path d="M200.06 231.196L202.987 230.213L221.281 228.903H240.306L277.992 229.23L269.943 211.868L264.82 204.989L257.137 201.385L249.453 199.092V196.472L290.066 195.816L331.411 194.834L340.192 189.92L353.729 191.558V185.661L354.827 182.713H358.12L359.949 191.558L363.974 193.851L359.949 197.454L361.413 219.73L366.169 221.696L370.926 224.972L375.682 228.903L378.975 233.816L380.438 241.351L385.927 243.644L392.878 251.178V261.661L396.903 264.282L395.805 271.489H392.878L396.903 353.713H-0.808672V275.42H-6.29688V269.523H-1.54043L15.6559 265.92H22.2418L26.2665 264.609H33.9499L37.6087 263.299H46.024L62.8545 259.696L69.8062 258.385L68.7086 252.489L93.2225 250.523L92.4908 253.799L98.3449 256.092L107.126 249.54L115.541 253.799L126.152 256.092L198.596 249.54L200.06 231.196Z" fill="#5261AD" stroke="#66CAED" stroke-opacity="0.41" stroke-width="2.2352"/>
<path d="M158.418 133.91L157.323 137.562L139.429 141.213L139.064 145.961L136.508 152.534L141.255 154.725L174.851 147.787H207.717L231.088 153.629V151.073L226.706 149.247V144.135H223.419V141.944L217.211 140.118L215.385 139.388L213.925 137.927V134.64L215.02 132.814L217.576 128.798L219.037 126.607L219.767 123.32V120.764L219.402 117.842L218.307 114.921L216.481 112.73L213.925 109.809L211.368 106.522L209.543 104.696L208.082 103.601L205.16 101.41L202.969 99.9489L200.413 98.8533L196.761 97.7578L193.84 97.0275L191.284 96.2971L189.823 95.2016L189.458 93.3757V89.724L191.284 88.9937V86.8026L189.458 86.0723V80.5947L191.284 80.2295L192.379 80.9598L193.475 80.2295L193.84 78.7688L195.301 78.4036L195.666 77.3081L194.936 76.2126H193.84V74.7519L192.745 74.3867L191.649 74.7519V75.8474V76.5778H189.823L190.188 76.2126L189.093 75.1171V73.6564L189.823 74.0215L190.188 73.6564L189.093 72.5609L190.188 72.1957L190.553 71.1002L189.823 70.3698H187.997V68.9091L186.902 68.5439L185.806 68.9091V70.3698H184.711L183.98 71.1002V72.1957L185.076 72.5609L184.346 73.6564L185.076 74.0215L186.171 73.6564V75.1171L185.076 76.5778H183.615V75.8474V74.7519L182.52 74.3867L181.424 74.7519V76.2126H179.963L179.233 77.3081V78.4036L180.694 78.7688L180.329 80.2295L181.424 80.9598L182.885 80.2295L185.441 80.5947V86.0723L183.25 86.8026L183.615 88.9937L185.441 89.724V93.3757L183.25 96.2971L179.233 96.6623L175.216 97.7578L170.834 100.314L167.182 102.87L162.8 106.157L159.149 109.443L155.132 114.191L153.671 120.399L154.036 123.32L154.401 126.607L156.958 129.528L158.418 133.91Z" fill="#5261AD" stroke="#66CAED" stroke-opacity="0.41" stroke-width="0.764735"/>
<path d="M36.4453 155.819L40.8274 163.853V168.6L54.3388 167.504L42.2881 182.111L43.7488 183.572L46.6702 185.763H48.8612L76.9796 149.246L104.368 176.269L105.463 175.538V173.712V170.791L99.2551 164.583L134.312 162.392L106.193 144.133H99.6203V142.673V140.116H104.002V136.465H99.6203V130.987H96.3338V136.465H91.5865V140.116H80.6313V137.56L79.5358 135.369L77.3447 133.178L75.5189 131.717L72.9627 130.257L71.1368 129.526L69.3109 128.796L67.1199 127.7V124.779L68.9458 124.049V122.588L68.2154 121.858H67.1199V114.238L71.9956 114.238V110.537L67.1199 110.537V105.79H65.294H63.8333V110.537H58.7209V114.238L63.8333 114.238V121.858H62.7378L61.6423 122.588V124.049L63.4681 124.779V127.7L61.6423 128.796L58.3557 129.526L52.8781 130.987L49.5916 132.813L46.6702 135.004L43.0184 137.925L39.7319 141.212L37.906 143.768L36.4453 146.689V155.819Z" fill="#5261AD" stroke="#66CAED" stroke-opacity="0.41" stroke-width="0.764735"/>
</g>
<defs>
<linearGradient id="paint0_linear_1317_2139" x1="195.703" y1="295.605" x2="202.764" y2="-36.3214" gradientUnits="userSpaceOnUse">
<stop stop-color="#283BAF"/>
<stop offset="0.592113" stop-color="#263987"/>
<stop offset="1" stop-color="#211B52"/>
</linearGradient>
<clipPath id="clip0_1317_2139">
<rect width="401" height="354" fill="white"/>
</clipPath>
</defs>
</svg>
