<svg width="230" height="407" viewBox="0 0 230 407" fill="none" xmlns="http://www.w3.org/2000/svg">
<path d="M148.908 76.6903L145.172 76.3311L143.215 74.5351L140.902 73.2779L136.099 74.7147L133.074 75.7923L131.117 75.9719L131.295 72.2003L133.252 69.3266L133.608 67.5306L133.786 65.7346L135.031 64.4773L136.633 63.2201L137.878 60.1669L138.767 57.2932L138.59 55.6768L138.056 54.24L136.099 53.7012L135.565 50.4683L134.676 47.4151L132.897 44.0026L130.762 40.5902L127.915 36.8185L125.958 35.3817L123.823 34.3041L123.467 31.7897L121.688 29.4548L118.842 28.3772L119.731 24.9648L120.977 22.4503L121.866 20.4747L122.578 19.0379L122.756 17.7807V12.7518V7.54331L122.222 5.20848L120.799 3.05324L118.842 1.25722L116.707 0H114.038H111.37L108.701 0.538808L106.033 1.43682L102.119 4.31046L98.7384 7.54331L97.1372 11.1354V15.0866L98.2047 24.426L95.714 38.9738L77.5674 63.5793L74.7209 75.0739L69.9174 79.0252L68.3163 89.0829L71.6965 96.0874L76.1442 96.8058L78.8128 102.912V117.281L66.893 140.27L66.1814 158.05L64.7581 176.37L68.6721 183.554L67.0709 186.428L71.5186 202.053L70.807 234.202L66.3593 235.998L55.507 248.39L48.0349 274.612L21.3488 285.568L19.036 308.917H12.9872L0 406.8H229.5L226.298 381.476L222.562 356.511L216.691 306.761L212.599 306.043L211.709 303.888L210.998 302.092L210.82 297.781L210.642 293.65L210.464 288.981L209.93 284.67L204.237 280.001L197.655 276.408L186.802 272.816L178.085 250.007L174.527 244.798L171.858 242.104L173.459 233.483L173.993 229.353V225.222L174.171 217.499L173.993 213.548L173.459 209.596L172.57 202.053L170.791 194.15L167.944 186.607L166.343 183.374L164.564 181.039V176.37L165.454 172.778L166.699 169.186L169.19 162.002L169.723 159.308L169.367 155.895L164.742 153.381L165.098 141.706L164.742 128.236L159.938 120.513L155.669 113.688L155.135 108.121L153.178 105.427L151.577 105.247V104.17L153.178 100.937L154.067 96.9854L154.779 89.0829L154.957 87.2869L154.067 85.4909L152.822 82.258L148.908 76.6903Z" fill="url(#paint0_linear_1317_1971)" stroke="#66CAED" stroke-opacity="0.41" stroke-width="2.05161"/>
<defs>
<linearGradient id="paint0_linear_1317_1971" x1="115.984" y1="436.385" x2="134.216" y2="-40.041" gradientUnits="userSpaceOnUse">
<stop stop-color="#283BAF"/>
<stop offset="0.40825" stop-color="#263987"/>
<stop offset="1" stop-color="#211B52"/>
</linearGradient>
</defs>
</svg>
