<svg width="327" height="562" viewBox="0 0 327 562" fill="none" xmlns="http://www.w3.org/2000/svg">
<g clip-path="url(#clip0_1580_2098)">
<path d="M210.979 105.949L205.786 105.453L203.066 102.971L199.851 101.234L193.174 103.219L188.971 104.708L186.25 104.956L186.498 99.7457L189.218 95.7757L189.712 93.2945L189.96 90.8132L191.691 89.0764L193.916 87.3395L195.647 83.1214L196.884 79.1514L196.636 76.9183L195.895 74.9333L193.174 74.189L192.433 69.7227L191.196 65.5046L188.723 60.7903L185.756 56.0759L181.799 50.8653L179.079 48.8804L176.112 47.3916L175.617 43.9179L173.144 40.6923L169.188 39.2035L170.424 34.4892L172.155 31.0155L173.391 28.2861L174.381 26.3011L174.628 24.5642V17.6168V10.4212L173.886 7.19558L171.908 4.2181L169.188 1.73687L166.22 0H162.511H158.802L155.092 0.744371L151.383 1.98499L145.943 5.95497L141.244 10.4212L139.019 15.3837V20.8424L140.502 33.7448L137.04 53.8428L111.817 87.8358L107.86 103.716L101.184 109.174L98.9581 123.069L103.657 132.746L109.839 133.739L113.548 142.175V162.025L96.9798 193.785L95.9907 218.349L94.0124 243.657L99.4527 253.582L97.2271 257.552L103.409 279.139L102.42 323.553L96.238 326.034L81.1535 343.155L70.7674 379.381L33.6744 394.517L30.4597 426.773H22.0519L4 562H323L318.549 527.015L313.356 492.525L305.195 423.795L299.508 422.803L298.271 419.825L297.282 417.344L297.035 411.389L296.788 405.682L296.54 399.231L295.798 393.276L287.885 386.825L278.736 381.862L263.651 376.9L251.534 345.388L246.588 338.192L242.879 334.471L245.105 322.561L245.847 316.854V311.147L246.094 300.478L245.847 295.019L245.105 289.56L243.868 279.139L241.395 268.222L237.439 257.8L235.213 253.334L232.74 250.109V243.657L233.977 238.695L235.708 233.732L239.17 223.807L239.912 220.086L239.417 215.371L232.988 211.898L233.482 195.77L232.988 177.16L226.311 166.491L220.376 157.062L219.634 149.37L216.914 145.649L214.688 145.4V143.912L216.914 139.445L218.15 133.987L219.14 123.069L219.387 120.588L218.15 118.107L216.419 113.641L210.979 105.949Z" fill="url(#paint0_linear_1580_2098)" stroke="black" stroke-width="0.139751"/>
</g>
<defs>
<linearGradient id="paint0_linear_1580_2098" x1="159.791" y1="687.562" x2="240.984" y2="-75.4316" gradientUnits="userSpaceOnUse">
<stop offset="0.0480769" stop-color="#00A4E4"/>
<stop offset="0.995029" stop-color="#89D3E7"/>
<stop offset="1" stop-color="#5FB9F8"/>
</linearGradient>
<clipPath id="clip0_1580_2098">
<rect width="327" height="562" fill="white"/>
</clipPath>
</defs>
</svg>
